<?xml version="1.0" encoding="UTF-8" standalone="no"?>
<svg width="40px" height="26px" viewBox="0 0 40 26" version="1.1" xmlns="http://www.w3.org/2000/svg" xmlns:xlink="http://www.w3.org/1999/xlink">
    <!-- Generator: Sketch 3.7.1 (28215) - http://www.bohemiancoding.com/sketch -->
    <title>Group 2</title>
    <desc>Created with Sketch.</desc>
    <defs></defs>
    <g id="Page-1" stroke="none" stroke-width="1" fill="none" fill-rule="evenodd">
        <g id="Group-2">
            <path d="M39.9949206,23.7044444 C39.9949206,24.4371429 39.4003175,25.0311111 38.667619,25.0311111 L1.50285714,25.0311111 C0.77015873,25.0311111 0.176190476,24.4371429 0.176190476,23.7044444 L0.176190476,1.47142857 C0.176190476,0.738730159 0.77015873,0.144761905 1.50285714,0.144761905 L38.667619,0.144761905 C39.4003175,0.144761905 39.9949206,0.738730159 39.9949206,1.47142857 L39.9949206,23.7044444" id="Fill-638" fill="#0078A9"></path>
            <path d="M12.5304762,12.0085714 L12.5304762,11.6104762 L12.34,12.0085714 L10.6914286,12.0085714 L10.484127,11.5812698 L10.484127,12.0085714 L7.40253968,12.0085714 L7.03873016,11.1466667 L6.42126984,11.1466667 L6.03555556,12.0085714 L4.43777778,12.0085714 L4.43777778,9.40698413 L5.60888889,6.7568254 L7.85142857,6.7568254 L8.16666667,7.50761905 L8.16666667,6.76222222 L10.9088889,6.76222222 L11.512381,8.02666667 L12.1025397,6.7568254 L20.7606349,6.7568254 C20.7606349,6.7568254 21.2146032,6.75047619 21.5136508,6.96063492 L21.511746,6.7568254 L23.6930159,6.7568254 L23.6930159,7.04380952 C23.6930159,7.04380952 24.0853968,6.7568254 24.6650794,6.7568254 L28.5142857,6.7568254 L28.852381,7.51873016 L28.852381,6.7568254 L31.3187302,6.7568254 L31.7663492,7.51873016 L31.7663492,6.7568254 L34.1244444,6.7568254 L34.1244444,12.0133333 L31.7019048,12.0133333 L31.1326984,11.0971429 L31.1326984,12.0085714 L28.1219048,12.0085714 L27.6984127,11.0698413 L27.108254,11.0698413 L26.7114286,12.0085714 L24.8888889,12.0085714 C24.8888889,12.0085714 24.2095238,12 23.6996825,11.6352381 L23.6996825,12.0085714 L20.0720635,12.0085714 L20.0720635,10.7822222 C20.0720635,10.604127 19.9355556,10.6165079 19.9355556,10.6165079 L19.8028571,10.6165079 L19.8028571,12.0085714 L12.5304762,12.0085714" id="Fill-639" fill="#FFFFFF"></path>
            <path d="M10.72,13.1469841 L15.4866667,13.1469841 L16.1749206,13.9257143 L16.8787302,13.1469841 L20.5438095,13.1469841 C20.5438095,13.1469841 20.8879365,13.1555556 21.2146032,13.3298413 L21.2146032,13.1469841 L24.4784127,13.1469841 C24.8926984,13.1469841 25.2406349,13.3539683 25.2406349,13.3539683 L25.2406349,13.1469841 L29.435873,13.1469841 L29.435873,13.3377778 C29.435873,13.3377778 29.7346032,13.1469841 30.1365079,13.1469841 L32.8695238,13.1469841 L32.8695238,13.3377778 C32.8695238,13.3377778 33.2136508,13.1469841 33.5777778,13.1469841 L35.7234921,13.1469841 L35.7234921,18.1003175 C35.7234921,18.1003175 35.4415873,18.4196825 34.8580952,18.4196825 L32.0288889,18.4196825 L32.0288889,18.2622222 C32.0288889,18.2622222 31.7596825,18.4196825 31.3492063,18.4196825 L23.8336508,18.4196825 L23.8336508,17.1393651 C23.8336508,17.0133333 23.7790476,16.9904762 23.6669841,16.9904762 L23.5634921,16.9904762 L23.5634921,18.4196825 L21.2146032,18.4196825 L21.2146032,16.9993651 C21.2146032,16.9993651 20.9542857,17.1393651 20.5190476,17.1393651 L19.6746032,17.1393651 L19.6746032,18.4196825 L16.7793651,18.4196825 L16.1209524,17.6161905 L15.4168254,18.4196825 L10.72,18.4196825 L10.72,13.1469841" id="Fill-640" fill="#FFFFFF"></path>
            <polyline id="Fill-641" fill="#0078A9" points="25.744127 13.9374603 28.735873 13.9374603 28.735873 14.7396825 26.66 14.7396825 26.66 15.4393651 28.6774603 15.4393651 28.6774603 16.1460317 26.66 16.1460317 26.66 16.8819048 28.735873 16.8819048 28.735873 17.6644444 25.744127 17.6644444 25.744127 13.9374603"></polyline>
            <path d="M34.5152381,15.3895238 C35.6393651,15.4473016 35.7336508,16.0088889 35.7336508,16.6079365 C35.7336508,17.3060317 35.1593651,17.6812698 34.5603175,17.6812698 L32.6384127,17.6812698 L32.6384127,16.8819048 L34.1355556,16.8819048 C34.3898413,16.8819048 34.768254,16.8819048 34.768254,16.524127 C34.768254,16.3542857 34.7019048,16.2460317 34.4314286,16.2174603 C34.3111111,16.2 33.8666667,16.1752381 33.7990476,16.1739683 C32.7834921,16.1473016 32.5463492,15.6419048 32.5463492,15.0269841 C32.5463492,14.328254 33.0374603,13.9460317 33.6371429,13.9460317 L35.5587302,13.9460317 L35.5587302,14.7447619 L34.152381,14.7447619 C33.832381,14.7479365 33.4869841,14.7069841 33.4869841,15.0685714 C33.4869841,15.2971429 33.6574603,15.3431746 33.8739683,15.364127 C33.9488889,15.364127 34.448254,15.3901587 34.5152381,15.3895238" id="Fill-642" fill="#0078A9"></path>
            <path d="M31.0695238,15.3895238 C32.1942857,15.4473016 32.2885714,16.0088889 32.2885714,16.6079365 C32.2885714,17.3060317 31.7149206,17.6812698 31.1155556,17.6812698 L29.1939683,17.6812698 L29.1939683,16.8819048 L30.6914286,16.8819048 C30.9450794,16.8819048 31.3238095,16.8819048 31.3238095,16.524127 C31.3238095,16.3542857 31.2568254,16.2460317 30.9863492,16.2174603 C30.8663492,16.2 30.4209524,16.1752381 30.3546032,16.1739683 C29.3377778,16.1473016 29.1028571,15.6419048 29.1028571,15.0269841 C29.1028571,14.328254 29.5933333,13.9460317 30.1920635,13.9460317 L32.1136508,13.9460317 L32.1136508,14.7447619 L30.7079365,14.7447619 C30.387619,14.7479365 30.0422222,14.7069841 30.0422222,15.0685714 C30.0422222,15.2971429 30.2133333,15.3431746 30.4298413,15.364127 C30.504127,15.364127 31.0031746,15.3901587 31.0695238,15.3895238" id="Fill-643" fill="#0078A9"></path>
            <path d="M19.9120635,15.64 L18.772381,15.64 L18.772381,14.7453968 L19.9155556,14.7453968 C20.2987302,14.7453968 20.4196825,14.9907937 20.4196825,15.1739683 C20.4196825,15.4238095 20.2863492,15.64 19.9120635,15.64 L19.9120635,15.64 Z M17.8492063,17.3149206 L16.5346032,15.7590476 L17.8492063,14.3031746 L17.8492063,17.3149206 L17.8492063,17.3149206 Z M14.3514286,16.8819048 L12.2415873,16.8819048 L12.2415873,16.1460317 L14.2596825,16.1460317 L14.2596825,15.4393651 L12.2415873,15.4393651 L12.2415873,14.7396825 L14.4666667,14.7447619 L15.3577778,15.7590476 L14.3514286,16.8819048 L14.3514286,16.8819048 Z M20.22,13.9453968 L17.0088889,13.9453968 L15.9603175,15.1019048 L14.9460317,13.9374603 L11.3393651,13.9374603 L11.3393651,17.6644444 L14.8288889,17.6644444 L15.927619,16.4330159 L17.0003175,17.6733333 L18.7561905,17.6733333 L18.7561905,16.407619 L19.9869841,16.407619 C20.4612698,16.407619 21.3269841,16.391746 21.3269841,15.0850794 C21.3269841,14.1533333 20.6695238,13.9453968 20.22,13.9453968 L20.22,13.9453968 Z" id="Fill-644" fill="#0078A9"></path>
            <path d="M23.8504762,15.5898413 L22.7107937,15.5898413 L22.7107937,14.7453968 L23.8542857,14.7453968 C24.2368254,14.7453968 24.3577778,14.9907937 24.3577778,15.1739683 C24.3577778,15.4231746 24.2250794,15.5898413 23.8504762,15.5898413 L23.8504762,15.5898413 Z M24.6403175,15.9755556 C25.14,15.7263492 25.2726984,15.3933333 25.2726984,14.9438095 C25.2726984,14.1457143 24.624127,13.9460317 24.1746032,13.9460317 L21.7955556,13.9460317 L21.7955556,17.6733333 L22.7107937,17.6733333 L22.7107937,16.3580952 L23.9088889,16.3580952 C24.2250794,16.3580952 24.3495238,16.6742857 24.3577778,16.9904762 L24.3819048,17.6733333 L25.2726984,17.6733333 L25.2393651,16.907619 C25.2393651,16.3079365 25.0736508,16.0250794 24.6403175,15.9755556 L24.6403175,15.9755556 Z" id="Fill-645" fill="#0078A9"></path>
            <polygon id="Fill-646" fill="#0078A9" points="22.1622222 11.2346032 23.0771429 11.2346032 23.0771429 7.5031746 22.1622222 7.5031746"></polygon>
            <polyline id="Fill-647" fill="#0078A9" points="14.6714286 7.50761905 17.6619048 7.50761905 17.6619048 8.30984127 15.5866667 8.30984127 15.5866667 9.00952381 17.6034921 9.00952381 17.6034921 9.71619048 15.5866667 9.71619048 15.5866667 10.452381 17.6619048 10.452381 17.6619048 11.2346032 14.6714286 11.2346032 14.6714286 7.50761905"></polyline>
            <path d="M20.2596825,9.15142857 L19.1203175,9.15142857 L19.1203175,8.30698413 L20.264127,8.30698413 C20.6460317,8.30698413 20.767619,8.55238095 20.767619,8.7352381 C20.767619,8.98507937 20.6342857,9.15142857 20.2596825,9.15142857 L20.2596825,9.15142857 Z M21.0504762,9.53714286 C21.5501587,9.28857143 21.6828571,8.95492063 21.6828571,8.50539683 C21.6828571,7.70666667 21.0336508,7.50761905 20.5847619,7.50761905 L18.2050794,7.50761905 L18.2050794,11.2346032 L19.1203175,11.2346032 L19.1203175,9.92031746 L20.3180952,9.92031746 C20.6342857,9.92031746 20.7596825,10.235873 20.767619,10.5520635 L20.792381,11.2346032 L21.6828571,11.2346032 L21.6498413,10.4688889 C21.6498413,9.87015873 21.4831746,9.58730159 21.0504762,9.53714286 L21.0504762,9.53714286 Z" id="Fill-648" fill="#0078A9"></path>
            <path d="M6.11365079,9.5984127 L6.65936508,8.29587302 L7.22793651,9.5984127 L6.11365079,9.5984127 L6.11365079,9.5984127 Z M12.5606349,7.50761905 L11.4377778,10.007619 L10.3187302,7.50761905 L8.88380952,7.50761905 L8.88380952,11.0971429 L7.28666667,7.50761905 L6.07587302,7.50761905 L4.44507937,11.2346032 L5.41047619,11.2346032 L5.76761905,10.4025397 L7.59428571,10.4025397 L7.95650794,11.2346032 L9.7984127,11.2346032 L9.7984127,8.46825397 L11.0219048,11.2346032 L11.8539683,11.2346032 L13.1057143,8.51396825 L13.1057143,11.2346032 L14.0209524,11.2346032 L14.0209524,7.50761905 L12.5606349,7.50761905 L12.5606349,7.50761905 Z" id="Fill-649" fill="#0078A9"></path>
            <path d="M26.8990476,9.60031746 L27.444127,8.29746032 L28.0184127,9.60031746 L26.8990476,9.60031746 L26.8990476,9.60031746 Z M32.52,7.50571429 L32.52,10.0863492 L30.9765079,7.50571429 L29.624127,7.50571429 L29.624127,11.0060317 L28.0653968,7.50761905 L26.8546032,7.50761905 L25.5939683,10.3946032 C25.5939683,10.3946032 25.0612698,10.3946032 25.0073016,10.3815873 C24.7873016,10.3361905 24.4425397,10.1806349 24.4380952,9.52349206 L24.4380952,9.25301587 C24.4380952,8.37936508 24.9126984,8.31555556 25.5209524,8.31555556 L26.0857143,8.31555556 L26.0857143,7.50571429 L24.8907937,7.50571429 C24.4749206,7.50571429 23.5695238,7.8231746 23.5390476,9.35428571 C23.5180952,10.3860317 23.967619,11.2365079 24.9825397,11.2365079 L26.1892063,11.2365079 L26.5463492,10.4044444 L28.372381,10.4044444 L28.7346032,11.2365079 L30.54,11.2365079 L30.54,8.50730159 L32.1869841,11.2365079 L33.4349206,11.2365079 L33.4349206,7.50571429 L32.52,7.50571429 L32.52,7.50571429 Z" id="Fill-650" fill="#0078A9"></path>
        </g>
    </g>
</svg>