<?xml version="1.0" encoding="UTF-8" standalone="no"?>
<svg width="40px" height="25px" viewBox="0 0 40 25" version="1.1" xmlns="http://www.w3.org/2000/svg" xmlns:xlink="http://www.w3.org/1999/xlink">
    <!-- Generator: Sketch 3.7.1 (28215) - http://www.bohemiancoding.com/sketch -->
    <title>Group 4</title>
    <desc>Created with Sketch.</desc>
    <defs></defs>
    <g id="Page-1" stroke="none" stroke-width="1" fill="none" fill-rule="evenodd">
        <g id="Group-4">
            <path d="M39.8187302,23.5590476 C39.8187302,24.292381 39.224127,24.8866667 38.4914286,24.8866667 L1.32666667,24.8866667 C0.593968254,24.8866667 0,24.292381 0,23.5590476 L0,1.32698413 C0,0.593968254 0.593968254,0 1.32666667,0 L38.4914286,0 C39.224127,0 39.8187302,0.593968254 39.8187302,1.32698413 L39.8187302,23.5590476" id="Fill-590" fill="#074D95"></path>
            <path d="M21.008254,13.6276198 C23.2580952,13.6384134 25.311746,11.793334 25.311746,9.54761976 C25.311746,7.09269912 23.2580952,5.39555627 21.008254,5.39682611 L19.0711111,5.39682611 C16.7949206,5.39555627 14.9206349,7.09301659 14.9206349,9.54761976 C14.9206349,11.793334 16.7949206,13.6384134 19.0711111,13.6276198 L21.008254,13.6276198" id="Fill-591" fill="#FFFFFF"></path>
            <path d="M19.0053968,5.71428571 C16.9253968,5.7152381 15.2387302,7.40126984 15.2380952,9.48285714 C15.2387302,11.5634921 16.9253968,13.2492063 19.0053968,13.2501587 C21.0869841,13.2492063 22.7726984,11.5634921 22.7733333,9.48285714 C22.7726984,7.40126984 21.0869841,5.7152381 19.0053968,5.71428571 M16.6177778,9.48285714 C16.6196825,8.46539683 17.2552381,7.5984127 18.1504762,7.25365079 L18.1504762,11.7111111 C17.2552381,11.3663492 16.6196825,10.4996825 16.6177778,9.48285714 M19.8606349,11.711746 L19.8606349,7.25365079 C20.7565079,7.59746032 21.3926984,8.4647619 21.3939683,9.48285714 C21.3926984,10.5003175 20.7565079,11.3673016 19.8606349,11.711746" id="Fill-592" fill="#074D95"></path>
            <path d="M10.2419048,14.4511111 C10.2419048,14.0596825 10.0374603,14.0857143 9.84126984,14.0815873 L9.84126984,13.968254 C10.0114286,13.9768254 10.1853968,13.9768254 10.3555556,13.9768254 C10.5377778,13.9768254 10.7857143,13.968254 11.108254,13.968254 C12.2349206,13.968254 12.8485714,14.7206349 12.8485714,15.491746 C12.8485714,15.9222222 12.5961905,17.0057143 11.0561905,17.0057143 C10.8339683,17.0057143 10.6295238,16.9971429 10.4247619,16.9971429 C10.2288889,16.9971429 10.0374603,17.0015873 9.84126984,17.0057143 L9.84126984,16.8930159 C10.1025397,16.8666667 10.2288889,16.8580952 10.2419048,16.5622222 L10.2419048,14.4511111 L10.2419048,14.4511111 Z M10.6679365,16.492381 C10.6679365,16.827619 10.9079365,16.8666667 11.1206349,16.8666667 C12.0606349,16.8666667 12.3698413,16.1574603 12.3698413,15.5088889 C12.3698413,14.6952381 11.8473016,14.1079365 11.007619,14.1079365 C10.8292063,14.1079365 10.7466667,14.1206349 10.6679365,14.1253968 L10.6679365,16.492381 L10.6679365,16.492381 Z" id="Fill-593" fill="#FFFFFF"></path>
            <path d="M13.015873,16.6238095 L13.0980952,16.6238095 C13.2203175,16.6238095 13.3073016,16.6238095 13.3073016,16.4796825 L13.3073016,15.3003175 C13.3073016,15.1092063 13.2419048,15.0828571 13.0809524,14.995873 L13.0809524,14.9266667 C13.2847619,14.8650794 13.5292063,14.7828571 13.5463492,14.7701587 C13.5768254,14.752381 13.6028571,14.7479365 13.6247619,14.7479365 C13.6463492,14.7479365 13.6549206,14.7742857 13.6549206,14.8088889 L13.6549206,16.4796825 C13.6549206,16.6238095 13.7504762,16.6238095 13.8726984,16.6238095 L13.9469841,16.6238095 L13.9469841,16.7365079 C13.7987302,16.7365079 13.6463492,16.7279365 13.4901587,16.7279365 C13.3333333,16.7279365 13.1761905,16.732381 13.015873,16.7365079 L13.015873,16.6238095 L13.015873,16.6238095 Z M13.4812698,14.0780952 C13.3679365,14.0780952 13.268254,13.9733333 13.268254,13.8603175 C13.268254,13.7507937 13.3730159,13.6507937 13.4812698,13.6507937 C13.5942857,13.6507937 13.6939683,13.7428571 13.6939683,13.8603175 C13.6939683,13.9777778 13.5987302,14.0780952 13.4812698,14.0780952 L13.4812698,14.0780952 Z" id="Fill-594" fill="#FFFFFF"></path>
            <path d="M14.2552381,15.4990476 C14.2552381,15.3384127 14.2069841,15.2952381 14.0034921,15.212381 L14.0034921,15.1295238 C14.1901587,15.0688889 14.3685714,15.0120635 14.5771429,14.9206349 C14.5907937,14.9206349 14.6031746,14.9295238 14.6031746,14.964127 L14.6031746,15.2466667 C14.851746,15.0688889 15.0650794,14.9206349 15.3571429,14.9206349 C15.7266667,14.9206349 15.8568254,15.1904762 15.8568254,15.5298413 L15.8568254,16.652381 C15.8568254,16.7965079 15.9530159,16.7965079 16.0742857,16.7965079 L16.1530159,16.7965079 L16.1530159,16.9092063 C16,16.9092063 15.847619,16.9006349 15.691746,16.9006349 C15.5349206,16.9006349 15.3787302,16.9050794 15.2219048,16.9092063 L15.2219048,16.7965079 L15.2993651,16.7965079 C15.4215873,16.7965079 15.508254,16.7965079 15.508254,16.652381 L15.508254,15.5257143 C15.508254,15.2774603 15.3571429,15.1555556 15.108254,15.1555556 C14.9695238,15.1555556 14.747619,15.2688889 14.6031746,15.3650794 L14.6031746,16.652381 C14.6031746,16.7965079 14.6996825,16.7965079 14.8212698,16.7965079 L14.8993651,16.7965079 L14.8993651,16.9092063 C14.747619,16.9092063 14.5949206,16.9006349 14.4380952,16.9006349 C14.2819048,16.9006349 14.1250794,16.9050794 13.968254,16.9092063 L13.968254,16.7965079 L14.0469841,16.7965079 C14.1685714,16.7965079 14.2552381,16.7965079 14.2552381,16.652381 L14.2552381,15.4990476" id="Fill-595" fill="#FFFFFF"></path>
            <path d="M16.5390476,15.7085714 C16.5301587,15.7479365 16.5301587,15.8126984 16.5390476,15.9606349 C16.5650794,16.3742857 16.8307937,16.7136508 17.1780952,16.7136508 C17.4180952,16.7136508 17.6053968,16.5828571 17.7660317,16.4225397 L17.8266667,16.4828571 C17.6263492,16.7485714 17.3784127,16.9742857 17.0219048,16.9742857 C16.3298413,16.9742857 16.1904762,16.3044444 16.1904762,16.0260317 C16.1904762,15.1726984 16.7644444,14.9206349 17.0695238,14.9206349 C17.4225397,14.9206349 17.8012698,15.1425397 17.8050794,15.6038095 C17.8050794,15.6301587 17.8050794,15.655873 17.8012698,15.6822222 L17.7615873,15.7085714 L16.5390476,15.7085714 L16.5390476,15.7085714 Z M17.3088889,15.5692063 C17.4180952,15.5692063 17.4304762,15.512381 17.4304762,15.4603175 C17.4304762,15.2380952 17.295873,15.06 17.052381,15.06 C16.7869841,15.06 16.604127,15.2555556 16.5520635,15.5692063 L17.3088889,15.5692063 L17.3088889,15.5692063 Z" id="Fill-596" fill="#FFFFFF"></path>
            <path d="M17.7777778,16.7965079 L17.8949206,16.7965079 C18.0165079,16.7965079 18.104127,16.7965079 18.104127,16.652381 L18.104127,15.4301587 C18.104127,15.2952381 17.9434921,15.2688889 17.8777778,15.2336508 L17.8777778,15.1685714 C18.1952381,15.0336508 18.3692063,14.9206349 18.4088889,14.9206349 C18.4346032,14.9206349 18.447619,14.9339683 18.447619,14.9777778 L18.447619,15.3692063 L18.4568254,15.3692063 C18.5653968,15.1993651 18.748254,14.9206349 19.0136508,14.9206349 C19.1228571,14.9206349 19.2615873,14.9942857 19.2615873,15.1511111 C19.2615873,15.2688889 19.1790476,15.3733333 19.0568254,15.3733333 C18.9219048,15.3733333 18.9219048,15.2688889 18.7692063,15.2688889 C18.6955556,15.2688889 18.452381,15.3692063 18.452381,15.6301587 L18.452381,16.652381 C18.452381,16.7965079 18.5393651,16.7965079 18.6612698,16.7965079 L18.9044444,16.7965079 L18.9044444,16.9092063 C18.6650794,16.9050794 18.4828571,16.9006349 18.2955556,16.9006349 C18.1171429,16.9006349 17.9346032,16.9050794 17.7777778,16.9092063 L17.7777778,16.7965079" id="Fill-597" fill="#FFFFFF"></path>
            <path d="M19.4434921,16.3044444 C19.4996825,16.591746 19.6739683,16.8355556 19.9914286,16.8355556 C20.248254,16.8355556 20.3434921,16.6787302 20.3434921,16.5263492 C20.3434921,16.0130159 19.3955556,16.1780952 19.3955556,15.4774603 C19.3955556,15.2336508 19.5907937,14.9206349 20.0701587,14.9206349 C20.2092063,14.9206349 20.395873,14.9596825 20.5663492,15.0466667 L20.5965079,15.4901587 L20.4961905,15.4901587 C20.4526984,15.2168254 20.3003175,15.06 20.0219048,15.06 C19.847619,15.06 19.6825397,15.16 19.6825397,15.3473016 C19.6825397,15.8565079 20.6920635,15.6993651 20.6920635,16.3825397 C20.6920635,16.6698413 20.4615873,16.9742857 19.9438095,16.9742857 C19.7695238,16.9742857 19.5647619,16.9136508 19.4130159,16.8269841 L19.3650794,16.3266667 L19.4434921,16.3044444" id="Fill-598" fill="#FFFFFF"></path>
            <path d="M24.624127,14.5034921 L24.5149206,14.5034921 C24.4326984,13.9949206 24.0711111,13.7901587 23.5838095,13.7901587 C23.0834921,13.7901587 22.3561905,14.1247619 22.3561905,15.1698413 C22.3561905,16.0488889 22.9834921,16.68 23.6530159,16.68 C24.084127,16.68 24.4412698,16.3844444 24.5285714,15.9269841 L24.6285714,15.9530159 L24.5285714,16.588254 C24.3450794,16.7019048 23.8533333,16.8187302 23.5663492,16.8187302 C22.548254,16.8187302 21.9047619,16.1622222 21.9047619,15.1828571 C21.9047619,14.2904762 22.7006349,13.6507937 23.5533333,13.6507937 C23.9053968,13.6507937 24.2453968,13.7644444 24.5806349,13.8819048 L24.624127,14.5034921" id="Fill-599" fill="#FFFFFF"></path>
            <path d="M25.0793651,16.8625397 L25.1619048,16.8625397 C25.284127,16.8625397 25.3707937,16.8625397 25.3707937,16.7184127 L25.3707937,14.2949206 C25.3707937,14.011746 25.3057143,14.0031746 25.1396825,13.9555556 L25.1396825,13.8857143 C25.3142857,13.8295238 25.4974603,13.7511111 25.5885714,13.6984127 C25.6355556,13.672381 25.6707937,13.6507937 25.6838095,13.6507937 C25.7101587,13.6507937 25.7187302,13.6768254 25.7187302,13.711746 L25.7187302,16.7184127 C25.7187302,16.8625397 25.8149206,16.8625397 25.9368254,16.8625397 L26.0101587,16.8625397 L26.0101587,16.9752381 C25.8625397,16.9752381 25.7101587,16.9666667 25.5536508,16.9666667 C25.3968254,16.9666667 25.2406349,16.9711111 25.0793651,16.9752381 L25.0793651,16.8625397" id="Fill-600" fill="#FFFFFF"></path>
            <path d="M27.5768254,16.6044444 C27.5768254,16.6831746 27.6244444,16.6873016 27.6984127,16.6873016 C27.7504762,16.6873016 27.8155556,16.6831746 27.8726984,16.6831746 L27.8726984,16.7746032 C27.6853968,16.7920635 27.328254,16.8834921 27.2457143,16.9088889 L27.224127,16.8961905 L27.224127,16.5438095 C26.9628571,16.7571429 26.7628571,16.9088889 26.4533333,16.9088889 C26.2184127,16.9088889 25.9746032,16.7571429 25.9746032,16.391746 L25.9746032,15.2774603 C25.9746032,15.1644444 25.9577778,15.0552381 25.7142857,15.0339683 L25.7142857,14.9511111 C25.8704762,14.9466667 26.2184127,14.9206349 26.2752381,14.9206349 C26.3238095,14.9206349 26.3238095,14.9511111 26.3238095,15.0466667 L26.3238095,16.1695238 C26.3238095,16.3 26.3238095,16.6742857 26.7019048,16.6742857 C26.8495238,16.6742857 27.0453968,16.5609524 27.228254,16.4092063 L27.228254,15.2380952 C27.228254,15.1514286 27.0193651,15.1034921 26.8631746,15.06 L26.8631746,14.9812698 C27.2542857,14.9552381 27.4980952,14.9206349 27.5415873,14.9206349 C27.5768254,14.9206349 27.5768254,14.9511111 27.5768254,14.9993651 L27.5768254,16.6044444" id="Fill-601" fill="#FFFFFF"></path>
            <path d="M28.5152381,15.2993651 C28.6892063,15.151746 28.9244444,14.9863492 29.1634921,14.9863492 C29.668254,14.9863492 29.9726984,15.4263492 29.9726984,15.9 C29.9726984,16.4701587 29.5549206,17.04 28.9330159,17.04 C28.6104762,17.04 28.4412698,16.935873 28.3279365,16.888254 L28.1977778,16.988254 L28.1063492,16.9403175 C28.1450794,16.6834921 28.1673016,16.4311111 28.1673016,16.1657143 L28.1673016,14.2946032 C28.1673016,14.0114286 28.1015873,14.0028571 27.9365079,13.9552381 L27.9365079,13.8853968 C28.1107937,13.8292063 28.2930159,13.7507937 28.3847619,13.6980952 C28.4326984,13.6720635 28.4666667,13.6507937 28.4809524,13.6507937 C28.5069841,13.6507937 28.5152381,13.6765079 28.5152381,13.7114286 L28.5152381,15.2993651 L28.5152381,15.2993651 Z M28.5152381,16.4831746 C28.5152381,16.6485714 28.6720635,16.927619 28.9634921,16.927619 C29.4295238,16.927619 29.6244444,16.4701587 29.6244444,16.0825397 C29.6244444,15.6130159 29.2679365,15.2212698 28.9285714,15.2212698 C28.7673016,15.2212698 28.6330159,15.3260317 28.5152381,15.4263492 L28.5152381,16.4831746 L28.5152381,16.4831746 Z" id="Fill-602" fill="#FFFFFF"></path>
            <path d="M9.84126984,19.36 L9.87460317,19.36 C9.95968254,19.36 10.0495238,19.3479365 10.0495238,19.2244444 L10.0495238,17.9844444 C10.0495238,17.8609524 9.95968254,17.8492063 9.87460317,17.8492063 L9.84126984,17.8492063 L9.84126984,17.7777778 C9.93428571,17.7777778 10.0761905,17.7873016 10.1920635,17.7873016 C10.3104762,17.7873016 10.4526984,17.7777778 10.5634921,17.7777778 L10.5634921,17.8492063 L10.5307937,17.8492063 C10.4457143,17.8492063 10.3552381,17.8609524 10.3552381,17.9844444 L10.3552381,19.2244444 C10.3552381,19.3479365 10.4457143,19.36 10.5307937,19.36 L10.5634921,19.36 L10.5634921,19.4311111 C10.4501587,19.4311111 10.308254,19.4215873 10.1898413,19.4215873 C10.0736508,19.4215873 9.93428571,19.4311111 9.84126984,19.4311111 L9.84126984,19.36" id="Fill-603" fill="#FFFFFF"></path>
            <path d="M10.5733333,19.4507937 C10.4593651,19.4507937 10.3180952,19.4415873 10.1996825,19.4415873 C10.0834921,19.4415873 9.9447619,19.4507937 9.85111111,19.4507937 L9.84126984,19.4507937 L9.84126984,19.3593651 L9.88380952,19.3593651 C9.97079365,19.3574603 10.048254,19.3507937 10.0488889,19.2346032 L10.0488889,17.9946032 C10.048254,17.8784127 9.97079365,17.8711111 9.88380952,17.8695238 L9.84126984,17.8695238 L9.84126984,17.7777778 L9.85111111,17.7777778 C9.9447619,17.7777778 10.0860317,17.7869841 10.2019048,17.7869841 C10.3203175,17.7869841 10.4619048,17.7777778 10.5733333,17.7777778 L10.5838095,17.7777778 L10.5838095,17.8695238 L10.5406349,17.8695238 C10.4549206,17.8711111 10.3755556,17.8784127 10.3755556,17.9946032 L10.3755556,19.2346032 C10.3755556,19.3507937 10.4549206,19.3574603 10.5406349,19.3593651 L10.5838095,19.3593651 L10.5838095,19.4507937 L10.5733333,19.4507937 L10.5733333,19.4507937 Z M10.5634921,19.4307937 L10.5634921,19.3803175 L10.5406349,19.3803175 C10.4561905,19.3803175 10.3552381,19.3660317 10.3546032,19.2346032 L10.3546032,17.9946032 C10.3552381,17.8634921 10.4561905,17.8488889 10.5406349,17.8488889 L10.5634921,17.8488889 L10.5634921,17.7984127 C10.4536508,17.7984127 10.3174603,17.8079365 10.2019048,17.8079365 C10.0898413,17.8079365 9.95333333,17.7990476 9.8615873,17.7984127 L9.8615873,17.8488889 L9.88380952,17.8488889 C9.96888889,17.8488889 10.0692063,17.8634921 10.0692063,17.9946032 L10.0692063,19.2346032 C10.0692063,19.3660317 9.96888889,19.3803175 9.88380952,19.3803175 L9.8615873,19.3803175 L9.8615873,19.4307937 C9.95333333,19.4298413 10.0873016,19.4212698 10.1996825,19.4212698 C10.3149206,19.4212698 10.451746,19.4304762 10.5634921,19.4307937 L10.5634921,19.4307937 Z" id="Fill-604" fill="#FFFFFF"></path>
            <path d="M12.0133333,18.9644444 L12.0177778,18.9593651 L12.0177778,18.071746 C12.0177778,17.8774603 11.8831746,17.8492063 11.811746,17.8492063 L11.7596825,17.8492063 L11.7596825,17.7777778 C11.8707937,17.7777778 11.98,17.7873016 12.0914286,17.7873016 C12.188254,17.7873016 12.2857143,17.7777778 12.3822222,17.7777778 L12.3822222,17.8492063 L12.3469841,17.8492063 C12.2473016,17.8492063 12.1361905,17.8679365 12.1361905,18.1498413 L12.1361905,19.2273016 C12.1361905,19.3104762 12.1387302,19.3926984 12.1504762,19.4663492 L12.0606349,19.4663492 L10.8409524,18.1073016 L10.8409524,19.0825397 C10.8409524,19.2892063 10.8812698,19.36 11.0634921,19.36 L11.1038095,19.36 L11.1038095,19.4311111 C11.0022222,19.4311111 10.9003175,19.4215873 10.7980952,19.4215873 C10.6920635,19.4215873 10.5828571,19.4311111 10.4761905,19.4311111 L10.4761905,19.36 L10.5098413,19.36 C10.6730159,19.36 10.7225397,19.2485714 10.7225397,19.0593651 L10.7225397,18.0619048 C10.7225397,17.9298413 10.6133333,17.8492063 10.5073016,17.8492063 L10.4761905,17.8492063 L10.4761905,17.7777778 C10.5663492,17.7777778 10.6587302,17.7873016 10.7479365,17.7873016 C10.8196825,17.7873016 10.8879365,17.7777778 10.9593651,17.7777778 L12.0133333,18.9644444" id="Fill-605" fill="#FFFFFF"></path>
            <path d="M12.1609524,19.4860317 L12.0634921,19.4825397 L10.8612698,18.1431746 L10.8612698,19.0920635 C10.8644444,19.2987302 10.8955556,19.3565079 11.0739683,19.3587302 L11.1247619,19.3587302 L11.1247619,19.4501587 L11.1142857,19.4501587 C11.0120635,19.4501587 10.9101587,19.4409524 10.8085714,19.4409524 C10.7031746,19.4409524 10.5939683,19.4501587 10.4866667,19.4501587 L10.4761905,19.4501587 L10.4761905,19.3587302 L10.5203175,19.3587302 C10.6765079,19.3577778 10.7212698,19.2574603 10.7238095,19.0688889 L10.7238095,18.0714286 C10.7231746,17.9460317 10.6187302,17.8688889 10.5177778,17.8688889 L10.4761905,17.8688889 L10.4761905,17.7777778 L10.4866667,17.7777778 C10.5774603,17.7777778 10.6698413,17.7863492 10.7584127,17.7863492 C10.8292063,17.7863492 10.8977778,17.7777778 10.9777778,17.7809524 L12.0190476,18.952381 L12.0190476,18.0815873 C12.0171429,17.8930159 11.8911111,17.8704762 11.8222222,17.8688889 L11.7596825,17.8688889 L11.7596825,17.7777778 L11.7701587,17.7777778 C11.8819048,17.7777778 11.9911111,17.7863492 12.1019048,17.7863492 C12.1987302,17.7863492 12.2955556,17.7777778 12.3926984,17.7777778 L12.4034921,17.7777778 L12.4034921,17.8688889 L12.3574603,17.8688889 C12.2593651,17.871746 12.1596825,17.88 12.1571429,18.1590476 L12.1571429,19.2368254 C12.1571429,19.3196825 12.1590476,19.4019048 12.1701587,19.4736508 L12.1726984,19.4860317 L12.1609524,19.4860317 L12.1609524,19.4860317 Z M12.0711111,19.4653968 L12.1498413,19.4653968 C12.1387302,19.3942857 12.1368254,19.3155556 12.1368254,19.2368254 L12.1368254,18.1590476 C12.1368254,17.8755556 12.255873,17.848254 12.3574603,17.848254 L12.3828571,17.848254 L12.3828571,17.7977778 C12.2898413,17.7984127 12.1961905,17.8073016 12.1019048,17.8073016 C11.9936508,17.8073016 11.887619,17.7984127 11.7809524,17.7977778 L11.7809524,17.848254 L11.8222222,17.848254 C11.8949206,17.848254 12.0387302,17.8806349 12.0387302,18.0815873 L12.0355556,18.9765079 L12.0307937,18.9809524 L12.0225397,18.9885714 L10.9698413,17.7977778 C10.8996825,17.7977778 10.8307937,17.8073016 10.7584127,17.8073016 C10.6720635,17.8073016 10.5828571,17.7984127 10.4974603,17.7977778 L10.4968254,17.848254 L10.5177778,17.848254 C10.6288889,17.848254 10.7434921,17.9330159 10.7434921,18.0714286 L10.7434921,19.0688889 C10.7434921,19.2580952 10.6907937,19.3793651 10.5203175,19.38 L10.4974603,19.3793651 L10.4974603,19.4301587 C10.5996825,19.4292063 10.7057143,19.4206349 10.8085714,19.4206349 C10.9079365,19.4206349 11.0063492,19.4292063 11.1038095,19.4301587 L11.1038095,19.38 L11.0739683,19.38 C10.8879365,19.3793651 10.8415873,19.2987302 10.8415873,19.0920635 L10.8415873,18.0898413 L12.0711111,19.4653968 L12.0711111,19.4653968 Z M12.0238095,18.9739683 L12.0314286,18.9669841 L12.0238095,18.9739683 L12.0238095,18.9739683 Z M12.0190476,18.9688889 L12.0190476,18.968254 L12.0165079,18.9663492 L12.0190476,18.9688889 L12.0190476,18.9688889 Z" id="Fill-606" fill="#FFFFFF"></path>
            <path d="M12.9895238,17.9695238 C12.811746,17.9695238 12.8044444,18.011746 12.7695238,18.1847619 L12.6984127,18.1847619 C12.707619,18.1184127 12.7193651,18.052381 12.7273016,17.9834921 C12.7361905,17.9168254 12.7409524,17.8507937 12.7409524,17.7825397 L12.7974603,17.7825397 C12.8168254,17.8536508 12.8755556,17.8507937 12.94,17.8507937 L14.1615873,17.8507937 C14.2260317,17.8507937 14.2850794,17.8488889 14.2892063,17.7777778 L14.3463492,17.7873016 C14.3371429,17.8507937 14.3269841,17.9152381 14.3203175,17.9787302 C14.315873,18.0428571 14.315873,18.1069841 14.315873,18.1704762 L14.2447619,18.1971429 C14.2396825,18.1095238 14.2279365,17.9695238 14.0692063,17.9695238 L13.6809524,17.9695238 L13.6809524,19.2295238 C13.6809524,19.411746 13.764127,19.4330159 13.8774603,19.4330159 L13.9222222,19.4330159 L13.9222222,19.504127 C13.8304762,19.504127 13.664127,19.4946032 13.5365079,19.4946032 C13.3946032,19.4946032 13.2288889,19.504127 13.1365079,19.504127 L13.1365079,19.4330159 L13.1812698,19.4330159 C13.3120635,19.4330159 13.3777778,19.4209524 13.3777778,19.2339683 L13.3777778,17.9695238 L12.9895238,17.9695238" id="Fill-607" fill="#FFFFFF"></path>
            <path d="M13.9355556,19.5257143 C13.8425397,19.5257143 13.6768254,19.5165079 13.5492063,19.5165079 C13.4073016,19.5165079 13.2422222,19.5257143 13.1492063,19.5257143 L13.1387302,19.5257143 L13.1387302,19.4342857 L13.1939683,19.4342857 C13.3247619,19.431746 13.3768254,19.4298413 13.38,19.2460317 L13.38,17.991746 L13.0022222,17.991746 L13.0022222,17.9707937 L13.4003175,17.9707937 L13.4003175,19.2460317 C13.4003175,19.4361905 13.324127,19.4552381 13.1939683,19.4555556 L13.1593651,19.4555556 L13.1593651,19.5053968 C13.2530159,19.5047619 13.411746,19.4961905 13.5492063,19.4961905 C13.6733333,19.4961905 13.8314286,19.5047619 13.9250794,19.5053968 L13.9250794,19.4555556 L13.8901587,19.4555556 C13.7755556,19.4552381 13.6838095,19.4273016 13.6838095,19.2415873 L13.6838095,17.9707937 L14.0825397,17.9707937 C14.2406349,17.9714286 14.2615873,18.1066667 14.2666667,18.1942857 L14.3180952,18.1755556 C14.3180952,18.1139683 14.3187302,18.0520635 14.3231746,17.9895238 C14.3298413,17.9288889 14.3380952,17.8685714 14.3473016,17.808254 L14.3114286,17.8022222 C14.3,17.8707937 14.2336508,17.8742857 14.1736508,17.8733333 L12.9403175,17.8733333 C12.8844444,17.8733333 12.8238095,17.8711111 12.8028571,17.8047619 L12.7638095,17.8047619 C12.7631746,17.8701587 12.7580952,17.9339683 12.7495238,17.9968254 C12.7425397,18.0619048 12.7320635,18.124127 12.7234921,18.1869841 L12.7736508,18.1869841 C12.8050794,18.0219048 12.8250794,17.9685714 13.0022222,17.9707937 L13.0022222,17.991746 C12.8269841,17.9949206 12.8304762,18.024127 12.7914286,18.1993651 L12.7904762,18.207619 L12.6984127,18.207619 L12.7003175,18.1952381 C12.7098413,18.1288889 12.7222222,18.0628571 12.7288889,17.9939683 C12.7387302,17.928254 12.7431746,17.8625397 12.7431746,17.7946032 L12.7431746,17.7844444 L12.8187302,17.7844444 L12.82,17.7914286 C12.8361905,17.8514286 12.8803175,17.851746 12.9403175,17.8526984 L14.1736508,17.8526984 C14.24,17.851746 14.287619,17.8507937 14.2920635,17.7888889 L14.2926984,17.7777778 L14.3038095,17.78 L14.3707937,17.7904762 L14.3688889,17.8009524 C14.3596825,17.8644444 14.3504762,17.928254 14.3428571,17.991746 C14.3384127,18.0549206 14.3384127,18.1187302 14.3384127,18.1825397 L14.3384127,18.1898413 L14.331746,18.1926984 L14.2479365,18.2228571 L14.2473016,18.2092063 C14.2406349,18.1206349 14.2320635,17.991746 14.0825397,17.991746 L13.704127,17.991746 L13.704127,19.2415873 C13.7060317,19.42 13.7768254,19.4320635 13.8901587,19.4342857 L13.9453968,19.4342857 L13.9453968,19.5257143 L13.9355556,19.5257143" id="Fill-608" fill="#FFFFFF"></path>
            <path d="M14.2857143,19.36 L14.32,19.36 C14.4047619,19.36 14.4946032,19.3479365 14.4946032,19.2244444 L14.4946032,17.9844444 C14.4946032,17.8609524 14.4047619,17.8492063 14.32,17.8492063 L14.2857143,17.8492063 L14.2857143,17.7777778 C14.4301587,17.7777778 14.6771429,17.7873016 14.8755556,17.7873016 C15.0746032,17.7873016 15.3206349,17.7777778 15.4819048,17.7777778 C15.4774603,17.8793651 15.48,18.0365079 15.4866667,18.1403175 L15.4155556,18.1593651 C15.4038095,18.0053968 15.375873,17.8828571 15.1266667,17.8828571 L14.7980952,17.8828571 L14.7980952,18.5028571 L15.0793651,18.5028571 C15.2215873,18.5028571 15.252381,18.4225397 15.2666667,18.2939683 L15.3374603,18.2939683 C15.3330159,18.3866667 15.3304762,18.4790476 15.3304762,18.5714286 C15.3304762,18.6615873 15.3330159,18.7514286 15.3374603,18.8415873 L15.2666667,18.8552381 C15.252381,18.7136508 15.2457143,18.6212698 15.0812698,18.6212698 L14.7980952,18.6212698 L14.7980952,19.172381 C14.7980952,19.3263492 14.9349206,19.3263492 15.0863492,19.3263492 C15.3707937,19.3263492 15.4961905,19.307619 15.5666667,19.0380952 L15.6336508,19.0539683 C15.6022222,19.18 15.5742857,19.3053968 15.5530159,19.4311111 C15.4012698,19.4311111 15.1292063,19.4215873 14.9165079,19.4215873 C14.7025397,19.4215873 14.4215873,19.4311111 14.2857143,19.4311111 L14.2857143,19.36" id="Fill-609" fill="#FFFFFF"></path>
            <path d="M15.5622222,19.4501587 C15.4104762,19.4501587 15.1377778,19.4409524 14.9257143,19.4409524 C14.711746,19.4409524 14.4307937,19.4501587 14.2949206,19.4501587 L14.2857143,19.4501587 L14.2857143,19.3587302 L14.3292063,19.3587302 C14.4146032,19.3574603 14.4926984,19.3501587 14.4933333,19.2339683 L14.4933333,17.9939683 C14.4926984,17.8784127 14.4146032,17.8707937 14.3292063,17.8688889 L14.2857143,17.8688889 L14.2857143,17.7777778 L14.2949206,17.7777778 C14.44,17.7777778 14.6863492,17.7863492 14.8847619,17.7863492 C15.0838095,17.7863492 15.3298413,17.7777778 15.4911111,17.7777778 L15.5015873,17.7777778 L15.5015873,17.7879365 C15.4990476,17.8238095 15.4984127,17.8660317 15.4984127,17.9101587 C15.4984127,17.992381 15.5015873,18.0815873 15.5060317,18.1488889 L15.5060317,18.1577778 L15.4984127,18.16 L15.4155556,18.1815873 L15.4142857,18.1695238 C15.4006349,18.0161905 15.38,17.9044444 15.135873,17.9022222 L14.8165079,17.9022222 L14.8165079,18.5015873 L15.0885714,18.5015873 C15.2250794,18.5003175 15.2492063,18.4304762 15.2653968,18.3028571 L15.2666667,18.2933333 L15.3571429,18.2933333 L15.3565079,18.304127 C15.3526984,18.3961905 15.3498413,18.4885714 15.3498413,18.5809524 C15.3498413,18.6704762 15.3526984,18.7603175 15.3565079,18.8501587 L15.3571429,18.8590476 L15.3485714,18.8606349 L15.2666667,18.8774603 L15.2653968,18.8660317 C15.2492063,18.7209524 15.2479365,18.6425397 15.0904762,18.6406349 L14.8165079,18.6406349 L14.8165079,19.1819048 C14.8171429,19.3260317 14.9415873,19.3250794 15.0961905,19.3260317 C15.3806349,19.3238095 15.4955556,19.3104762 15.5666667,19.044127 L15.5692063,19.0349206 L15.5784127,19.0368254 L15.6546032,19.0561905 L15.652381,19.0663492 C15.6219048,19.1911111 15.5933333,19.3168254 15.572381,19.4425397 L15.5704762,19.4501587 L15.5622222,19.4501587 L15.5622222,19.4501587 Z M15.5530159,19.4298413 C15.5742857,19.3104762 15.6012698,19.1904762 15.6298413,19.0714286 L15.5834921,19.0596825 C15.5120635,19.3247619 15.3752381,19.348254 15.0961905,19.3463492 C14.9466667,19.3463492 14.7971429,19.3463492 14.7965079,19.1819048 L14.7965079,18.6206349 L15.0904762,18.6206349 C15.2561905,18.6187302 15.2726984,18.7184127 15.2844444,18.8530159 L15.3361905,18.8422222 C15.3311111,18.7552381 15.3292063,18.6679365 15.3292063,18.5809524 C15.3292063,18.491746 15.3311111,18.4031746 15.3361905,18.3139683 L15.2844444,18.3139683 C15.2714286,18.4374603 15.2330159,18.5238095 15.0885714,18.5222222 L14.7965079,18.5222222 L14.7965079,17.8812698 L15.135873,17.8812698 C15.3825397,17.8796825 15.4228571,18.0066667 15.4339683,18.1555556 L15.4847619,18.1419048 C15.4812698,18.0752381 15.4780952,17.9895238 15.4780952,17.9101587 C15.4780952,17.8698413 15.4787302,17.8314286 15.48,17.7977778 C15.3193651,17.7984127 15.08,17.8073016 14.8847619,17.8073016 C14.6898413,17.8073016 14.4504762,17.7984127 14.3053968,17.7977778 L14.3053968,17.848254 L14.3292063,17.848254 C14.4126984,17.848254 14.5139683,17.8628571 14.5146032,17.9939683 L14.5146032,19.2339683 C14.5139683,19.3653968 14.4126984,19.3793651 14.3292063,19.38 L14.3053968,19.38 L14.3053968,19.4298413 C14.4438095,19.4298413 14.7165079,19.4206349 14.9257143,19.4206349 C15.1346032,19.4206349 15.4006349,19.4298413 15.5530159,19.4298413 L15.5530159,19.4298413 Z" id="Fill-610" fill="#FFFFFF"></path>
            <path d="M16.0838095,18.0288889 C16.0838095,17.8565079 15.9888889,17.8492063 15.9152381,17.8492063 L15.8730159,17.8492063 L15.8730159,17.7777778 C15.9485714,17.7777778 16.0949206,17.7873016 16.24,17.7873016 C16.3822222,17.7873016 16.4955556,17.7777778 16.6209524,17.7777778 C16.9190476,17.7777778 17.1850794,17.8580952 17.1850794,18.1949206 C17.1850794,18.407619 17.0425397,18.5380952 16.855873,18.611746 L17.2606349,19.2177778 C17.3269841,19.3177778 17.3742857,19.3457143 17.4907937,19.36 L17.4907937,19.4311111 C17.4120635,19.4311111 17.3365079,19.4215873 17.2580952,19.4215873 C17.1850794,19.4215873 17.1088889,19.4311111 17.0355556,19.4311111 C16.8533333,19.1920635 16.6965079,18.9361905 16.5431746,18.6634921 L16.3863492,18.6634921 L16.3863492,19.1704762 C16.3863492,19.3530159 16.4720635,19.36 16.5806349,19.36 L16.6231746,19.36 L16.6231746,19.4311111 C16.4888889,19.4311111 16.351746,19.4215873 16.2165079,19.4215873 C16.1025397,19.4215873 15.9914286,19.4311111 15.8730159,19.4311111 L15.8730159,19.36 L15.9152381,19.36 C16.0038095,19.36 16.0838095,19.3193651 16.0838095,19.2320635 L16.0838095,18.0288889 L16.0838095,18.0288889 Z M16.3863492,18.5777778 L16.5031746,18.5777778 C16.74,18.5777778 16.8669841,18.4885714 16.8669841,18.2088889 C16.8669841,17.9984127 16.7330159,17.8634921 16.5215873,17.8634921 C16.4504762,17.8634921 16.42,17.8704762 16.3863492,17.8726984 L16.3863492,18.5777778 L16.3863492,18.5777778 Z" id="Fill-611" fill="#FFFFFF"></path>
            <path d="M17.5012698,19.4507937 C17.4212698,19.4507937 17.3457143,19.4415873 17.2679365,19.4415873 C17.1961905,19.4415873 17.1206349,19.4507937 17.0380952,19.4473016 C16.8565079,19.2092063 16.7006349,18.9546032 16.547619,18.684127 L16.407619,18.684127 L16.407619,19.1803175 C16.4098413,19.3584127 16.4812698,19.3571429 16.5911111,19.3593651 L16.6444444,19.3593651 L16.6444444,19.4507937 L16.6336508,19.4507937 C16.4987302,19.4507937 16.3609524,19.4415873 16.2263492,19.4415873 C16.1136508,19.4415873 16.0019048,19.4507937 15.8834921,19.4507937 L15.8730159,19.4507937 L15.8730159,19.3593651 L15.9257143,19.3593651 C16.0111111,19.3587302 16.0831746,19.3222222 16.0838095,19.2422222 L16.0838095,18.0390476 C16.0819048,17.8714286 16,17.8720635 15.9257143,17.8695238 L15.8730159,17.8695238 L15.8730159,17.7777778 L15.8834921,17.7777778 C15.9603175,17.7777778 16.1060317,17.7869841 16.2504762,17.7869841 C16.3920635,17.7869841 16.5053968,17.7777778 16.6314286,17.7777778 C16.9301587,17.7787302 17.2047619,17.8609524 17.2053968,18.2050794 C17.2053968,18.4184127 17.064127,18.5520635 16.8819048,18.6266667 L17.2793651,19.2222222 C17.3457143,19.3206349 17.3869841,19.3450794 17.5025397,19.3593651 L17.5111111,19.3609524 L17.5111111,19.4507937 L17.5012698,19.4507937 L17.5012698,19.4507937 Z M16.3968254,18.6631746 L16.5593651,18.6631746 L16.5619048,18.6685714 C16.7161905,18.9406349 16.871746,19.1965079 17.0460317,19.4307937 C17.1180952,19.4307937 17.1949206,19.4212698 17.2679365,19.4212698 C17.3438095,19.4212698 17.4168254,19.4292063 17.4907937,19.4304762 L17.4907937,19.3787302 C17.3790476,19.3650794 17.3269841,19.331746 17.2625397,19.2333333 L16.8507937,18.6171429 L16.8619048,18.6120635 C17.0473016,18.5390476 17.1850794,18.4126984 17.1850794,18.2050794 C17.1850794,17.8765079 16.9288889,17.8 16.6314286,17.7984127 C16.5066667,17.7984127 16.3926984,17.8079365 16.2504762,17.8079365 C16.1111111,17.8079365 15.9711111,17.7990476 15.8933333,17.7984127 L15.8933333,17.8488889 L15.9257143,17.8488889 C16,17.8488889 16.104127,17.8609524 16.104127,18.0390476 L16.104127,19.2422222 C16.104127,19.3371429 16.0155556,19.3803175 15.9257143,19.3806349 L15.8933333,19.3806349 L15.8933333,19.4304762 C16.007619,19.4304762 16.1155556,19.4212698 16.2263492,19.4212698 C16.3584127,19.4212698 16.492381,19.4304762 16.6231746,19.4304762 L16.6231746,19.3806349 L16.5911111,19.3806349 C16.4831746,19.3803175 16.3869841,19.3673016 16.3869841,19.1803175 L16.3869841,18.6631746 L16.3968254,18.6631746 L16.3968254,18.6631746 Z M16.3968254,18.5984127 L16.3869841,18.5984127 L16.3869841,17.8736508 L16.3961905,17.8726984 C16.4285714,17.8698413 16.4603175,17.8634921 16.5320635,17.8634921 C16.7479365,17.8634921 16.8879365,18.0038095 16.8885714,18.2193651 C16.8879365,18.5022222 16.751746,18.5984127 16.5136508,18.5984127 L16.3968254,18.5984127 L16.3968254,18.5984127 Z M16.5136508,18.5780952 C16.7479365,18.575873 16.8657143,18.4946032 16.868254,18.2193651 C16.8663492,18.0126984 16.7380952,17.8844444 16.5320635,17.8834921 C16.468254,17.8834921 16.4377778,17.8892063 16.407619,17.8920635 L16.407619,18.5780952 L16.5136508,18.5780952 L16.5136508,18.5780952 Z" id="Fill-612" fill="#FFFFFF"></path>
            <path d="M18.9965079,18.9644444 L19.0009524,18.9593651 L19.0009524,18.071746 C19.0009524,17.8774603 18.8657143,17.8492063 18.7952381,17.8492063 L18.7431746,17.8492063 L18.7431746,17.7777778 C18.8539683,17.7777778 18.9631746,17.7873016 19.0746032,17.7873016 C19.1720635,17.7873016 19.268254,17.7777778 19.3660317,17.7777778 L19.3660317,17.8492063 L19.3307937,17.8492063 C19.2311111,17.8492063 19.12,17.8679365 19.12,18.1498413 L19.12,19.2273016 C19.12,19.3104762 19.1225397,19.3926984 19.1336508,19.4663492 L19.0438095,19.4663492 L17.8247619,18.1073016 L17.8247619,19.0825397 C17.8247619,19.2892063 17.8644444,19.36 18.0473016,19.36 L18.087619,19.36 L18.087619,19.4311111 C17.9860317,19.4311111 17.8834921,19.4215873 17.7819048,19.4215873 C17.6752381,19.4215873 17.5660317,19.4311111 17.4603175,19.4311111 L17.4603175,19.36 L17.492381,19.36 C17.6568254,19.36 17.7063492,19.2485714 17.7063492,19.0593651 L17.7063492,18.0619048 C17.7063492,17.9298413 17.5971429,17.8492063 17.4904762,17.8492063 L17.4603175,17.8492063 L17.4603175,17.7777778 C17.5495238,17.7777778 17.6419048,17.7873016 17.731746,17.7873016 C17.8025397,17.7873016 17.8711111,17.7777778 17.9425397,17.7777778 L18.9965079,18.9644444" id="Fill-613" fill="#FFFFFF"></path>
            <path d="M19.1450794,19.4866667 L19.047619,19.4831746 L17.8460317,18.1438095 L17.8460317,19.0926984 C17.8492063,19.2993651 17.8796825,19.3571429 18.0587302,19.3593651 L18.1088889,19.3593651 L18.1088889,19.4507937 L18.0984127,19.4507937 C17.9961905,19.4507937 17.8946032,19.4415873 17.7926984,19.4415873 C17.6873016,19.4415873 17.5774603,19.4507937 17.471746,19.4507937 L17.4603175,19.4507937 L17.4603175,19.3593651 L17.5038095,19.3593651 C17.66,19.3587302 17.7053968,19.2580952 17.7073016,19.0688889 L17.7073016,18.0720635 C17.7066667,17.9463492 17.6031746,17.8695238 17.5019048,17.8695238 L17.4603175,17.8695238 L17.4603175,17.7777778 L17.471746,17.7777778 C17.5615873,17.7777778 17.6539683,17.7869841 17.7431746,17.7869841 C17.8133333,17.7869841 17.8815873,17.7777778 17.9612698,17.7809524 L19.0019048,18.9530159 L19.0019048,18.0819048 C19.0019048,17.8936508 18.8752381,17.8704762 18.8066667,17.8695238 L18.7438095,17.8695238 L18.7438095,17.7777778 L18.7546032,17.7777778 C18.8660317,17.7777778 18.9752381,17.7869841 19.0860317,17.7869841 C19.1828571,17.7869841 19.2796825,17.7777778 19.3768254,17.7777778 L19.388254,17.7777778 L19.388254,17.8695238 L19.3422222,17.8695238 C19.244127,17.8720635 19.1438095,17.8806349 19.1412698,18.1596825 L19.1412698,19.2374603 C19.1412698,19.3203175 19.1431746,19.4022222 19.1549206,19.4749206 L19.1561905,19.4866667 L19.1450794,19.4866667 L19.1450794,19.4866667 Z M19.0552381,19.4660317 L19.1333333,19.4660317 C19.1228571,19.3952381 19.1203175,19.3161905 19.1203175,19.2374603 L19.1203175,18.1596825 C19.1209524,17.8761905 19.2406349,17.8495238 19.3422222,17.8488889 L19.3669841,17.8488889 L19.3669841,17.7984127 C19.2739683,17.7990476 19.1803175,17.8079365 19.0860317,17.8079365 C18.9771429,17.8079365 18.871746,17.7990476 18.7650794,17.7984127 L18.7650794,17.8488889 L18.8066667,17.8488889 C18.8796825,17.8495238 19.0228571,17.8812698 19.0228571,18.0819048 L19.0193651,18.9771429 L19.0155556,18.9815873 L19.0079365,18.9892063 L17.9539683,17.7984127 C17.8838095,17.7984127 17.8152381,17.8079365 17.7431746,17.8079365 C17.655873,17.8079365 17.5669841,17.7990476 17.4809524,17.7984127 L17.4809524,17.8488889 L17.5019048,17.8488889 C17.6136508,17.8495238 17.727619,17.9336508 17.727619,18.0720635 L17.727619,19.0688889 C17.727619,19.2590476 17.6742857,19.38 17.5038095,19.3806349 L17.4809524,19.3803175 L17.4809524,19.4304762 C17.5838095,19.4298413 17.6885714,19.4212698 17.7926984,19.4212698 C17.8920635,19.4212698 17.9904762,19.4298413 18.0892063,19.4304762 L18.0892063,19.3806349 L18.0587302,19.3806349 C17.8720635,19.3803175 17.8257143,19.2993651 17.8250794,19.0926984 L17.8250794,18.0907937 L19.0552381,19.4660317 L19.0552381,19.4660317 Z M19.0079365,18.9746032 L19.0155556,18.967619 L19.0079365,18.9746032 L19.0079365,18.9746032 Z M19.0019048,18.9695238 L19.0019048,18.9692063 L19,18.9673016 L19.0019048,18.9695238 L19.0019048,18.9695238 Z" id="Fill-614" fill="#FFFFFF"></path>
            <path d="M19.755873,19.1511111 C19.7320635,19.2314286 19.7031746,19.2933333 19.7031746,19.335873 C19.7031746,19.4069841 19.8028571,19.4190476 19.8809524,19.4190476 L19.907619,19.4190476 L19.907619,19.4901587 C19.8120635,19.4847619 19.7155556,19.4806349 19.62,19.4806349 C19.5349206,19.4806349 19.4507937,19.4847619 19.3650794,19.4901587 L19.3650794,19.4190476 L19.3793651,19.4190476 C19.4711111,19.4190476 19.5498413,19.3644444 19.5847619,19.2647619 L19.964127,18.1780952 C19.9952381,18.0904762 20.0377778,17.9720635 20.0520635,17.884127 C20.1279365,17.8580952 20.2219048,17.8111111 20.2673016,17.7828571 C20.2746032,17.7806349 20.2790476,17.7777778 20.2860317,17.7777778 C20.2926984,17.7777778 20.2977778,17.7777778 20.3025397,17.7853968 C20.3095238,17.8038095 20.3161905,17.8253968 20.3244444,17.844127 L20.7596825,19.0825397 C20.788254,19.1657143 20.8165079,19.2526984 20.8469841,19.3244444 C20.8755556,19.3907937 20.9250794,19.4190476 21.0038095,19.4190476 L21.0174603,19.4190476 L21.0174603,19.4901587 C20.9114286,19.4847619 20.8047619,19.4806349 20.6907937,19.4806349 C20.5755556,19.4806349 20.4565079,19.4847619 20.3355556,19.4901587 L20.3355556,19.4190476 L20.3622222,19.4190476 C20.4161905,19.4190476 20.5092063,19.4095238 20.5092063,19.3504762 C20.5092063,19.3193651 20.4879365,19.2555556 20.4606349,19.1793651 L20.368254,18.9047619 L19.8314286,18.9047619 L19.755873,19.1511111 L19.755873,19.1511111 Z M20.1015873,18.1022222 L20.0968254,18.1022222 L19.8765079,18.7726984 L20.3187302,18.7726984 L20.1015873,18.1022222 L20.1015873,18.1022222 Z" id="Fill-615" fill="#FFFFFF"></path>
            <path d="M21.0273016,19.5101942 C20.9212698,19.5063847 20.8146032,19.5009879 20.7012698,19.5009879 C20.5860317,19.5009879 20.467619,19.5063847 20.3466667,19.5101942 L20.3361905,19.5111466 L20.3361905,19.4181308 L20.3720635,19.4181308 C20.4273016,19.4181308 20.5079365,19.4060673 20.5085714,19.3609879 C20.5088889,19.3340038 20.4879365,19.2689244 20.4612698,19.1936863 L20.3714286,18.9254323 L19.8492063,18.9254323 L19.7761905,19.1647974 C19.7520635,19.2457498 19.7234921,19.3082895 19.7234921,19.3467022 C19.724127,19.4047974 19.8126984,19.4181308 19.8914286,19.4181308 L19.9279365,19.4181308 L19.9279365,19.5111466 L19.9168254,19.5101942 C19.8225397,19.5063847 19.7253968,19.5009879 19.6311111,19.5009879 C19.5460317,19.5009879 19.4612698,19.5063847 19.3761905,19.5101942 L19.3650794,19.5111466 L19.3650794,19.4181308 L19.3898413,19.4181308 C19.4777778,19.4181308 19.5511111,19.3682895 19.5850794,19.272099 L19.9647619,18.1851149 C19.9955556,18.0974958 20.0377778,17.9794006 20.0590476,17.8851149 C20.1326984,17.8597181 20.227619,17.812099 20.2733333,17.7835276 C20.2803175,17.7809879 20.2869841,17.7778133 20.2965079,17.7778133 C20.3019048,17.7774958 20.3149206,17.7790831 20.3225397,17.7917816 C20.3292063,17.8111466 20.3368254,17.8324165 20.344127,17.8514641 L20.78,19.0901942 C20.8079365,19.1727339 20.835873,19.2606704 20.8673016,19.3301942 C20.8939683,19.3933689 20.9380952,19.4181308 21.0142857,19.4181308 L21.0384127,19.4181308 L21.0384127,19.5111466 L21.0273016,19.5101942 L21.0273016,19.5101942 Z M20.3565079,19.4892419 C20.4730159,19.4854323 20.5888889,19.4806704 20.7012698,19.4806704 C20.811746,19.4806704 20.9146032,19.4854323 21.0180952,19.4892419 L21.0180952,19.4397181 L21.0142857,19.4397181 C20.9330159,19.440353 20.8774603,19.4086069 20.848254,19.3387657 C20.8171429,19.2670196 20.7879365,19.1794006 20.76,19.096226 L20.324127,17.8578133 C20.3174603,17.8394006 20.3104762,17.8178133 20.3044444,17.8009879 C20.3019048,17.7987657 20.3031746,17.7987657 20.3006349,17.7987657 L20.2965079,17.7987657 C20.2914286,17.7987657 20.2888889,17.8000355 20.2828571,17.8016228 C20.2368254,17.8314641 20.1419048,17.8781308 20.0720635,17.8965435 C20.0577778,17.9860673 20.0142857,18.1041625 19.9838095,18.192099 L19.6050794,19.2790831 C19.5685714,19.3819403 19.4860317,19.4400355 19.3898413,19.4397181 L19.3853968,19.4397181 L19.3853968,19.4892419 C19.4673016,19.4854323 19.5492063,19.4806704 19.6311111,19.4806704 C19.7228571,19.4806704 19.8165079,19.4854323 19.9063492,19.4892419 L19.9063492,19.4397181 L19.8914286,19.4397181 C19.8139683,19.4387657 19.7066667,19.4301942 19.7034921,19.3467022 C19.704127,19.2994006 19.7326984,19.2390831 19.7555556,19.1587657 L19.7663492,19.1616228 L19.7555556,19.1584482 L19.8339683,18.9054323 L20.3863492,18.9054323 L20.4812698,19.1867022 C20.5073016,19.2628927 20.5295238,19.3257498 20.5295238,19.3609879 C20.5257143,19.4336863 20.4260317,19.4384482 20.3720635,19.4397181 L20.3565079,19.4397181 L20.3565079,19.4892419 L20.3565079,19.4892419 Z M19.872381,18.7930514 L20.0990476,18.1025752 L20.1120635,18.1025752 L20.1120635,18.1127339 L20.1098413,18.1133689 L20.1120635,18.1127339 L20.1120635,18.1025752 L20.1190476,18.1025752 L20.344127,18.7930514 L19.872381,18.7930514 L19.872381,18.7930514 Z M19.9006349,18.7724165 L20.3155556,18.7724165 L20.1098413,18.1381308 L19.9006349,18.7724165 L19.9006349,18.7724165 Z M20.1015873,18.1159085 L20.1073016,18.1140038 L20.1015873,18.1159085 L20.1015873,18.1159085 Z" id="Fill-616" fill="#FFFFFF"></path>
            <path d="M21.2438095,17.9695238 C21.0666667,17.9695238 21.0590476,18.011746 21.0238095,18.1847619 L20.952381,18.1847619 C20.9619048,18.1184127 20.9742857,18.052381 20.9815873,17.9834921 C20.9907937,17.9168254 20.9946032,17.8507937 20.9946032,17.7825397 L21.052381,17.7825397 C21.0714286,17.8536508 21.1311111,17.8507937 21.1942857,17.8507937 L22.4165079,17.8507937 C22.4803175,17.8507937 22.5390476,17.8488889 22.5434921,17.7777778 L22.6006349,17.7873016 C22.5914286,17.8507937 22.5819048,17.9152381 22.5752381,17.9787302 C22.5701587,18.0428571 22.5701587,18.1069841 22.5701587,18.1704762 L22.4987302,18.1971429 C22.4946032,18.1095238 22.4828571,17.9695238 22.324127,17.9695238 L21.9352381,17.9695238 L21.9352381,19.2295238 C21.9352381,19.411746 22.0184127,19.4330159 22.131746,19.4330159 L22.1771429,19.4330159 L22.1771429,19.504127 C22.0847619,19.504127 21.9190476,19.4946032 21.7907937,19.4946032 C21.6488889,19.4946032 21.4831746,19.504127 21.3907937,19.504127 L21.3907937,19.4330159 L21.4355556,19.4330159 C21.5663492,19.4330159 21.6320635,19.4209524 21.6320635,19.2339683 L21.6320635,17.9695238 L21.2438095,17.9695238" id="Fill-617" fill="#FFFFFF"></path>
            <path d="M22.1888889,19.5257143 C22.095873,19.5257143 21.9295238,19.5165079 21.8025397,19.5165079 C21.6612698,19.5165079 21.4955556,19.5257143 21.4025397,19.5257143 L21.3920635,19.5257143 L21.3920635,19.4342857 L21.4473016,19.4342857 C21.5780952,19.431746 21.6301587,19.4298413 21.6339683,19.2460317 L21.6333333,17.991746 L21.2555556,17.991746 L21.2555556,17.9707937 L21.6542857,17.9707937 L21.6542857,19.2460317 C21.6542857,19.4361905 21.5774603,19.4549206 21.4473016,19.4552381 L21.4126984,19.4552381 L21.4126984,19.5057143 C21.5060317,19.5047619 21.6653968,19.4961905 21.8025397,19.4961905 C21.9266667,19.4961905 22.0847619,19.5047619 22.1784127,19.5057143 L22.1784127,19.4552381 L22.1434921,19.4552381 C22.0295238,19.4549206 21.9377778,19.427619 21.9371429,19.2415873 L21.9371429,17.9707937 L22.335873,17.9707937 C22.4946032,17.9714286 22.5149206,18.1066667 22.52,18.1942857 L22.5714286,18.1755556 C22.5714286,18.1139683 22.5720635,18.0520635 22.5765079,17.9898413 C22.5831746,17.9288889 22.591746,17.8685714 22.6,17.808254 L22.5644444,17.8022222 C22.5533333,17.8707937 22.4869841,17.8742857 22.428254,17.8733333 L21.1936508,17.8733333 C21.1384127,17.8739683 21.0777778,17.8711111 21.055873,17.8044444 L21.0168254,17.8044444 C21.0168254,17.8701587 21.0126984,17.9339683 21.0031746,17.9968254 C20.9965079,18.0622222 20.9853968,18.1247619 20.9761905,18.1869841 L21.0269841,18.1869841 C21.0577778,18.0219048 21.0790476,17.9685714 21.2555556,17.9707937 L21.2555556,17.991746 C21.0803175,17.9949206 21.0844444,18.024127 21.0453968,18.1993651 L21.044127,18.207619 L20.952381,18.207619 L20.9542857,18.195873 C20.9634921,18.1288889 20.9755556,18.0628571 20.9822222,17.9942857 C20.9920635,17.928254 20.9965079,17.8625397 20.9965079,17.7946032 L20.9965079,17.7844444 L21.0714286,17.7844444 L21.0733333,17.7914286 C21.0907937,17.8514286 21.1336508,17.851746 21.1936508,17.8526984 C21.1980952,17.8526984 21.2015873,17.8533333 21.2060317,17.8533333 L22.428254,17.8533333 C22.4933333,17.851746 22.5415873,17.8507937 22.5453968,17.7892063 L22.5460317,17.7777778 L22.5565079,17.78 L22.6247619,17.7904762 L22.6222222,17.8009524 C22.612381,17.8644444 22.6034921,17.928254 22.5961905,17.991746 C22.591746,18.0549206 22.591746,18.1190476 22.591746,18.1825397 L22.591746,18.1898413 L22.5850794,18.1926984 L22.5006349,18.2228571 L22.5006349,18.2092063 C22.4946032,18.1206349 22.4857143,17.991746 22.335873,17.991746 L21.9574603,17.991746 L21.9574603,19.2415873 C21.96,19.42 22.0307937,19.4320635 22.1434921,19.4342857 L22.1987302,19.4342857 L22.1987302,19.5257143 L22.1888889,19.5257143" id="Fill-618" fill="#FFFFFF"></path>
            <path d="M22.5396825,19.36 L22.5733333,19.36 C22.6580952,19.36 22.7479365,19.3479365 22.7479365,19.2244444 L22.7479365,17.9844444 C22.7479365,17.8609524 22.6580952,17.8492063 22.5733333,17.8492063 L22.5396825,17.8492063 L22.5396825,17.7777778 C22.6320635,17.7777778 22.7739683,17.7873016 22.8901587,17.7873016 C23.0085714,17.7873016 23.1504762,17.7777778 23.2622222,17.7777778 L23.2622222,17.8492063 L23.2292063,17.8492063 C23.1431746,17.8492063 23.0530159,17.8609524 23.0530159,17.9844444 L23.0530159,19.2244444 C23.0530159,19.3479365 23.1431746,19.36 23.2292063,19.36 L23.2622222,19.36 L23.2622222,19.4311111 C23.1479365,19.4311111 23.0066667,19.4215873 22.888254,19.4215873 C22.771746,19.4215873 22.6320635,19.4311111 22.5396825,19.4311111 L22.5396825,19.36" id="Fill-619" fill="#FFFFFF"></path>
            <path d="M23.2726984,19.4501587 C23.1577778,19.4501587 23.015873,19.4409524 22.8987302,19.4409524 C22.7828571,19.4409524 22.6431746,19.4501587 22.5501587,19.4501587 L22.5396825,19.4501587 L22.5396825,19.3587302 L22.5838095,19.3587302 C22.6685714,19.3574603 22.7473016,19.3501587 22.7479365,19.2339683 L22.7479365,17.9939683 C22.7473016,17.8784127 22.6685714,17.8704762 22.5838095,17.8688889 L22.5396825,17.8688889 L22.5396825,17.7777778 L22.5501587,17.7777778 C22.6431746,17.7777778 22.7850794,17.7863492 22.9006349,17.7863492 C23.0184127,17.7863492 23.1603175,17.7777778 23.2726984,17.7777778 L23.2825397,17.7777778 L23.2825397,17.8688889 L23.2396825,17.8688889 C23.152381,17.8704762 23.0749206,17.8784127 23.0742857,17.9939683 L23.0742857,19.2339683 C23.0749206,19.3501587 23.152381,19.3574603 23.2396825,19.3587302 L23.2825397,19.3587302 L23.2825397,19.4501587 L23.2726984,19.4501587 L23.2726984,19.4501587 Z M23.2619048,19.4298413 L23.2619048,19.3796825 L23.2396825,19.3796825 C23.1542857,19.3796825 23.0536508,19.3653968 23.0536508,19.2339683 L23.0536508,17.9939683 C23.0536508,17.8628571 23.1542857,17.848254 23.2396825,17.848254 L23.2619048,17.848254 L23.2619048,17.7977778 C23.152381,17.7984127 23.0152381,17.8073016 22.9006349,17.8073016 C22.788254,17.8073016 22.652381,17.7984127 22.56,17.7977778 L22.56,17.848254 L22.5838095,17.848254 C22.6673016,17.848254 22.7692063,17.8628571 22.7692063,17.9939683 L22.7692063,19.2339683 C22.7692063,19.3653968 22.6673016,19.3796825 22.5838095,19.3796825 L22.56,19.3796825 L22.56,19.4298413 C22.6520635,19.4285714 22.7850794,19.4206349 22.8987302,19.4206349 C23.0126984,19.4206349 23.1498413,19.4292063 23.2619048,19.4298413 L23.2619048,19.4298413 Z" id="Fill-620" fill="#FFFFFF"></path>
            <path d="M24.3657143,17.7777778 C24.8704762,17.7777778 25.272381,18.0907937 25.272381,18.5949206 C25.272381,19.14 24.8822222,19.5015873 24.3780952,19.5015873 C23.875873,19.5015873 23.4920635,19.1609524 23.4920635,18.651746 C23.4920635,18.1593651 23.8733333,17.7777778 24.3657143,17.7777778 M24.4015873,19.3974603 C24.8612698,19.3974603 24.9412698,18.992381 24.9412698,18.6469841 C24.9412698,18.3009524 24.7546032,17.8822222 24.3615873,17.8822222 C23.9473016,17.8822222 23.8238095,18.2514286 23.8238095,18.568254 C23.8238095,18.992381 24.0177778,19.3974603 24.4015873,19.3974603" id="Fill-621" fill="#FFFFFF"></path>
            <path d="M23.4920635,18.6622222 C23.4926984,18.1638095 23.8784127,17.7790476 24.3761905,17.7777778 L24.3761905,17.7987302 C23.8895238,17.7987302 23.512381,18.1746032 23.512381,18.6622222 C23.5130159,19.1657143 23.8907937,19.5012698 24.3879365,19.5015873 C24.8879365,19.5012698 25.2726984,19.144127 25.2733333,18.6047619 C25.2733333,18.1069841 24.8771429,17.7990476 24.3761905,17.7987302 L24.3761905,17.7777778 C24.8847619,17.7787302 25.2920635,18.0946032 25.2933333,18.6047619 C25.2926984,19.1555556 24.8971429,19.5212698 24.3879365,19.5222222 C23.8815873,19.5212698 23.4926984,19.1768254 23.4920635,18.6622222 M23.8238095,18.5787302 C23.8244444,18.26 23.9485714,17.8822222 24.3720635,17.8822222 C24.7736508,17.8831746 24.9609524,18.3095238 24.9622222,18.6574603 C24.9609524,19.0028571 24.8803175,19.4174603 24.4120635,19.4174603 L24.4120635,19.3977778 C24.8622222,19.3971429 24.9406349,19.0028571 24.9415873,18.6574603 C24.9415873,18.3142857 24.7561905,17.9031746 24.3720635,17.9025397 C23.9650794,17.9031746 23.8453968,18.2634921 23.844127,18.5787302 C23.8447619,19.0006349 24.0371429,19.3968254 24.4120635,19.3977778 L24.4120635,19.4174603 C24.0190476,19.4171429 23.8244444,19.0050794 23.8238095,18.5787302" id="Fill-622" fill="#FFFFFF"></path>
            <path d="M26.6171429,18.9644444 L26.6222222,18.9593651 L26.6222222,18.071746 C26.6222222,17.8774603 26.4863492,17.8492063 26.4149206,17.8492063 L26.364127,17.8492063 L26.364127,17.7777778 C26.4746032,17.7777778 26.5834921,17.7873016 26.6946032,17.7873016 C26.7920635,17.7873016 26.8892063,17.7777778 26.9866667,17.7777778 L26.9866667,17.8492063 L26.9507937,17.8492063 C26.8507937,17.8492063 26.74,17.8679365 26.74,18.1498413 L26.74,19.2273016 C26.74,19.3104762 26.7419048,19.3926984 26.7542857,19.4663492 L26.664127,19.4663492 L25.4447619,18.1073016 L25.4447619,19.0825397 C25.4447619,19.2892063 25.4844444,19.36 25.6673016,19.36 L25.707619,19.36 L25.707619,19.4311111 C25.6057143,19.4311111 25.504127,19.4215873 25.4025397,19.4215873 C25.2952381,19.4215873 25.1866667,19.4311111 25.0793651,19.4311111 L25.0793651,19.36 L25.1136508,19.36 C25.2771429,19.36 25.3263492,19.2485714 25.3263492,19.0593651 L25.3263492,18.0619048 C25.3263492,17.9298413 25.2177778,17.8492063 25.1104762,17.8492063 L25.0793651,17.8492063 L25.0793651,17.7777778 C25.1698413,17.7777778 25.2615873,17.7873016 25.352381,17.7873016 C25.4228571,17.7873016 25.491746,17.7777778 25.5631746,17.7777778 L26.6171429,18.9644444" id="Fill-623" fill="#FFFFFF"></path>
            <path d="M26.764127,19.4860317 L26.6660317,19.4825397 L25.4644444,18.1431746 L25.4644444,19.0920635 C25.467619,19.2987302 25.4990476,19.3565079 25.6765079,19.3580952 L25.7273016,19.3580952 L25.7273016,19.4501587 L25.7174603,19.4501587 C25.6149206,19.4501587 25.5126984,19.4409524 25.411746,19.4409524 C25.3057143,19.4409524 25.1971429,19.4501587 25.0892063,19.4501587 L25.0793651,19.4501587 L25.0793651,19.3580952 L25.1234921,19.3580952 C25.2790476,19.3577778 25.324127,19.2574603 25.3253968,19.0688889 L25.3253968,18.0714286 C25.3253968,17.9457143 25.2219048,17.8688889 25.1203175,17.8688889 L25.0793651,17.8688889 L25.0793651,17.7777778 L25.0892063,17.7777778 C25.1803175,17.7777778 25.2720635,17.7863492 25.3622222,17.7863492 C25.4320635,17.7863492 25.5003175,17.7777778 25.5803175,17.7809524 L26.6206349,18.952381 L26.6206349,18.0815873 C26.62,17.8930159 26.4942857,17.8704762 26.4247619,17.8688889 L26.3628571,17.8688889 L26.3628571,17.7777778 L26.3733333,17.7777778 C26.4850794,17.7777778 26.5939683,17.7863492 26.7038095,17.7863492 C26.8012698,17.7863492 26.8977778,17.7777778 26.9965079,17.7777778 L27.0063492,17.7777778 L27.0063492,17.8688889 L26.9606349,17.8688889 C26.8631746,17.871746 26.7622222,17.8803175 26.7596825,18.1590476 L26.7596825,19.2368254 C26.7596825,19.3196825 26.7622222,19.4019048 26.7739683,19.4742857 L26.775873,19.4860317 L26.764127,19.4860317 L26.764127,19.4860317 Z M26.6739683,19.4653968 L26.751746,19.4653968 C26.7415873,19.3942857 26.7396825,19.3155556 26.7396825,19.2368254 L26.7396825,18.1590476 C26.7396825,17.8746032 26.8593651,17.8488889 26.9606349,17.848254 L26.9860317,17.848254 L26.9860317,17.7977778 C26.892381,17.7984127 26.7993651,17.8073016 26.7038095,17.8073016 C26.5965079,17.8073016 26.4904762,17.7984127 26.3838095,17.7977778 L26.3838095,17.848254 L26.4247619,17.848254 C26.4980952,17.8488889 26.6412698,17.8809524 26.6412698,18.0815873 L26.6387302,18.9765079 L26.6336508,18.9809524 L26.6269841,18.9885714 L25.5730159,17.7977778 C25.5028571,17.7977778 25.4339683,17.8073016 25.3622222,17.8073016 C25.2746032,17.8073016 25.1860317,17.7984127 25.0996825,17.7977778 L25.0996825,17.848254 L25.1203175,17.848254 C25.231746,17.8488889 25.3460317,17.9330159 25.3460317,18.0714286 L25.3460317,19.0688889 C25.3460317,19.2580952 25.2933333,19.3793651 25.1234921,19.38 L25.0996825,19.3796825 L25.0996825,19.4298413 C25.2034921,19.4292063 25.308254,19.4206349 25.411746,19.4206349 C25.5107937,19.4206349 25.6088889,19.4292063 25.7073016,19.4298413 L25.7073016,19.38 L25.6765079,19.38 C25.4904762,19.3796825 25.4438095,19.2987302 25.4438095,19.0920635 L25.4438095,18.0898413 L26.6739683,19.4653968 L26.6739683,19.4653968 Z M26.6269841,18.9739683 L26.6336508,18.9669841 L26.6269841,18.9739683 L26.6269841,18.9739683 Z M26.6206349,18.9688889 L26.6206349,18.9685714 L26.6196825,18.9666667 L26.6206349,18.9688889 L26.6206349,18.9688889 Z" id="Fill-624" fill="#FFFFFF"></path>
            <path d="M27.3739683,19.1511111 C27.3511111,19.2314286 27.3219048,19.2933333 27.3219048,19.335873 C27.3219048,19.4069841 27.4219048,19.4190476 27.5,19.4190476 L27.5260317,19.4190476 L27.5260317,19.4901587 C27.4311111,19.4847619 27.3336508,19.4806349 27.2390476,19.4806349 C27.1539683,19.4806349 27.0688889,19.4847619 26.984127,19.4901587 L26.984127,19.4190476 L26.9971429,19.4190476 C27.0901587,19.4190476 27.1688889,19.3644444 27.2034921,19.2647619 L27.5828571,18.1780952 C27.6133333,18.0904762 27.6561905,17.9720635 27.6698413,17.884127 C27.7460317,17.8580952 27.8409524,17.8111111 27.8863492,17.7828571 C27.8930159,17.7806349 27.8974603,17.7777778 27.9047619,17.7777778 C27.911746,17.7777778 27.9165079,17.7777778 27.9209524,17.7853968 C27.928254,17.8038095 27.935873,17.8253968 27.9425397,17.844127 L28.3777778,19.0825397 C28.4063492,19.1657143 28.4349206,19.2526984 28.4660317,19.3244444 C28.4946032,19.3907937 28.544127,19.4190476 28.6222222,19.4190476 L28.6365079,19.4190476 L28.6365079,19.4901587 C28.5298413,19.4847619 28.4231746,19.4806349 28.3092063,19.4806349 C28.1936508,19.4806349 28.0752381,19.4847619 27.9542857,19.4901587 L27.9542857,19.4190476 L27.9803175,19.4190476 C28.0349206,19.4190476 28.1273016,19.4095238 28.1273016,19.3504762 C28.1273016,19.3193651 28.1063492,19.2555556 28.0796825,19.1793651 L27.9873016,18.9047619 L27.4498413,18.9047619 L27.3739683,19.1511111 L27.3739683,19.1511111 Z M27.7206349,18.1022222 L27.7152381,18.1022222 L27.4949206,18.7726984 L27.9384127,18.7726984 L27.7206349,18.1022222 L27.7206349,18.1022222 Z" id="Fill-625" fill="#FFFFFF"></path>
            <path d="M28.6463492,19.5099572 C28.5390476,19.5061477 28.4330159,19.5007508 28.3196825,19.5007508 C28.2047619,19.5007508 28.0857143,19.5061477 27.9653968,19.5099572 L27.9549206,19.5109096 L27.9549206,19.4185286 L27.9907937,19.4185286 C28.0460317,19.4185286 28.1273016,19.4058302 28.1273016,19.3607508 C28.1279365,19.3337667 28.1069841,19.2690048 28.0803175,19.1934493 L27.9901587,18.9251953 L27.467619,18.9251953 L27.3949206,19.1645604 C27.3701587,19.2455127 27.3422222,19.3080524 27.3428571,19.3461477 C27.3428571,19.4045604 27.431746,19.4185286 27.5098413,19.4185286 L27.5463492,19.4185286 L27.5463492,19.5109096 L27.535873,19.5099572 C27.4409524,19.5061477 27.344127,19.5007508 27.2495238,19.5007508 C27.1650794,19.5007508 27.08,19.5061477 26.9946032,19.5099572 L26.984127,19.5109096 L26.984127,19.4185286 L27.007619,19.4185286 C27.0961905,19.4178937 27.1701587,19.367735 27.2047619,19.271862 L27.5834921,18.1848778 C27.6139683,18.0972588 27.6568254,17.9791635 27.6771429,17.8848778 C27.7520635,17.8591635 27.8469841,17.811862 27.8930159,17.7832905 C27.8990476,17.7807508 27.9053968,17.7778937 27.9152381,17.7778937 C27.9215873,17.7772588 27.9339683,17.7788461 27.9412698,17.7924969 C27.948254,17.8102747 27.9549206,17.8321794 27.9631746,17.851227 L28.3984127,19.0899572 C28.4266667,19.1724969 28.4552381,19.2604334 28.4857143,19.3302747 C28.5142857,19.3931318 28.5565079,19.4178937 28.6320635,19.4185286 L28.6574603,19.4185286 L28.6574603,19.5109096 L28.6463492,19.5099572 L28.6463492,19.5099572 Z M27.9749206,19.4896397 C28.0926984,19.4851953 28.2073016,19.4804334 28.3196825,19.4804334 C28.4304762,19.4804334 28.5333333,19.4851953 28.6365079,19.4890048 L28.635873,19.439481 L28.6320635,19.439481 C28.5520635,19.4397985 28.4961905,19.4083699 28.4669841,19.3385286 C28.4355556,19.2667826 28.407619,19.1791635 28.3790476,19.0963064 L27.9431746,17.8575762 C27.9365079,17.8391635 27.9288889,17.8175762 27.924127,17.8010683 C27.9215873,17.7985286 27.9215873,17.7985286 27.9203175,17.7985286 L27.9152381,17.7985286 C27.9104762,17.7985286 27.9073016,17.7997985 27.9015873,17.8013858 C27.855873,17.8309096 27.7609524,17.8782112 27.6907937,17.8963064 C27.6765079,17.9858302 27.6330159,18.1039254 27.6028571,18.191862 L27.2231746,19.2788461 C27.1873016,19.3817032 27.1047619,19.4397985 27.007619,19.439481 L27.0044444,19.439481 L27.0044444,19.4890048 C27.0863492,19.4851953 27.167619,19.4804334 27.2495238,19.4804334 C27.3419048,19.4804334 27.4352381,19.4851953 27.5260317,19.4890048 L27.5260317,19.439481 L27.5098413,19.439481 C27.4330159,19.4385286 27.3250794,19.4302747 27.3219048,19.3461477 C27.3225397,19.2991635 27.351746,19.2391635 27.3746032,19.1585286 L27.3844444,19.1613858 L27.3746032,19.1582112 L27.4533333,18.9051953 L28.0050794,18.9051953 L28.0993651,19.1864651 C28.1260317,19.2626556 28.1479365,19.3255127 28.1479365,19.3607508 C28.144127,19.4334493 28.0447619,19.4382112 27.9907937,19.439481 L27.9749206,19.439481 L27.9749206,19.4896397 L27.9749206,19.4896397 Z M27.4911111,18.7928143 L27.7180952,18.1023381 L27.7311111,18.1023381 L27.7311111,18.1124969 L27.7279365,18.1131318 L27.7311111,18.1124969 L27.7311111,18.1023381 L27.7380952,18.1023381 L27.9625397,18.7928143 L27.4911111,18.7928143 L27.4911111,18.7928143 Z M27.5196825,18.7721794 L27.9339683,18.7721794 L27.7273016,18.1382112 L27.5196825,18.7721794 L27.5196825,18.7721794 Z M27.7212698,18.1156715 L27.7257143,18.1137667 L27.7212698,18.1156715 L27.7212698,18.1156715 Z" id="Fill-626" fill="#FFFFFF"></path>
            <path d="M29.4028571,19.1990476 C29.4028571,19.2939683 29.4692063,19.3219048 29.5447619,19.331746 C29.6415873,19.3387302 29.748254,19.3387302 29.8577778,19.3263492 C29.9571429,19.3146032 30.0419048,19.2580952 30.0847619,19.1990476 C30.1225397,19.1466667 30.1438095,19.0806349 30.1580952,19.028254 L30.2266667,19.028254 C30.2006349,19.1631746 30.1673016,19.2961905 30.1393651,19.4311111 C29.9311111,19.4311111 29.7222222,19.4215873 29.5142857,19.4215873 C29.3053968,19.4215873 29.0977778,19.4311111 28.8888889,19.4311111 L28.8888889,19.36 L28.9215873,19.36 C29.0073016,19.36 29.0996825,19.3479365 29.0996825,19.2012698 L29.0996825,17.9844444 C29.0996825,17.8609524 29.0073016,17.8492063 28.9215873,17.8492063 L28.8888889,17.8492063 L28.8888889,17.7777778 C29.0146032,17.7777778 29.1374603,17.7873016 29.2631746,17.7873016 C29.384127,17.7873016 29.5019048,17.7777778 29.6228571,17.7777778 L29.6228571,17.8492063 L29.5634921,17.8492063 C29.4739683,17.8492063 29.4028571,17.8514286 29.4028571,17.9771429 L29.4028571,19.1990476" id="Fill-627" fill="#FFFFFF"></path>
            <path d="M30.1495238,19.4501587 C29.9406349,19.4501587 29.732381,19.4409524 29.5244444,19.4409524 C29.3155556,19.4409524 29.1079365,19.4501587 28.8984127,19.4501587 L28.8888889,19.4501587 L28.8888889,19.3587302 L28.931746,19.3587302 C29.0174603,19.3568254 29.0987302,19.3511111 29.0990476,19.2107937 L29.0990476,17.9936508 C29.0987302,17.8784127 29.0180952,17.8704762 28.931746,17.8688889 L28.8888889,17.8688889 L28.8888889,17.7777778 L28.8984127,17.7777778 C29.0247619,17.7777778 29.148254,17.7863492 29.2733333,17.7863492 C29.3936508,17.7863492 29.5114286,17.7777778 29.6330159,17.7777778 L29.6428571,17.7777778 L29.6428571,17.8688889 L29.5736508,17.8688889 C29.4825397,17.8714286 29.4247619,17.8669841 29.4228571,17.9866667 L29.4228571,19.2085714 C29.4234921,19.2965079 29.4819048,19.3206349 29.5555556,19.3304762 C29.5971429,19.3333333 29.6412698,19.3352381 29.6869841,19.3352381 C29.7447619,19.3352381 29.8047619,19.3326984 29.8660317,19.3263492 C29.9628571,19.3149206 30.0460317,19.2590476 30.0863492,19.2022222 C30.1228571,19.1520635 30.1438095,19.0869841 30.1574603,19.0355556 L30.16,19.027619 L30.2495238,19.027619 L30.247619,19.04 C30.2203175,19.1755556 30.1879365,19.307619 30.1587302,19.4425397 L30.1571429,19.4501587 L30.1495238,19.4501587 L30.1495238,19.4501587 Z M30.1409524,19.4298413 C30.168254,19.3015873 30.1990476,19.175873 30.2244444,19.048254 L30.1755556,19.048254 C30.1612698,19.0993651 30.1396825,19.1631746 30.1031746,19.2149206 C30.0584127,19.275873 29.9711111,19.3336508 29.8679365,19.3463492 C29.8060317,19.3526984 29.7453968,19.3565079 29.6869841,19.3565079 C29.6412698,19.3565079 29.5965079,19.3542857 29.5536508,19.3511111 C29.4761905,19.3425397 29.4019048,19.3095238 29.4025397,19.2085714 L29.4025397,17.9866667 C29.4025397,17.8546032 29.4853968,17.848254 29.5736508,17.848254 L29.6225397,17.848254 L29.6225397,17.7977778 C29.5060317,17.7984127 29.3911111,17.8073016 29.2733333,17.8073016 C29.1501587,17.8073016 29.0304762,17.7984127 28.9088889,17.7977778 L28.9088889,17.848254 L28.931746,17.848254 C29.0161905,17.848254 29.1203175,17.8628571 29.1203175,17.9936508 L29.1203175,19.2107937 C29.1203175,19.3638095 29.0174603,19.3796825 28.931746,19.3796825 L28.9088889,19.3796825 L28.9088889,19.4298413 C29.1139683,19.4298413 29.3187302,19.4206349 29.5244444,19.4206349 C29.7304762,19.4206349 29.9355556,19.4298413 30.1409524,19.4298413 L30.1409524,19.4298413 Z" id="Fill-628" fill="#FFFFFF"></path>
        </g>
    </g>
</svg>