<?xml version="1.0" encoding="UTF-8" standalone="no"?>
<svg width="40px" height="25px" viewBox="0 0 40 25" version="1.1" xmlns="http://www.w3.org/2000/svg" xmlns:xlink="http://www.w3.org/1999/xlink">
    <!-- Generator: Sketch 3.7.1 (28215) - http://www.bohemiancoding.com/sketch -->
    <title>Group 7</title>
    <desc>Created with Sketch.</desc>
    <defs></defs>
    <g id="Page-1" stroke="none" stroke-width="1" fill="none" fill-rule="evenodd">
        <g id="Group-7">
            <path d="M39.8180952,23.5596825 C39.8180952,24.2926984 39.2234921,24.8873016 38.4907937,24.8873016 L1.32666667,24.8873016 C0.593968254,24.8873016 0,24.2926984 0,23.5596825 L0,1.32761905 C0,0.593968254 0.593968254,0 1.32666667,0 L38.4907937,0 C39.2234921,0 39.8180952,0.593968254 39.8180952,1.32761905 L39.8180952,23.5596825" id="Fill-651-Copy" fill="#F1F2F2"></path>
            <path d="M11.1111111,24.931746 L38.6571429,24.931746 C39.3898413,24.931746 39.9844444,24.3371429 39.9844444,23.604127 L39.9844444,14.2857143 C37.3406349,15.9615873 27.3730159,21.7396825 11.1111111,24.931746" id="Fill-652-Copy" fill="#F6821F"></path>
            <path d="M10.171746,13.592381 C9.94190476,13.7996825 9.64666667,13.8888889 9.17619048,13.8888889 L8.98063492,13.8888889 L8.98063492,11.4247619 L9.17619048,11.4247619 C9.64666667,11.4247619 9.93079365,11.5085714 10.171746,11.7260317 C10.4228571,11.9498413 10.572381,12.295873 10.572381,12.6530159 C10.572381,13.0114286 10.4228571,13.3698413 10.171746,13.592381 L10.171746,13.592381 Z M9.32190476,10.7936508 L8.25396825,10.7936508 L8.25396825,14.52 L9.3168254,14.52 C9.88031746,14.52 10.2885714,14.3860317 10.6463492,14.0904762 C11.0701587,13.7374603 11.3219048,13.2066667 11.3219048,12.6587302 C11.3219048,11.5587302 10.5006349,10.7936508 9.32190476,10.7936508 L9.32190476,10.7936508 Z" id="Fill-655-Copy" fill="#001722"></path>
            <polygon id="Fill-656-Copy" fill="#001722" points="11.4285714 14.52 12.1539683 14.52 12.1539683 10.7936508 11.4285714 10.7936508"></polygon>
            <path d="M13.8834921,11.9673016 C13.4469841,11.8060317 13.3190476,11.6993651 13.3190476,11.4984127 C13.3190476,11.264127 13.5479365,11.0853968 13.8612698,11.0853968 C14.0787302,11.0853968 14.2574603,11.1749206 14.448254,11.3863492 L14.827619,10.8901587 C14.5146032,10.6155556 14.14,10.4761905 13.7320635,10.4761905 C13.0736508,10.4761905 12.5701587,10.9342857 12.5701587,11.5431746 C12.5701587,12.0577778 12.8044444,12.32 13.4866667,12.5657143 C13.771746,12.6660317 13.9168254,12.7330159 13.9895238,12.7780952 C14.1346032,12.8736508 14.207619,13.0069841 14.207619,13.1631746 C14.207619,13.4660317 13.967619,13.6885714 13.6428571,13.6885714 C13.2961905,13.6885714 13.0171429,13.5161905 12.8498413,13.191746 L12.3809524,13.6450794 C12.7152381,14.1361905 13.1177778,14.3542857 13.6714286,14.3542857 C14.4253968,14.3542857 14.9561905,13.8507937 14.9561905,13.1304762 C14.9561905,12.5384127 14.7111111,12.2698413 13.8834921,11.9673016" id="Fill-657-Copy" fill="#001722"></path>
            <path d="M15.2380952,12.4250794 C15.2380952,13.5212698 16.0987302,14.3701587 17.2057143,14.3701587 C17.5187302,14.3701587 17.7866667,14.3085714 18.1165079,14.152381 L18.1165079,13.2974603 C17.8257143,13.588254 17.568254,13.7047619 17.2390476,13.7047619 C16.5073016,13.7047619 15.9873016,13.1739683 15.9873016,12.4193651 C15.9873016,11.7050794 16.5228571,11.1403175 17.2057143,11.1403175 C17.551746,11.1403175 17.8146032,11.2638095 18.1165079,11.5593651 L18.1165079,10.7044444 C17.7984127,10.5425397 17.5349206,10.4761905 17.2222222,10.4761905 C16.1212698,10.4761905 15.2380952,11.3425397 15.2380952,12.4250794" id="Fill-658-Copy" fill="#001722"></path>
            <polyline id="Fill-659-Copy" fill="#001722" points="24.0104762 13.2968254 23.0165079 10.7936508 22.2222222 10.7936508 23.8044444 14.6155556 24.1952381 14.6155556 25.8047619 10.7936508 25.0174603 10.7936508 24.0104762 13.2968254"></polyline>
            <polyline id="Fill-660-Copy" fill="#001722" points="26.3492063 14.52 28.4101587 14.52 28.4101587 13.8888889 27.0746032 13.8888889 27.0746032 12.8825397 28.3593651 12.8825397 28.3593651 12.2520635 27.0746032 12.2520635 27.0746032 11.4247619 28.4101587 11.4247619 28.4101587 10.7936508 26.3492063 10.7936508 26.3492063 14.52"></polyline>
            <path d="M29.827619,12.5085714 L29.6161905,12.5085714 L29.6161905,11.3796825 L29.8393651,11.3796825 C30.2926984,11.3796825 30.5380952,11.5704762 30.5380952,11.9326984 C30.5380952,12.3069841 30.2926984,12.5085714 29.827619,12.5085714 L29.827619,12.5085714 Z M31.2860317,11.8936508 C31.2860317,11.1952381 30.8060317,10.7936508 29.967619,10.7936508 L28.8888889,10.7936508 L28.8888889,14.52 L29.6161905,14.52 L29.6161905,13.0225397 L29.7111111,13.0225397 L30.7168254,14.52 L31.6101587,14.52 L30.4365079,12.9501587 C30.9844444,12.8384127 31.2860317,12.464127 31.2860317,11.8936508 L31.2860317,11.8936508 Z" id="Fill-661-Copy" fill="#001722"></path>
            <path id="Fill-662-Copy" fill="#231F1F"></path>
            <path d="M31.7142857,11.3155556 C31.5873016,11.3155556 31.4847619,11.2114286 31.4847619,11.0812698 C31.4847619,10.9498413 31.5860317,10.8457143 31.7142857,10.8457143 C31.8384127,10.8457143 31.94,10.951746 31.94,11.0812698 C31.94,11.2101587 31.8384127,11.3155556 31.7142857,11.3155556 L31.7142857,11.3155556 Z M31.7149206,10.7936508 C31.5555556,10.7936508 31.4285714,10.9212698 31.4285714,11.0806349 C31.4285714,11.2393651 31.5561905,11.3669841 31.7149206,11.3669841 C31.8704762,11.3669841 31.9984127,11.2380952 31.9984127,11.0806349 C31.9984127,10.9231746 31.8704762,10.7936508 31.7149206,10.7936508 L31.7149206,10.7936508 Z" id="Fill-663-Copy" fill="#231F1F"></path>
            <circle id="Oval-1-Copy" fill="#F58220" cx="20.3174603" cy="12.6984127" r="1.9047619"></circle>
        </g>
    </g>
</svg>