<?xml version="1.0" encoding="UTF-8" standalone="no"?>
<svg width="40px" height="25px" viewBox="0 0 40 25" version="1.1" xmlns="http://www.w3.org/2000/svg" xmlns:xlink="http://www.w3.org/1999/xlink">
    <!-- Generator: Sketch 3.7.1 (28215) - http://www.bohemiancoding.com/sketch -->
    <title>Group 5</title>
    <desc>Created with Sketch.</desc>
    <defs></defs>
    <g id="Page-1" stroke="none" stroke-width="1" fill="none" fill-rule="evenodd">
        <g id="Group-5">
            <path d="M39.8190476,23.5596825 C39.8190476,24.2926984 39.2253968,24.8866667 38.4920635,24.8866667 L1.32698413,24.8866667 C0.593650794,24.8866667 0,24.2926984 0,23.5596825 L0,1.32761905 C0,0.594285714 0.593650794,0 1.32698413,0 L38.4920635,0 C39.2253968,0 39.8190476,0.594285714 39.8190476,1.32761905 L39.8190476,23.5596825" id="Fill-421" fill="#13457C"></path>
            <polyline id="Fill-422" fill="#EC1C2E" points="24.6031746 19.6904762 24.9746032 19.6806349 25.3365079 19.6526984 25.6952381 19.6079365 26.047619 19.5444444 26.3936508 19.4650794 26.7333333 19.368254 27.0666667 19.255873 27.3936508 19.1266667 27.7111111 18.9834921 28.015873 18.8257143 28.3174603 18.6542857 28.6063492 18.4666667 28.8888889 18.2669841 29.1587302 18.055873 29.4190476 17.8304762 29.6666667 17.5930159 29.9015873 17.3438095 30.1301587 17.0831746 30.3428571 16.8133333 30.5428571 16.5336508 30.7269841 16.2425397 30.8984127 15.9419048 31.0571429 15.6339683 31.2031746 15.3171429 31.3301587 14.9904762 31.4412698 14.6596825 31.5365079 14.3190476 31.615873 13.9739683 31.6825397 13.6193651 31.7269841 13.2622222 31.752381 12.8980952 31.7650794 12.5292063 31.752381 12.1631746 31.7269841 11.8012698 31.6825397 11.4466667 31.615873 11.0946032 31.5365079 10.751746 31.4412698 10.4136508 31.3301587 10.0822222 31.2031746 9.75809524 31.0571429 9.44380952 30.8984127 9.13555556 30.7269841 8.83714286 30.5428571 8.54603175 30.3428571 8.26698413 30.1301587 7.99650794 29.9015873 7.73809524 29.6666667 7.48952381 29.4190476 7.25428571 29.1587302 7.02888889 28.8888889 6.81746032 28.6063492 6.61777778 28.3174603 6.43269841 28.015873 6.26126984 27.7111111 6.10095238 27.3936508 5.95809524 27.0666667 5.83079365 26.7333333 5.7184127 26.3936508 5.62222222 26.047619 5.54222222 25.6952381 5.47873016 25.3365079 5.43428571 24.9746032 5.40603175 24.6031746 5.3968254 24.2349206 5.40603175 23.8730159 5.43428571 23.5142857 5.47873016 23.1619048 5.54222222 22.815873 5.62222222 22.4761905 5.7184127 22.1428571 5.83079365 21.8190476 5.95809524 21.5015873 6.10095238 21.1936508 6.26126984 20.8952381 6.43269841 20.6063492 6.61777778 20.3269841 6.81746032 20.0539683 7.02888889 19.7968254 7.25428571 19.5492063 7.48952381 19.3142857 7.73809524 19.0888889 7.99650794 18.8761905 8.26698413 18.6761905 8.54603175 18.4920635 8.83714286 18.3206349 9.13555556 18.1619048 9.44380952 18.0222222 9.75809524 17.8920635 10.0822222 17.7809524 10.4136508 17.6857143 10.751746 17.6063492 11.0946032 17.5428571 11.4466667 17.4984127 11.8012698 17.4698413 12.1631746 17.4603175 12.5292063 17.4698413 12.8980952 17.4984127 13.2622222 17.5428571 13.6193651 17.6063492 13.9739683 17.6857143 14.3190476 17.7809524 14.6596825 17.8920635 14.9904762 18.0222222 15.3171429 18.1619048 15.6339683 18.3206349 15.9419048 18.4920635 16.2425397 18.6761905 16.5336508 18.8761905 16.8133333 19.0888889 17.0831746 19.3142857 17.3438095 19.5492063 17.5930159 19.7968254 17.8304762 20.0539683 18.055873 20.3269841 18.2669841 20.6063492 18.4666667 20.8952381 18.6542857 21.1936508 18.8257143 21.5015873 18.9834921 21.8190476 19.1266667 22.1428571 19.255873 22.4761905 19.368254 22.815873 19.4650794 23.1619048 19.5444444 23.5142857 19.6079365 23.8730159 19.6526984 24.2349206 19.6806349 24.6031746 19.6904762"></polyline>
            <polyline id="Fill-423" fill="#0084C4" points="15.0952381 19.6904762 15.4634921 19.6806349 15.8253968 19.6526984 16.184127 19.6079365 16.5365079 19.5444444 16.8825397 19.4650794 17.2222222 19.368254 17.5555556 19.255873 17.8793651 19.1266667 18.1968254 18.9834921 18.5047619 18.8257143 18.8031746 18.6542857 19.0952381 18.4666667 19.3746032 18.2669841 19.6444444 18.055873 19.9015873 17.8304762 20.1492063 17.5930159 20.384127 17.3438095 20.6095238 17.0831746 20.8222222 16.8133333 21.0222222 16.5336508 21.2095238 16.2425397 21.3777778 15.9419048 21.5365079 15.6339683 21.6793651 15.3171429 21.8063492 14.9904762 21.9174603 14.6596825 22.0126984 14.3190476 22.0920635 13.9739683 22.1555556 13.6193651 22.2 13.2622222 22.2285714 12.8980952 22.2380952 12.5292063 22.2285714 12.1631746 22.2 11.8012698 22.1555556 11.4466667 22.0920635 11.0946032 22.0126984 10.751746 21.9174603 10.4136508 21.8063492 10.0822222 21.6793651 9.75809524 21.5365079 9.44380952 21.3777778 9.13555556 21.2095238 8.83714286 21.0222222 8.54603175 20.8222222 8.26698413 20.6095238 7.99650794 20.384127 7.73809524 20.1492063 7.48952381 19.9015873 7.25428571 19.6444444 7.02888889 19.3746032 6.81746032 19.0952381 6.61777778 18.8031746 6.43269841 18.5047619 6.26126984 18.1968254 6.10095238 17.8793651 5.95809524 17.5555556 5.83079365 17.2222222 5.7184127 16.8825397 5.62222222 16.5365079 5.54222222 16.184127 5.47873016 15.8253968 5.43428571 15.4634921 5.40603175 15.0952381 5.3968254 14.7269841 5.40603175 14.3619048 5.43428571 14.0031746 5.47873016 13.6507937 5.54222222 13.3047619 5.62222222 12.9650794 5.7184127 12.631746 5.83079365 12.3047619 5.95809524 11.9904762 6.10095238 11.6825397 6.26126984 11.3809524 6.43269841 11.0920635 6.61777778 10.8095238 6.81746032 10.5396825 7.02888889 10.2793651 7.25428571 10.031746 7.48952381 9.7968254 7.73809524 9.57142857 7.99650794 9.35555556 8.26698413 9.15555556 8.54603175 8.97142857 8.83714286 8.8 9.13555556 8.64126984 9.44380952 8.4952381 9.75809524 8.37142857 10.0822222 8.25714286 10.4136508 8.16190476 10.751746 8.08253968 11.0946032 8.01904762 11.4466667 7.97460317 11.8012698 7.94603175 12.1631746 7.93650794 12.5292063 7.94603175 12.8980952 7.97460317 13.2622222 8.01904762 13.6193651 8.08253968 13.9739683 8.16190476 14.3190476 8.25714286 14.6596825 8.37142857 14.9904762 8.4952381 15.3171429 8.64126984 15.6339683 8.8 15.9419048 8.97142857 16.2425397 9.15555556 16.5336508 9.35555556 16.8133333 9.57142857 17.0831746 9.7968254 17.3438095 10.031746 17.5930159 10.2793651 17.8304762 10.5396825 18.055873 10.8095238 18.2669841 11.0920635 18.4666667 11.3809524 18.6542857 11.6825397 18.8257143 11.9904762 18.9834921 12.3047619 19.1266667 12.631746 19.255873 12.9650794 19.368254 13.3047619 19.4650794 13.6507937 19.5444444 14.0031746 19.6079365 14.3619048 19.6526984 14.7269841 19.6806349 15.0952381 19.6904762"></polyline>
            <polyline id="Fill-424" fill="#EC1C2E" points="19.047619 8.11904762 22.6730159 8.11904762 22.6730159 7.61904762 19.3968254 7.61904762 19.047619 8.11904762"></polyline>
            <polyline id="Fill-425" fill="#EC1C2E" points="18.4126984 9.07142857 22.6063492 9.07142857 22.6063492 8.57142857 18.6666667 8.57142857 18.4126984 9.07142857"></polyline>
            <polyline id="Fill-426" fill="#EC1C2E" points="17.7777778 10.0238095 22.3968254 10.0238095 22.3968254 9.52380952 17.9746032 9.52380952 17.7777778 10.0238095"></polyline>
            <polyline id="Fill-427" fill="#EC1C2E" points="17.7777778 10.6587302 22.6730159 10.6587302 22.6730159 10.1587302 17.8984127 10.1587302 17.7777778 10.6587302"></polyline>
            <polyline id="Fill-428" fill="#EC1C2E" points="17.4603175 11.6111111 22.5365079 11.6111111 22.5365079 11.1111111 17.5333333 11.1111111 17.4603175 11.6111111"></polyline>
            <polyline id="Fill-429" fill="#EC1C2E" points="17.4952381 13.1984127 22.6095238 13.1984127 22.6095238 12.6984127 17.4603175 12.6984127 17.4952381 13.1984127"></polyline>
            <polyline id="Fill-430" fill="#EC1C2E" points="17.5333333 14.1507937 22.5238095 14.1507937 22.5238095 13.6507937 17.4603175 13.6507937 17.5333333 14.1507937"></polyline>
            <polyline id="Fill-431" fill="#EC1C2E" points="17.9015873 14.7857143 22.6507937 14.7857143 22.6507937 14.2857143 17.7777778 14.2857143 17.9015873 14.7857143"></polyline>
            <polyline id="Fill-432" fill="#EC1C2E" points="18.2888889 15.7380952 22.6761905 15.7380952 22.6761905 15.2380952 18.0952381 15.2380952 18.2888889 15.7380952"></polyline>
            <polyline id="Fill-433" fill="#EC1C2E" points="18.6793651 16.6904762 22.5587302 16.6904762 22.5587302 16.1904762 18.4126984 16.1904762 18.6793651 16.6904762"></polyline>
            <polyline id="Fill-434" fill="#EC1C2E" points="19.3968254 17.6428571 22.6031746 17.6428571 22.6031746 17.1428571 19.047619 17.1428571 19.3968254 17.6428571"></polyline>
            <polyline id="Fill-435" fill="#EC1C2E" points="30.4761905 16.9444365 30.4952381 16.8444365 30.5333333 16.7519365 30.5777778 16.6704365 30.6285714 16.6034365 30.6857143 16.5519365 30.7492063 16.5189365 30.8190476 16.5079365 30.8888889 16.5189365 30.9555556 16.5519365 31.0126984 16.6034365 31.0634921 16.6704365 31.1079365 16.7519365 31.1396825 16.8444365 31.1619048 16.9444365 31.0888889 16.9444365 31.0730159 16.8739365 31.047619 16.7959365 31.015873 16.7294365 30.9746032 16.6774365 30.9269841 16.6374365 30.8730159 16.6114365 30.8190476 16.6034365 30.7619048 16.6114365 30.7079365 16.6374365 30.6603175 16.6774365 30.6190476 16.7294365 30.5873016 16.7959365 30.5587302 16.8739365 30.5460317 16.9444365 30.4761905 16.9444365"></polyline>
            <polyline id="Fill-436" fill="#EC1C2E" points="30.7936508 16.9588968 30.7936508 16.8253968 31.0036508 16.8253968 31.0536508 16.8288968 31.0936508 16.8328968 31.1336508 16.8443968 31.1586508 16.8588968 31.1836508 16.8773968 31.2036508 16.8993968 31.2136508 16.9253968 31.2186508 16.9588968 31.1186508 16.9588968 31.1186508 16.9403968 31.1086508 16.9253968 31.0986508 16.9103968 31.0836508 16.8993968 31.0636508 16.8918968 31.0486508 16.8883968 31.0286508 16.8848968 30.8936508 16.8848968 30.8936508 16.9588968 30.7936508 16.9588968"></polyline>
            <polyline id="Fill-437" fill="#EC1C2E" points="30.4761905 16.9213968 30.4861905 16.8288968 30.4861905 16.8253968 30.5961905 16.8253968 30.5911905 16.8438968 30.5861905 16.9213968 30.4761905 16.9213968"></polyline>
            <polyline id="Fill-438" fill="#EC1C2E" points="30.7936508 16.9213968 30.7936508 16.8253968 30.8936508 16.8253968 30.8936508 16.9028968 31.0486508 16.9028968 31.0736508 16.8993968 31.0886508 16.8913968 31.1036508 16.8843968 31.1136508 16.8698968 31.1186508 16.8513968 31.1186508 16.8253968 31.2186508 16.8253968 31.2136508 16.8583968 31.2086508 16.8883968 31.1936508 16.9103968 31.1836508 16.9213968 30.7936508 16.9213968"></polyline>
            <polyline id="Fill-439" fill="#EC1C2E" points="31.1211111 16.9213968 31.1161111 16.8438968 31.1111111 16.8253968 31.2261111 16.8253968 31.2261111 16.8288968 31.2361111 16.9213968 31.1211111 16.9213968"></polyline>
            <polyline id="Fill-440" fill="#EC1C2E" points="30.4761905 17.1428571 30.4761905 17.1590734 30.4825397 17.2590734 30.5015873 17.3527671 30.5396825 17.4329472 30.584127 17.5059202 30.6349206 17.562677 30.6920635 17.6063707 30.7555556 17.6324968 30.8253968 17.6428571 30.8952381 17.6324968 30.9619048 17.6063707 31.0190476 17.562677 31.0698413 17.5059202 31.1142857 17.4329472 31.1460317 17.3527671 31.168254 17.2590734 31.1746032 17.1590734 31.1746032 17.1428571 31.1015873 17.1428571 31.1015873 17.1590734 31.0984127 17.2460103 31.0793651 17.3261905 31.0539683 17.3960103 31.0222222 17.4563707 30.9809524 17.5059202 30.9333333 17.5428571 30.8793651 17.5658301 30.8253968 17.5725869 30.768254 17.5658301 30.7142857 17.5428571 30.6666667 17.5059202 30.6253968 17.4563707 30.5936508 17.3960103 30.5650794 17.3261905 30.5492063 17.2460103 30.5460317 17.1590734 30.5460317 17.1428571 30.4761905 17.1428571"></polyline>
            <polyline id="Fill-441" fill="#EC1C2E" points="30.7936508 17.1428571 30.7936508 17.3718571 30.8936508 17.3718571 30.8936508 17.1838571 30.9886508 17.1838571 31.1036508 17.3718571 31.1986508 17.3718571 31.0636508 17.1838571 31.0936508 17.1798571 31.1286508 17.1758571 31.1536508 17.1648571 31.1786508 17.1503571 31.1836508 17.1428571 30.7936508 17.1428571"></polyline>
            <polyline id="Fill-442" fill="#FFFFFF" points="23.1492063 11.9447619 23.1015873 11.9425397 23.0539683 11.9377778 23.0126984 11.9304762 22.9714286 11.9263492 22.9269841 11.9187302 22.8857143 11.911746 22.8412698 11.9047619 22.7936508 11.8977778 22.7460317 11.8926984 22.6920635 11.888254 22.6349206 11.8834921 22.5714286 11.8809524 22.5015873 11.8809524 22.4222222 11.8834921 22.3365079 11.888254 22.2412698 11.8952381 22.1746032 11.9047619 22.1111111 11.9187302 22.0507937 11.9377778 22 11.9590476 21.952381 11.9844444 21.9111111 12.0130159 21.8761905 12.0457143 21.847619 12.0784127 21.8253968 12.1161905 21.8126984 12.155873 21.8063492 12.195873 21.8063492 12.2380952 21.815873 12.2828571 21.831746 12.3273016 21.8571429 12.3720635 21.8888889 12.4168254 21.9587302 12.4780952 22.0380952 12.5273016 22.1333333 12.5695238 22.2349206 12.6044444 22.3396825 12.6396825 22.447619 12.6752381 22.5619048 12.7149206 22.6698413 12.7622222 22.7714286 12.8184127 22.8666667 12.8866667 22.952381 12.9736508 23.0222222 13.0768254 23.0761905 13.2034921 23.1111111 13.3539683 23.1238095 13.532381 23.1111111 13.7438095 23.0857143 13.9009524 23.0444444 14.0419048 22.9904762 14.1688889 22.9206349 14.2812698 22.8412698 14.38 22.7555556 14.4647619 22.6571429 14.5374603 22.5555556 14.6009524 22.447619 14.6526984 22.3333333 14.6946032 22.2190476 14.7301587 22.1047619 14.755873 21.9904762 14.7746032 21.8761905 14.7863492 21.768254 14.7936508 21.6634921 14.7961905 21.5174603 14.7961905 21.384127 14.7936508 21.2666667 14.7911111 21.1555556 14.7888889 21.0539683 14.7844444 20.9650794 14.7793651 20.8793651 14.7726984 20.8063492 14.7628571 20.7333333 14.7536508 20.6698413 14.7415873 20.6063492 14.7301587 20.5460317 14.7136508 20.4920635 14.6971429 20.4349206 14.6809524 20.3777778 14.6596825 20.3174603 14.6384127 20.4634921 13.9009524 20.4984127 13.908254 20.5365079 13.9196825 20.5873016 13.9314286 20.6412698 13.9453968 20.7047619 13.9574603 20.7746032 13.9739683 20.8507937 13.987619 20.9301587 14.0019048 21.015873 14.0136508 21.1047619 14.0257143 21.1936508 14.0349206 21.2920635 14.044127 21.3873016 14.0488889 21.4857143 14.0511111 21.584127 14.0511111 21.6857143 14.0463492 21.7809524 14.0301587 21.8571429 14.0044444 21.9174603 13.9669841 21.9619048 13.9247619 21.9968254 13.8749206 22.0253968 13.8238095 22.0444444 13.7720635 22.0603175 13.7203175 22.0666667 13.6663492 22.0634921 13.6190476 22.0507937 13.5746032 22.0349206 13.5371429 22.0063492 13.4993651 21.9746032 13.4666667 21.9365079 13.435873 21.8888889 13.407619 21.8412698 13.3822222 21.7873016 13.3561905 21.7269841 13.3304762 21.6063492 13.2834921 21.5396825 13.2574603 21.4761905 13.231746 21.4063492 13.2034921 21.3396825 13.1752381 21.2761905 13.1447619 21.2095238 13.1095238 21.1460317 13.0720635 21.0857143 13.0320635 21.0285714 12.9873016 20.9746032 12.9355556 20.9238095 12.8819048 20.8793651 12.8206349 20.8412698 12.7549206 20.8063492 12.6819048 20.7777778 12.6044444 20.7587302 12.5177778 20.7492063 12.4238095 20.7460317 12.3203175 20.752381 12.2098413 20.7587302 12.1419048 20.7714286 12.075873 20.7777778 12.0130159 20.7936508 11.951746 20.8063492 11.8926984 20.8253968 11.8342857 20.8444444 11.7803175 20.8666667 11.7263492 20.8920635 11.6768254 20.9174603 11.627619 20.9492063 11.5828571 20.9809524 11.5384127 21.015873 11.4961905 21.0539683 11.455873 21.0952381 11.4184127 21.1396825 11.3831746 21.184127 11.3504762 21.2349206 11.32 21.2888889 11.291746 21.3460317 11.2634921 21.4031746 11.24 21.4666667 11.2165079 21.5333333 11.1977778 21.6031746 11.1787302 21.6793651 11.1625397 21.7555556 11.1485714 21.8380952 11.1368254 21.9206349 11.1273016 22.0095238 11.1203175 22.1047619 11.115873 22.2 11.1111111 22.4253968 11.1111111 22.5396825 11.1130159 22.6380952 11.115873 22.7333333 11.1203175 22.815873 11.1250794 22.8920635 11.1298413 22.9587302 11.1368254 23.0190476 11.1415873 23.0730159 11.1485714 23.1174603 11.1555556 23.1619048 11.16 23.2 11.1673016 23.2349206 11.1720635 23.2634921 11.1765079 23.2920635 11.1812698 23.3174603 11.1838095 23.1492063 11.9447619"></polyline>
            <polyline id="Stroke-443" stroke="#FFFFFF" stroke-width="0.215" points="23.1492063 11.9447619 23.1492063 11.9447619 23.1015873 11.9425397 23.0539683 11.9377778 23.0126984 11.9304762 22.9714286 11.9263492 22.9269841 11.9187302 22.8857143 11.911746 22.8412698 11.9047619 22.7936508 11.8977778 22.7460317 11.8926984 22.6920635 11.888254 22.6349206 11.8834921 22.5714286 11.8809524 22.5015873 11.8809524 22.4222222 11.8834921 22.3365079 11.888254 22.2412698 11.8952381 22.1746032 11.9047619 22.1111111 11.9187302 22.0507937 11.9377778 22 11.9590476 21.952381 11.9844444 21.9111111 12.0130159 21.8761905 12.0457143 21.847619 12.0784127 21.8253968 12.1161905 21.8126984 12.155873 21.8063492 12.195873 21.8063492 12.2380952 21.815873 12.2828571 21.831746 12.3273016 21.8571429 12.3720635 21.8888889 12.4168254 21.9587302 12.4780952 22.0380952 12.5273016 22.1333333 12.5695238 22.2349206 12.6044444 22.3396825 12.6396825 22.447619 12.6752381 22.5619048 12.7149206 22.6698413 12.7622222 22.7714286 12.8184127 22.8666667 12.8866667 22.952381 12.9736508 23.0222222 13.0768254 23.0761905 13.2034921 23.1111111 13.3539683 23.1238095 13.532381 23.1111111 13.7438095 23.0857143 13.9009524 23.0444444 14.0419048 22.9904762 14.1688889 22.9206349 14.2812698 22.8412698 14.38 22.7555556 14.4647619 22.6571429 14.5374603 22.5555556 14.6009524 22.447619 14.6526984 22.3333333 14.6946032 22.2190476 14.7301587 22.1047619 14.755873 21.9904762 14.7746032 21.8761905 14.7863492 21.768254 14.7936508 21.6634921 14.7961905 21.5174603 14.7961905 21.384127 14.7936508 21.2666667 14.7911111 21.1555556 14.7888889 21.0539683 14.7844444 20.9650794 14.7793651 20.8793651 14.7726984 20.8063492 14.7628571 20.7333333 14.7536508 20.6698413 14.7415873 20.6063492 14.7301587 20.5460317 14.7136508 20.4920635 14.6971429 20.4349206 14.6809524 20.3777778 14.6596825 20.3174603 14.6384127 20.4634921 13.9009524 20.4984127 13.908254 20.5365079 13.9196825 20.5873016 13.9314286 20.6412698 13.9453968 20.7047619 13.9574603 20.7746032 13.9739683 20.8507937 13.987619 20.9301587 14.0019048 21.015873 14.0136508 21.1047619 14.0257143 21.1936508 14.0349206 21.2920635 14.044127 21.3873016 14.0488889 21.4857143 14.0511111 21.584127 14.0511111 21.6857143 14.0463492 21.7809524 14.0301587 21.8571429 14.0044444 21.9174603 13.9669841 21.9619048 13.9247619 21.9968254 13.8749206 22.0253968 13.8238095 22.0444444 13.7720635 22.0603175 13.7203175 22.0666667 13.6663492 22.0634921 13.6190476 22.0507937 13.5746032 22.0349206 13.5371429 22.0063492 13.4993651 21.9746032 13.4666667 21.9365079 13.435873 21.8888889 13.407619 21.8412698 13.3822222 21.7873016 13.3561905 21.7269841 13.3304762 21.6063492 13.2834921 21.5396825 13.2574603 21.4761905 13.231746 21.4063492 13.2034921 21.3396825 13.1752381 21.2761905 13.1447619 21.2095238 13.1095238 21.1460317 13.0720635 21.0857143 13.0320635 21.0285714 12.9873016 20.9746032 12.9355556 20.9238095 12.8819048 20.8793651 12.8206349 20.8412698 12.7549206 20.8063492 12.6819048 20.7777778 12.6044444 20.7587302 12.5177778 20.7492063 12.4238095 20.7460317 12.3203175 20.752381 12.2098413 20.7587302 12.1419048 20.7714286 12.075873 20.7777778 12.0130159 20.7936508 11.951746 20.8063492 11.8926984 20.8253968 11.8342857 20.8444444 11.7803175 20.8666667 11.7263492 20.8920635 11.6768254 20.9174603 11.627619 20.9492063 11.5828571 20.9809524 11.5384127 21.015873 11.4961905 21.0539683 11.455873 21.0952381 11.4184127 21.1396825 11.3831746 21.184127 11.3504762 21.2349206 11.32 21.2888889 11.291746 21.3460317 11.2634921 21.4031746 11.24 21.4666667 11.2165079 21.5333333 11.1977778 21.6031746 11.1787302 21.6793651 11.1625397 21.7555556 11.1485714 21.8380952 11.1368254 21.9206349 11.1273016 22.0095238 11.1203175 22.1047619 11.115873 22.2 11.1111111 22.4253968 11.1111111 22.5396825 11.1130159 22.6380952 11.115873 22.7333333 11.1203175 22.815873 11.1250794 22.8920635 11.1298413 22.9587302 11.1368254 23.0190476 11.1415873 23.0730159 11.1485714 23.1174603 11.1555556 23.1619048 11.16 23.2 11.1673016 23.2349206 11.1720635 23.2634921 11.1765079 23.2920635 11.1812698 23.3174603 11.1838095 23.1492063 11.9447619"></polyline>
            <polyline id="Fill-444" fill="#FFFFFF" points="23.8222222 10.4761905 24.768254 10.4761905 24.6222222 11.2987302 25.2031746 11.2987302 25.0698413 12.047619 24.4761905 12.0355556 24.1650794 13.907619 24.1587302 13.9473016 24.1587302 13.9825397 24.1650794 14.0133333 24.1746032 14.0415873 24.1873016 14.0650794 24.2031746 14.0885714 24.2253968 14.1073016 24.247619 14.1209524 24.2761905 14.1355556 24.3047619 14.1469841 24.3365079 14.1565079 24.3714286 14.1615873 24.4095238 14.1685714 24.4444444 14.1704762 24.4857143 14.1730159 24.6 14.1730159 24.6666667 14.1685714 24.7269841 14.1590476 24.7809524 14.1469841 24.8190476 14.1355556 24.8507937 14.1234921 24.8698413 14.1139683 24.8761905 14.1120635 24.7809524 14.7530159 24.7555556 14.7673016 24.7301587 14.7790476 24.7047619 14.7907937 24.6793651 14.8025397 24.6539683 14.811746 24.6222222 14.8212698 24.5968254 14.8304762 24.5619048 14.84 24.5301587 14.8492063 24.4952381 14.8565079 24.4539683 14.8634921 24.4126984 14.8701587 24.368254 14.8774603 24.3206349 14.8844444 24.2666667 14.891746 24.2095238 14.8990476 23.9587302 14.8990476 23.8222222 14.8892063 23.7047619 14.8755556 23.5968254 14.8565079 23.5079365 14.8304762 23.4285714 14.8025397 23.3619048 14.7673016 23.3079365 14.727619 23.2634921 14.6825397 23.2285714 14.6330159 23.2031746 14.5790476 23.1873016 14.5203175 23.1777778 14.4549206 23.1746032 14.3869841 23.1777778 14.311746 23.184127 14.2339683 23.1968254 14.1492063 23.8222222 10.4761905"></polyline>
            <polyline id="Stroke-445" stroke="#FFFFFF" stroke-width="0.215" points="23.8222222 10.4761905 24.768254 10.4761905 24.6222222 11.2987302 25.2031746 11.2987302 25.0698413 12.047619 24.4761905 12.0355556 24.1650794 13.907619 24.1587302 13.9473016 24.1587302 13.9825397 24.1650794 14.0133333 24.1746032 14.0415873 24.1873016 14.0650794 24.2031746 14.0885714 24.2253968 14.1073016 24.247619 14.1209524 24.2761905 14.1355556 24.3047619 14.1469841 24.3365079 14.1565079 24.3714286 14.1615873 24.4095238 14.1685714 24.4444444 14.1704762 24.4857143 14.1730159 24.6 14.1730159 24.6666667 14.1685714 24.7269841 14.1590476 24.7809524 14.1469841 24.8190476 14.1355556 24.8507937 14.1234921 24.8698413 14.1139683 24.8761905 14.1120635 24.7809524 14.7530159 24.7555556 14.7673016 24.7301587 14.7790476 24.7047619 14.7907937 24.6793651 14.8025397 24.6539683 14.811746 24.6222222 14.8212698 24.5968254 14.8304762 24.5619048 14.84 24.5301587 14.8492063 24.4952381 14.8565079 24.4539683 14.8634921 24.4126984 14.8701587 24.368254 14.8774603 24.3206349 14.8844444 24.2666667 14.891746 24.2095238 14.8990476 23.9587302 14.8990476 23.8222222 14.8892063 23.7047619 14.8755556 23.5968254 14.8565079 23.5079365 14.8304762 23.4285714 14.8025397 23.3619048 14.7673016 23.3079365 14.727619 23.2634921 14.6825397 23.2285714 14.6330159 23.2031746 14.5790476 23.1873016 14.5203175 23.1777778 14.4549206 23.1746032 14.3869841 23.1777778 14.311746 23.184127 14.2339683 23.1968254 14.1492063 23.8222222 10.4761905"></polyline>
            <polyline id="Fill-446" fill="#FFFFFF" points="18.1365079 13.2130159 18.1269841 13.2720635 18.1238095 13.3307937 18.1269841 13.3939683 18.1428571 13.4552381 18.1619048 13.5187302 18.1904762 13.5819048 18.2222222 13.6428571 18.2634921 13.7015873 18.3047619 13.7580952 18.3587302 13.812381 18.4126984 13.8593651 18.4698413 13.9038095 18.5333333 13.9412698 18.6 13.9720635 18.6698413 13.9952381 18.7396825 14.011746 18.8253968 14.0234921 18.9111111 14.0349206 18.9968254 14.0447619 19.0825397 14.0492063 19.1746032 14.0514286 19.2603175 14.0514286 19.352381 14.0473016 19.4412698 14.0396825 19.5333333 14.0260317 19.6253968 14.0092063 19.7206349 13.9857143 19.8126984 13.9555556 19.9079365 13.92 20.0063492 13.8780952 20.1015873 13.8263492 20.2031746 13.7698413 20.0571429 14.6038095 20.0031746 14.631746 19.9492063 14.6574603 19.8984127 14.6790476 19.847619 14.6974603 19.7936508 14.7161905 19.7428571 14.7301587 19.6888889 14.7422222 19.631746 14.7539683 19.5714286 14.7612698 19.5047619 14.7679365 19.431746 14.7749206 19.3555556 14.7774603 19.2698413 14.7822222 19.1746032 14.7822222 19.0730159 14.7847619 18.8761905 14.7847619 18.7936508 14.7796825 18.7111111 14.7749206 18.6253968 14.7657143 18.5396825 14.7539683 18.4539683 14.7396825 18.3714286 14.7212698 18.2857143 14.7022222 18.2031746 14.6765079 18.1206349 14.6504762 18.0412698 14.62 17.9619048 14.5850794 17.8825397 14.5447619 17.8095238 14.5025397 17.7365079 14.4555556 17.6666667 14.404127 17.6031746 14.347619 17.5396825 14.2866667 17.4761905 14.2206349 17.4222222 14.1501587 17.3714286 14.0726984 17.3238095 13.9930159 17.2825397 13.9063492 17.2444444 13.8142857 17.2126984 13.7161905 17.1873016 13.612381 17.1650794 13.5044444 17.152381 13.3869841 17.1428571 13.2647619 17.1428571 13.1380952 17.1460317 13.0022222 17.1587302 12.8606349 17.1650794 12.811746 17.1714286 12.7552381 17.1809524 12.6987302 17.1936508 12.6380952 17.2063492 12.5742857 17.2222222 12.5085714 17.2412698 12.4406349 17.2603175 12.3701587 17.2825397 12.2971429 17.3079365 12.2266667 17.3714286 12.0812698 17.4095238 12.008254 17.4507937 11.9355556 17.4952381 11.8631746 17.5396825 11.792381 17.5936508 11.7244444 17.6507937 11.6561905 17.7111111 11.5901587 17.8507937 11.468254 17.9301587 11.4120635 18.0095238 11.36 18.0984127 11.3107937 18.1936508 11.2685714 18.2952381 11.2285714 18.4 11.1933333 18.5142857 11.1650794 18.631746 11.1419048 18.7587302 11.1253968 18.8920635 11.115873 19.031746 11.1111111 19.0984127 11.1111111 19.1650794 11.115873 19.231746 11.1206349 19.3015873 11.127619 19.368254 11.1371429 19.4380952 11.1511111 19.5079365 11.1673016 19.5746032 11.1863492 19.6444444 11.2073016 19.7111111 11.2333333 19.7777778 11.2612698 19.8412698 11.2946032 19.9015873 11.3320635 19.9619048 11.371746 20.0190476 11.4190476 20.0761905 11.468254 20.1269841 11.5222222 20.1746032 11.5812698 20.2190476 11.6466667 20.2603175 11.7149206 20.2984127 11.7898413 20.3301587 11.8695238 20.3587302 11.9568254 20.3809524 12.0485714 20.4 12.1473016 20.4095238 12.2498413 20.415873 12.3606349 20.415873 12.4780952 20.4095238 12.6025397 20.3968254 12.7339683 20.3746032 12.8726984 20.3460317 13.0184127 20.3111111 13.2250794 17.8698413 13.2250794 18.015873 12.5720635 19.4793651 12.5720635 19.4857143 12.4828571 19.4857143 12.4006349 19.4793651 12.3231746 19.4666667 12.252381 19.447619 12.1895238 19.4253968 12.1304762 19.3936508 12.0787302 19.3587302 12.031746 19.3174603 11.9895238 19.2730159 11.9546032 19.2253968 11.9263492 19.1777778 11.9025397 19.1238095 11.8838095 19.0666667 11.8695238 19.0095238 11.8631746 18.9492063 11.8603175 18.8825397 11.8603175 18.8222222 11.8695238 18.7587302 11.8812698 18.7015873 11.9003175 18.647619 11.9263492 18.5968254 11.9568254 18.5492063 11.991746 18.5047619 12.031746 18.4603175 12.0787302 18.3873016 12.1822222 18.3555556 12.2409524 18.3269841 12.3019048 18.3047619 12.367619 18.2857143 12.4384127 18.2698413 12.5111111 18.1365079 13.2130159"></polyline>
            <polyline id="Stroke-447" stroke="#FFFFFF" stroke-width="0.215" points="18.1365079 13.2130159 18.1365079 13.2130159 18.1269841 13.2720635 18.1238095 13.3307937 18.1269841 13.3939683 18.1428571 13.4552381 18.1619048 13.5187302 18.1904762 13.5819048 18.2222222 13.6428571 18.2634921 13.7015873 18.3047619 13.7580952 18.3587302 13.812381 18.4126984 13.8593651 18.4698413 13.9038095 18.5333333 13.9412698 18.6 13.9720635 18.6698413 13.9952381 18.7396825 14.011746 18.8253968 14.0234921 18.9111111 14.0349206 18.9968254 14.0447619 19.0825397 14.0492063 19.1746032 14.0514286 19.2603175 14.0514286 19.352381 14.0473016 19.4412698 14.0396825 19.5333333 14.0260317 19.6253968 14.0092063 19.7206349 13.9857143 19.8126984 13.9555556 19.9079365 13.92 20.0063492 13.8780952 20.1015873 13.8263492 20.2031746 13.7698413 20.0571429 14.6038095 20.0031746 14.631746 19.9492063 14.6574603 19.8984127 14.6790476 19.847619 14.6974603 19.7936508 14.7161905 19.7428571 14.7301587 19.6888889 14.7422222 19.631746 14.7539683 19.5714286 14.7612698 19.5047619 14.7679365 19.431746 14.7749206 19.3555556 14.7774603 19.2698413 14.7822222 19.1746032 14.7822222 19.0730159 14.7847619 18.8761905 14.7847619 18.7936508 14.7796825 18.7111111 14.7749206 18.6253968 14.7657143 18.5396825 14.7539683 18.4539683 14.7396825 18.3714286 14.7212698 18.2857143 14.7022222 18.2031746 14.6765079 18.1206349 14.6504762 18.0412698 14.62 17.9619048 14.5850794 17.8825397 14.5447619 17.8095238 14.5025397 17.7365079 14.4555556 17.6666667 14.404127 17.6031746 14.347619 17.5396825 14.2866667 17.4761905 14.2206349 17.4222222 14.1501587 17.3714286 14.0726984 17.3238095 13.9930159 17.2825397 13.9063492 17.2444444 13.8142857 17.2126984 13.7161905 17.1873016 13.612381 17.1650794 13.5044444 17.152381 13.3869841 17.1428571 13.2647619 17.1428571 13.1380952 17.1460317 13.0022222 17.1587302 12.8606349 17.1650794 12.811746 17.1714286 12.7552381 17.1809524 12.6987302 17.1936508 12.6380952 17.2063492 12.5742857 17.2222222 12.5085714 17.2412698 12.4406349 17.2603175 12.3701587 17.2825397 12.2971429 17.3079365 12.2266667 17.3714286 12.0812698 17.4095238 12.008254 17.4507937 11.9355556 17.4952381 11.8631746 17.5396825 11.792381 17.5936508 11.7244444 17.6507937 11.6561905 17.7111111 11.5901587 17.8507937 11.468254 17.9301587 11.4120635 18.0095238 11.36 18.0984127 11.3107937 18.1936508 11.2685714 18.2952381 11.2285714 18.4 11.1933333 18.5142857 11.1650794 18.631746 11.1419048 18.7587302 11.1253968 18.8920635 11.115873 19.031746 11.1111111 19.0984127 11.1111111 19.1650794 11.115873 19.231746 11.1206349 19.3015873 11.127619 19.368254 11.1371429 19.4380952 11.1511111 19.5079365 11.1673016 19.5746032 11.1863492 19.6444444 11.2073016 19.7111111 11.2333333 19.7777778 11.2612698 19.8412698 11.2946032 19.9015873 11.3320635 19.9619048 11.371746 20.0190476 11.4190476 20.0761905 11.468254 20.1269841 11.5222222 20.1746032 11.5812698 20.2190476 11.6466667 20.2603175 11.7149206 20.2984127 11.7898413 20.3301587 11.8695238 20.3587302 11.9568254 20.3809524 12.0485714 20.4 12.1473016 20.4095238 12.2498413 20.415873 12.3606349 20.415873 12.4780952 20.4095238 12.6025397 20.3968254 12.7339683 20.3746032 12.8726984 20.3460317 13.0184127 20.3111111 13.2250794 17.8698413 13.2250794 18.015873 12.5720635 19.4793651 12.5720635 19.4857143 12.4828571 19.4857143 12.4006349 19.4793651 12.3231746 19.4666667 12.252381 19.447619 12.1895238 19.4253968 12.1304762 19.3936508 12.0787302 19.3587302 12.031746 19.3174603 11.9895238 19.2730159 11.9546032 19.2253968 11.9263492 19.1777778 11.9025397 19.1238095 11.8838095 19.0666667 11.8695238 19.0095238 11.8631746 18.9492063 11.8603175 18.8825397 11.8603175 18.8222222 11.8695238 18.7587302 11.8812698 18.7015873 11.9003175 18.647619 11.9263492 18.5968254 11.9568254 18.5492063 11.991746 18.5047619 12.031746 18.4603175 12.0787302 18.3873016 12.1822222 18.3555556 12.2409524 18.3269841 12.3019048 18.3047619 12.367619 18.2857143 12.4384127 18.2698413 12.5111111 18.1365079 13.2130159"></polyline>
            <polyline id="Fill-448" fill="#FFFFFF" points="16.7111111 14.015873 16.5777778 14.7657143 15.7301587 14.7657143 15.7396825 14.6949206 15.7460317 14.6244444 15.7587302 14.5612698 15.768254 14.5022222 15.7746032 14.4526984 15.784127 14.4107937 15.7936508 14.3825397 15.8031746 14.3663492 15.7587302 14.4177778 15.7015873 14.4692063 15.6380952 14.5190476 15.5650794 14.5660317 15.4888889 14.6104762 15.4031746 14.6526984 15.3142857 14.6904762 15.2222222 14.7253968 15.1269841 14.755873 15.0285714 14.7822222 14.9269841 14.8003175 14.8285714 14.8146032 14.7301587 14.8219048 14.6349206 14.824127 14.5396825 14.8174603 14.447619 14.8028571 14.3301587 14.7749206 14.2253968 14.7368254 14.1269841 14.692381 14.0444444 14.6431746 13.968254 14.5892063 13.9047619 14.528254 13.847619 14.4647619 13.8 14.3946032 13.7619048 14.324127 13.7269841 14.2507937 13.7015873 14.1755556 13.6825397 14.0984127 13.6666667 14.0231746 13.6571429 13.9457143 13.6539683 13.8704762 13.6507937 13.7977778 13.6603175 13.6663492 13.6825397 13.5419048 13.7111111 13.4215873 13.7555556 13.3092063 13.8095238 13.2038095 13.8698413 13.1050794 13.9460317 13.0133333 14.0222222 12.9263492 14.1079365 12.8488889 14.2 12.7809524 14.2984127 12.7177778 14.4031746 12.6631746 14.5111111 12.6165079 14.6222222 12.5787302 14.7333333 12.5507937 14.847619 12.5295238 14.8539683 12.5295238 14.8698413 12.5273016 14.8952381 12.5244444 14.9301587 12.52 14.9714286 12.5152381 15.015873 12.5107937 15.0698413 12.5034921 15.1269841 12.4993651 15.1809524 12.4942857 15.2380952 12.4873016 15.2952381 12.4822222 15.352381 12.4777778 15.4031746 12.4730159 15.4539683 12.4707937 15.4984127 12.4685714 15.6571429 12.4685714 15.6984127 12.4707937 15.7396825 12.4707937 15.7746032 12.4730159 15.8507937 12.4730159 15.8825397 12.4755556 15.9142857 12.4755556 15.9396825 12.4777778 15.9650794 12.4777778 15.984127 12.4803175 16.0095238 12.4803175 16.015873 12.4568254 16.031746 12.4006349 16.0444444 12.3342857 16.0444444 12.2761905 16.0380952 12.2333333 16.031746 12.1936508 16.0190476 12.155873 16.0031746 12.1209524 15.984127 12.0879365 15.9619048 12.0577778 15.9365079 12.0295238 15.9111111 12.0009524 15.8793651 11.9777778 15.847619 11.9587302 15.8126984 11.94 15.7777778 11.9234921 15.7428571 11.9120635 15.7015873 11.9022222 15.6603175 11.895873 15.6222222 11.8907937 15.5238095 11.888254 15.4253968 11.8907937 15.3174603 11.8930159 15.2095238 11.9 15.1015873 11.9073016 14.9936508 11.9165079 14.8857143 11.9285714 14.7809524 11.94 14.6793651 11.9561905 14.584127 11.9704762 14.4952381 11.9869841 14.4126984 12.0057143 14.3428571 12.0244444 14.2793651 12.0431746 14.231746 12.0622222 14.1968254 12.0831746 14.4380952 11.2847619 14.5079365 11.2520635 14.584127 11.2215873 14.6571429 11.1955556 14.7396825 11.1742857 14.8190476 11.1577778 14.9047619 11.1438095 14.9936508 11.1320635 15.0857143 11.1228571 15.1809524 11.1180952 15.2761905 11.1133333 15.3746032 11.1111111 15.6952381 11.1111111 15.8063492 11.1133333 15.9238095 11.115873 16.0190476 11.1250794 16.1206349 11.1390476 16.2253968 11.1653968 16.3333333 11.1955556 16.4380952 11.2352381 16.5428571 11.2847619 16.6444444 11.3409524 16.7365079 11.4069841 16.8253968 11.4819048 16.9015873 11.564127 16.968254 11.655873 17.0190476 11.7565079 17.0571429 11.8673016 17.0761905 11.9869841 17.0793651 12.1136508 17.0603175 12.252381 16.7111111 14.015873"></polyline>
            <polyline id="Stroke-449" stroke="#FFFFFF" stroke-width="0.215" points="16.7111111 14.015873 16.5777778 14.7657143 15.7301587 14.7657143 15.7396825 14.6949206 15.7460317 14.6244444 15.7587302 14.5612698 15.768254 14.5022222 15.7746032 14.4526984 15.784127 14.4107937 15.7936508 14.3825397 15.8031746 14.3663492 15.7587302 14.4177778 15.7015873 14.4692063 15.6380952 14.5190476 15.5650794 14.5660317 15.4888889 14.6104762 15.4031746 14.6526984 15.3142857 14.6904762 15.2222222 14.7253968 15.1269841 14.755873 15.0285714 14.7822222 14.9269841 14.8003175 14.8285714 14.8146032 14.7301587 14.8219048 14.6349206 14.824127 14.5396825 14.8174603 14.447619 14.8028571 14.3301587 14.7749206 14.2253968 14.7368254 14.1269841 14.692381 14.0444444 14.6431746 13.968254 14.5892063 13.9047619 14.528254 13.847619 14.4647619 13.8 14.3946032 13.7619048 14.324127 13.7269841 14.2507937 13.7015873 14.1755556 13.6825397 14.0984127 13.6666667 14.0231746 13.6571429 13.9457143 13.6539683 13.8704762 13.6507937 13.7977778 13.6603175 13.6663492 13.6825397 13.5419048 13.7111111 13.4215873 13.7555556 13.3092063 13.8095238 13.2038095 13.8698413 13.1050794 13.9460317 13.0133333 14.0222222 12.9263492 14.1079365 12.8488889 14.2 12.7809524 14.2984127 12.7177778 14.4031746 12.6631746 14.5111111 12.6165079 14.6222222 12.5787302 14.7333333 12.5507937 14.847619 12.5295238 14.8539683 12.5295238 14.8698413 12.5273016 14.8952381 12.5244444 14.9301587 12.52 14.9714286 12.5152381 15.015873 12.5107937 15.0698413 12.5034921 15.1269841 12.4993651 15.1809524 12.4942857 15.2380952 12.4873016 15.2952381 12.4822222 15.352381 12.4777778 15.4031746 12.4730159 15.4539683 12.4707937 15.4984127 12.4685714 15.6571429 12.4685714 15.6984127 12.4707937 15.7396825 12.4707937 15.7746032 12.4730159 15.8507937 12.4730159 15.8825397 12.4755556 15.9142857 12.4755556 15.9396825 12.4777778 15.9650794 12.4777778 15.984127 12.4803175 16.0095238 12.4803175 16.015873 12.4568254 16.031746 12.4006349 16.0444444 12.3342857 16.0444444 12.2761905 16.0380952 12.2333333 16.031746 12.1936508 16.0190476 12.155873 16.0031746 12.1209524 15.984127 12.0879365 15.9619048 12.0577778 15.9365079 12.0295238 15.9111111 12.0009524 15.8793651 11.9777778 15.847619 11.9587302 15.8126984 11.94 15.7777778 11.9234921 15.7428571 11.9120635 15.7015873 11.9022222 15.6603175 11.895873 15.6222222 11.8907937 15.5238095 11.888254 15.4253968 11.8907937 15.3174603 11.8930159 15.2095238 11.9 15.1015873 11.9073016 14.9936508 11.9165079 14.8857143 11.9285714 14.7809524 11.94 14.6793651 11.9561905 14.584127 11.9704762 14.4952381 11.9869841 14.4126984 12.0057143 14.3428571 12.0244444 14.2793651 12.0431746 14.231746 12.0622222 14.1968254 12.0831746 14.4380952 11.2847619 14.5079365 11.2520635 14.584127 11.2215873 14.6571429 11.1955556 14.7396825 11.1742857 14.8190476 11.1577778 14.9047619 11.1438095 14.9936508 11.1320635 15.0857143 11.1228571 15.1809524 11.1180952 15.2761905 11.1133333 15.3746032 11.1111111 15.6952381 11.1111111 15.8063492 11.1133333 15.9238095 11.115873 16.0190476 11.1250794 16.1206349 11.1390476 16.2253968 11.1653968 16.3333333 11.1955556 16.4380952 11.2352381 16.5428571 11.2847619 16.6444444 11.3409524 16.7365079 11.4069841 16.8253968 11.4819048 16.9015873 11.564127 16.968254 11.655873 17.0190476 11.7565079 17.0571429 11.8673016 17.0761905 11.9869841 17.0793651 12.1136508 17.0603175 12.252381 16.7111111 14.015873"></polyline>
            <polyline id="Fill-450" fill="#0084C4" points="15.8063492 13.0746032 15.8031746 13.055873 15.7873016 13.0415873 15.7650794 13.0301587 15.7365079 13.0231746 15.6952381 13.0184127 15.6507937 13.015873 15.552381 13.015873 15.4984127 13.0206349 15.4412698 13.027619 15.3873016 13.0346032 15.3333333 13.0444444 15.2825397 13.0533333 15.231746 13.0628571 15.1904762 13.0746032 15.152381 13.0863492 15.1301587 13.0911111 15.1015873 13.1003175 15.0698413 13.112381 15.031746 13.1285714 14.9904762 13.1453968 14.9460317 13.1663492 14.9015873 13.1920635 14.8571429 13.2180952 14.8126984 13.2507937 14.768254 13.2863492 14.7301587 13.3234921 14.6952381 13.3663492 14.6603175 13.4104762 14.6380952 13.4603175 14.6190476 13.5139683 14.6063492 13.5701587 14.6031746 13.6853968 14.6190476 13.7746032 14.647619 13.8450794 14.6888889 13.8968254 14.7428571 13.931746 14.7968254 13.9552381 14.8539683 13.9673016 14.9111111 13.9698413 15.015873 13.9673016 15.1047619 13.9574603 15.1936508 13.9412698 15.2698413 13.9203175 15.3396825 13.8968254 15.4031746 13.8685714 15.4603175 13.835873 15.5079365 13.8006349 15.552381 13.7653968 15.5936508 13.7253968 15.6253968 13.687619 15.6507937 13.6479365 15.6761905 13.6079365 15.6952381 13.5701587 15.7079365 13.5330159 15.7206349 13.4974603 15.7333333 13.4457143 15.7428571 13.3914286 15.7555556 13.3352381 15.768254 13.2765079 15.7777778 13.2203175 15.7873016 13.1685714 15.7968254 13.1193651 15.8063492 13.0746032"></polyline>
            <polyline id="Fill-451" fill="#FFFFFF" points="9.48888889 14.8990476 8.57142857 14.8990476 9.34285714 10.4761905 10.9396825 10.4761905 11.0984127 13.1092063 12.184127 10.4761905 13.8444444 10.4761905 13.0698413 14.8990476 12.1492063 14.8990476 12.7301587 11.5869841 12.6952381 11.5869841 11.3269841 14.8990476 10.2984127 14.8990476 10.2920635 14.76 10.2698413 14.3914286 10.2380952 13.8698413 10.2031746 13.2714286 10.168254 12.6673016 10.1365079 12.1342857 10.1174603 11.7492063 10.1079365 11.5869841 10.0603175 11.5869841 10.0698413 11.5869841 9.48888889 14.8990476"></polyline>
            <polyline id="Stroke-452" stroke="#FFFFFF" stroke-width="0.215" points="9.48888889 14.8990476 8.57142857 14.8990476 9.34285714 10.4761905 10.9396825 10.4761905 11.0984127 13.1092063 12.184127 10.4761905 13.8444444 10.4761905 13.0698413 14.8990476 12.1492063 14.8990476 12.7301587 11.5869841 12.6952381 11.5869841 11.3269841 14.8990476 10.2984127 14.8990476 10.2920635 14.76 10.2698413 14.3914286 10.2380952 13.8698413 10.2031746 13.2714286 10.168254 12.6673016 10.1365079 12.1342857 10.1174603 11.7492063 10.1079365 11.5869841 10.0603175 11.5869841 10.0698413 11.5869841 9.48888889 14.8990476"></polyline>
            <polyline id="Fill-453" fill="#FFFFFF" points="25.0793651 14.7609524 26.0349206 14.7609524 26.3619048 12.8514286 26.3777778 12.7761905 26.3936508 12.7031746 26.4126984 12.6304762 26.4349206 12.5625397 26.4603175 12.4946032 26.4952381 12.4307937 26.5333333 12.3698413 26.5777778 12.3114286 26.631746 12.2590476 26.6952381 12.2120635 26.7650794 12.1701587 26.847619 12.132381 26.9428571 12.1019048 27.047619 12.0784127 27.1650794 12.0644444 27.2952381 12.0549206 27.3079365 12.0549206 27.3206349 12.0574603 27.3396825 12.0596825 27.3587302 12.0596825 27.3746032 12.0619048 27.3904762 12.0644444 27.3968254 12.0666667 27.4031746 12.0666667 27.4063492 12.0530159 27.415873 12.0126984 27.4253968 11.9514286 27.4444444 11.8742857 27.4698413 11.787619 27.4952381 11.6933333 27.5269841 11.5993651 27.5619048 11.5104762 27.5873016 11.4444444 27.615873 11.3809524 27.647619 11.3177778 27.6793651 11.2590476 27.7079365 11.2095238 27.7333333 11.1695238 27.7492063 11.1434921 27.752381 11.1342857 27.7492063 11.1342857 27.7365079 11.1295238 27.7206349 11.1273016 27.6952381 11.1225397 27.6730159 11.1180952 27.6444444 11.1155556 27.6190476 11.1111111 27.5968254 11.1111111 27.4920635 11.1180952 27.3968254 11.1295238 27.3111111 11.1485714 27.231746 11.1695238 27.1555556 11.1974603 27.0888889 11.228254 27.0222222 11.2657143 26.9650794 11.3060317 26.9047619 11.3507937 26.8507937 11.3996825 26.8031746 11.4514286 26.7492063 11.507619 26.7015873 11.5663492 26.6539683 11.6301587 26.6031746 11.695873 26.5555556 11.7638095 26.6666667 11.1606349 25.7111111 11.1485714 25.0793651 14.7609524"></polyline>
            <polyline id="Stroke-454" stroke="#FFFFFF" stroke-width="0.215" points="25.0793651 14.7609524 26.0349206 14.7609524 26.3619048 12.8514286 26.3777778 12.7761905 26.3936508 12.7031746 26.4126984 12.6304762 26.4349206 12.5625397 26.4603175 12.4946032 26.4952381 12.4307937 26.5333333 12.3698413 26.5777778 12.3114286 26.631746 12.2590476 26.6952381 12.2120635 26.7650794 12.1701587 26.847619 12.132381 26.9428571 12.1019048 27.047619 12.0784127 27.1650794 12.0644444 27.2952381 12.0549206 27.3079365 12.0549206 27.3206349 12.0574603 27.3396825 12.0596825 27.3587302 12.0596825 27.3746032 12.0619048 27.3904762 12.0644444 27.3968254 12.0666667 27.4031746 12.0666667 27.4063492 12.0530159 27.415873 12.0126984 27.4253968 11.9514286 27.4444444 11.8742857 27.4698413 11.787619 27.4952381 11.6933333 27.5269841 11.5993651 27.5619048 11.5104762 27.5873016 11.4444444 27.615873 11.3809524 27.647619 11.3177778 27.6793651 11.2590476 27.7079365 11.2095238 27.7333333 11.1695238 27.7492063 11.1434921 27.752381 11.1342857 27.7492063 11.1342857 27.7365079 11.1295238 27.7206349 11.1273016 27.6952381 11.1225397 27.6730159 11.1180952 27.6444444 11.1155556 27.6190476 11.1111111 27.5968254 11.1111111 27.4920635 11.1180952 27.3968254 11.1295238 27.3111111 11.1485714 27.231746 11.1695238 27.1555556 11.1974603 27.0888889 11.228254 27.0222222 11.2657143 26.9650794 11.3060317 26.9047619 11.3507937 26.8507937 11.3996825 26.8031746 11.4514286 26.7492063 11.507619 26.7015873 11.5663492 26.6539683 11.6301587 26.6031746 11.695873 26.5555556 11.7638095 26.6666667 11.1606349 25.7111111 11.1485714 25.0793651 14.7609524"></polyline>
            <polyline id="Fill-455" fill="#FFFFFF" points="29.2380952 11.1111111 29.3460317 11.1133333 29.447619 11.1203175 29.5492063 11.1295238 29.647619 11.1434921 29.7428571 11.1625397 29.831746 11.1860317 29.9206349 11.2120635 30.0063492 11.2422222 30.0888889 11.2774603 30.1650794 11.3152381 30.2444444 11.3552381 30.3142857 11.3996825 30.384127 11.4488889 30.4507937 11.5006349 30.5111111 11.5549206 30.5714286 11.6136508 30.6253968 11.6746032 30.6793651 11.7403175 30.7238095 11.8063492 30.768254 11.8765079 30.8126984 11.9492063 30.847619 12.0269841 30.8825397 12.1044444 30.9111111 12.1863492 30.9365079 12.2688889 30.9587302 12.355873 30.9777778 12.4450794 30.9904762 12.5365079 31 12.6279365 31.0031746 12.7244444 31.0063492 12.8231746 31.0031746 12.9215873 30.9968254 13.0415873 30.984127 13.1568254 30.968254 13.2669841 30.9460317 13.3749206 30.9238095 13.4784127 30.8920635 13.5768254 30.8571429 13.6733333 30.8253968 13.7644444 30.7809524 13.851746 30.7396825 13.9361905 30.6888889 14.015873 30.6412698 14.0911111 30.5873016 14.164127 30.5269841 14.2320635 30.4666667 14.2955556 30.4031746 14.3568254 30.3365079 14.4130159 30.2698413 14.4673016 30.1968254 14.5161905 30.1238095 14.5612698 30.047619 14.6031746 29.9650794 14.6409524 29.8857143 14.6761905 29.8031746 14.7063492 29.7174603 14.7346032 29.6285714 14.7584127 29.5396825 14.7774603 29.4507937 14.7936508 29.3555556 14.8053968 29.2634921 14.8146032 29.1650794 14.8193651 29.0698413 14.8215873 28.9746032 14.8193651 28.8761905 14.8146032 28.7873016 14.8053968 28.6952381 14.7911111 28.6063492 14.7746032 28.5142857 14.755873 28.431746 14.7320635 28.3492063 14.7044444 28.2666667 14.6736508 28.1873016 14.6384127 28.1142857 14.6009524 28.0412698 14.5587302 27.9714286 14.5142857 27.9047619 14.4644444 27.8380952 14.4130159 27.7777778 14.3568254 27.7206349 14.2977778 27.6666667 14.2346032 27.615873 14.1688889 27.5650794 14.0984127 27.5238095 14.0253968 27.4825397 13.948254 27.447619 13.8679365 27.4126984 13.7860317 27.3873016 13.6990476 27.3587302 13.607619 27.3396825 13.5139683 27.3206349 13.4168254 27.3111111 13.3165079 27.3047619 13.2126984 27.3015873 13.1050794 27.3047619 12.9946032 27.3111111 12.8819048 27.3206349 12.7736508 27.3396825 12.6679365 27.3587302 12.5669841 27.384127 12.468254 27.4126984 12.371746 27.4412698 12.2803175 27.4761905 12.1914286 27.5142857 12.1044444 27.5555556 12.0222222 27.6031746 11.9444444 27.6539683 11.8673016 27.7047619 11.7968254 27.7619048 11.7263492 27.8190476 11.6625397 27.8825397 11.5993651 27.9460317 11.5406349 28.015873 11.4866667 28.0857143 11.4352381 28.1587302 11.388254 28.2349206 11.3457143 28.3142857 11.3038095 28.3968254 11.268254 28.4793651 11.2352381 28.568254 11.207619 28.6571429 11.1812698 28.7492063 11.1606349 28.8412698 11.1412698 28.9365079 11.1295238 29.0349206 11.1180952 29.1365079 11.1133333 29.2380952 11.1111111"></polyline>
            <polyline id="Stroke-456" stroke="#FFFFFF" stroke-width="0.215" points="29.2380952 11.1111111 29.2380952 11.1111111 29.3460317 11.1133333 29.447619 11.1203175 29.5492063 11.1295238 29.647619 11.1434921 29.7428571 11.1625397 29.831746 11.1860317 29.9206349 11.2120635 30.0063492 11.2422222 30.0888889 11.2774603 30.1650794 11.3152381 30.2444444 11.3552381 30.3142857 11.3996825 30.384127 11.4488889 30.4507937 11.5006349 30.5111111 11.5549206 30.5714286 11.6136508 30.6253968 11.6746032 30.6793651 11.7403175 30.7238095 11.8063492 30.768254 11.8765079 30.8126984 11.9492063 30.847619 12.0269841 30.8825397 12.1044444 30.9111111 12.1863492 30.9365079 12.2688889 30.9587302 12.355873 30.9777778 12.4450794 30.9904762 12.5365079 31 12.6279365 31.0031746 12.7244444 31.0063492 12.8231746 31.0031746 12.9215873 30.9968254 13.0415873 30.984127 13.1568254 30.968254 13.2669841 30.9460317 13.3749206 30.9238095 13.4784127 30.8920635 13.5768254 30.8571429 13.6733333 30.8253968 13.7644444 30.7809524 13.851746 30.7396825 13.9361905 30.6888889 14.015873 30.6412698 14.0911111 30.5873016 14.164127 30.5269841 14.2320635 30.4666667 14.2955556 30.4031746 14.3568254 30.3365079 14.4130159 30.2698413 14.4673016 30.1968254 14.5161905 30.1238095 14.5612698 30.047619 14.6031746 29.9650794 14.6409524 29.8857143 14.6761905 29.8031746 14.7063492 29.7174603 14.7346032 29.6285714 14.7584127 29.5396825 14.7774603 29.4507937 14.7936508 29.3555556 14.8053968 29.2634921 14.8146032 29.1650794 14.8193651 29.0698413 14.8215873 28.9746032 14.8193651 28.8761905 14.8146032 28.7873016 14.8053968 28.6952381 14.7911111 28.6063492 14.7746032 28.5142857 14.755873 28.431746 14.7320635 28.3492063 14.7044444 28.2666667 14.6736508 28.1873016 14.6384127 28.1142857 14.6009524 28.0412698 14.5587302 27.9714286 14.5142857 27.9047619 14.4644444 27.8380952 14.4130159 27.7777778 14.3568254 27.7206349 14.2977778 27.6666667 14.2346032 27.615873 14.1688889 27.5650794 14.0984127 27.5238095 14.0253968 27.4825397 13.948254 27.447619 13.8679365 27.4126984 13.7860317 27.3873016 13.6990476 27.3587302 13.607619 27.3396825 13.5139683 27.3206349 13.4168254 27.3111111 13.3165079 27.3047619 13.2126984 27.3015873 13.1050794 27.3047619 12.9946032 27.3111111 12.8819048 27.3206349 12.7736508 27.3396825 12.6679365 27.3587302 12.5669841 27.384127 12.468254 27.4126984 12.371746 27.4412698 12.2803175 27.4761905 12.1914286 27.5142857 12.1044444 27.5555556 12.0222222 27.6031746 11.9444444 27.6539683 11.8673016 27.7047619 11.7968254 27.7619048 11.7263492 27.8190476 11.6625397 27.8825397 11.5993651 27.9460317 11.5406349 28.015873 11.4866667 28.0857143 11.4352381 28.1587302 11.388254 28.2349206 11.3457143 28.3142857 11.3038095 28.3968254 11.268254 28.4793651 11.2352381 28.568254 11.207619 28.6571429 11.1812698 28.7492063 11.1606349 28.8412698 11.1412698 28.9365079 11.1295238 29.0349206 11.1180952 29.1365079 11.1133333 29.2380952 11.1111111"></polyline>
            <polyline id="Fill-457" fill="#FFFFFF" points="30.4761905 14.6031746 30.9111905 14.6031746 30.9111905 14.6581746 30.7411905 14.6581746 30.7411905 15.0206746 30.6461905 15.0206746 30.6461905 14.6581746 30.4761905 14.6581746 30.4761905 14.6031746"></polyline>
            <polyline id="Stroke-458" stroke="#FFFFFF" stroke-width="0.215" points="30.4761905 14.6031746 30.9111905 14.6031746 30.9111905 14.6581746 30.7411905 14.6581746 30.7411905 15.0206746 30.6461905 15.0206746 30.6461905 14.6581746 30.4761905 14.6581746 30.4761905 14.6031746"></polyline>
            <polyline id="Fill-459" fill="#FFFFFF" points="30.7936508 14.6031746 30.9110421 14.6031746 31.0458247 14.9246746 31.1762595 14.6031746 31.2936508 14.6031746 31.2936508 15.0206746 31.2066943 15.0206746 31.2066943 14.6991746 31.0762595 15.0206746 31.0110421 15.0206746 30.8762595 14.6991746 30.8762595 15.0206746 30.7936508 15.0206746 30.7936508 14.6031746"></polyline>
            <polyline id="Stroke-460" stroke="#FFFFFF" stroke-width="0.215" points="30.7936508 14.6031746 30.9110421 14.6031746 31.0458247 14.9246746 31.1762595 14.6031746 31.2936508 14.6031746 31.2936508 15.0206746 31.2066943 15.0206746 31.2066943 14.6991746 31.0762595 15.0206746 31.0110421 15.0206746 30.8762595 14.6991746 30.8762595 15.0206746 30.7936508 15.0206746 30.7936508 14.6031746"></polyline>
            <polyline id="Fill-461" fill="#EC1C2E" points="28.2761905 12.9907937 28.2634921 13.1225397 28.2539683 13.2447619 28.2539683 13.3552381 28.2634921 13.4584127 28.2761905 13.552381 28.2984127 13.6346032 28.3238095 13.7098413 28.3555556 13.7777778 28.3968254 13.8361905 28.4412698 13.8857143 28.4888889 13.9279365 28.5460317 13.9612698 28.6031746 13.9866667 28.6698413 14.0057143 28.7365079 14.0149206 28.8095238 14.0196825 28.8888889 14.0174603 28.968254 14.008254 29.0412698 13.9914286 29.1111111 13.9660317 29.1777778 13.9330159 29.2412698 13.8907937 29.2984127 13.8409524 29.3555556 13.7822222 29.4031746 13.7168254 29.4507937 13.6412698 29.4952381 13.5568254 29.5333333 13.4653968 29.568254 13.3647619 29.6 13.2542857 29.6222222 13.1342857 29.6444444 13.0053968 29.6571429 12.904127 29.6634921 12.8079365 29.6634921 12.7139683 29.6571429 12.6247619 29.6444444 12.5425397 29.6253968 12.4625397 29.6 12.3898413 29.568254 12.3219048 29.5301587 12.2606349 29.4888889 12.2088889 29.4380952 12.1619048 29.384127 12.1244444 29.3238095 12.0936508 29.2571429 12.0749206 29.1873016 12.0634921 29.1111111 12.0634921 29.0126984 12.0704762 28.9238095 12.0869841 28.8412698 12.1149206 28.7650794 12.1501587 28.6952381 12.1971429 28.6285714 12.2488889 28.5714286 12.3073016 28.5174603 12.3736508 28.4698413 12.4438095 28.4253968 12.5190476 28.3904762 12.5939683 28.3587302 12.6736508 28.3301587 12.7536508 28.3079365 12.8336508 28.2920635 12.9136508 28.2761905 12.9907937"></polyline>
        </g>
    </g>
</svg>