<?xml version="1.0" encoding="UTF-8" standalone="no"?>
<svg width="40px" height="25px" viewBox="0 0 40 25" version="1.1" xmlns="http://www.w3.org/2000/svg" xmlns:xlink="http://www.w3.org/1999/xlink">
    <!-- Generator: Sketch 3.7.1 (28215) - http://www.bohemiancoding.com/sketch -->
    <title>Group 3</title>
    <desc>Created with Sketch.</desc>
    <defs></defs>
    <g id="Page-1" stroke="none" stroke-width="1" fill="none" fill-rule="evenodd">
        <g id="Group-3">
            <path d="M39.8187302,23.5596825 C39.8187302,24.2930159 39.224127,24.8866667 38.4914286,24.8866667 L1.32666667,24.8866667 C0.593968254,24.8866667 0,24.2930159 0,23.5596825 L0,1.32761905 C0,0.594285714 0.593968254,0 1.32666667,0 L38.4914286,0 C39.224127,0 39.8187302,0.594285714 39.8187302,1.32761905 L39.8187302,23.5596825" id="Fill-511" fill="#13457C"></path>
            <polyline id="Fill-512" fill="#FBB231" points="24.6873016 19.5873016 25.0561905 19.5777778 25.4203175 19.5514286 25.7768254 19.5057143 26.1314286 19.4428571 26.4761905 19.3634921 26.815873 19.2669841 27.148254 19.1536508 27.4733333 19.0260317 27.7914286 18.8815873 28.1 18.7247619 28.3990476 18.5511111 28.6904762 18.3657143 28.9701587 18.1660317 29.2396825 17.9536508 29.5 17.7295238 29.748254 17.4911111 29.9869841 17.2428571 30.2107937 16.9822222 30.4234921 16.7126984 30.6231746 16.4330159 30.8085714 16.1415873 30.9819048 15.8422222 31.1384127 15.5339683 31.2828571 15.2161905 31.4104762 14.8904762 31.5238095 14.5580952 31.6206349 14.2187302 31.7 13.8739683 31.7625397 13.5196825 31.8085714 13.1628571 31.8352381 12.7990476 31.8444444 12.4304762 31.8352381 12.064127 31.8085714 11.7025397 31.7625397 11.3460317 31.7 10.9965079 31.6206349 10.6520635 31.5238095 10.3146032 31.4104762 9.98222222 31.2828571 9.65904762 31.1384127 9.34380952 30.9819048 9.03492063 30.8085714 8.73873016 30.6231746 8.44730159 30.4234921 8.16761905 30.2107937 7.9 29.9869841 7.64031746 29.748254 7.39174603 29.5 7.15555556 29.2396825 6.93142857 28.9701587 6.71936508 28.6904762 6.51936508 28.3990476 6.33365079 28.1 6.16285714 27.7914286 6.00634921 27.4733333 5.86126984 27.148254 5.73365079 26.815873 5.62063492 26.4761905 5.52412698 26.1314286 5.44444444 25.7768254 5.38222222 25.4203175 5.33619048 25.0561905 5.30952381 24.6873016 5.29968254 24.3215873 5.30952381 23.9574603 5.33619048 23.6009524 5.38222222 23.2488889 5.44444444 22.904127 5.52412698 22.5644444 5.62063492 22.2346032 5.73365079 21.9088889 5.86126984 21.5933333 6.00634921 21.287619 6.16285714 20.9888889 6.33365079 20.6993651 6.51936508 20.4203175 6.71936508 20.1498413 6.93142857 19.8920635 7.15555556 19.644127 7.39174603 19.407619 7.64031746 19.1838095 7.9 18.971746 8.16761905 18.7739683 8.44730159 18.5879365 8.73873016 18.4174603 9.03492063 18.2580952 9.34380952 18.1161905 9.65904762 17.9885714 9.98222222 17.8774603 10.3146032 17.7812698 10.6520635 17.7012698 10.9965079 17.6387302 11.3460317 17.5936508 11.7025397 17.5669841 12.064127 17.5568254 12.4304762 17.5669841 12.7990476 17.5936508 13.1628571 17.6387302 13.5196825 17.7012698 13.8739683 17.7812698 14.2187302 17.8774603 14.5580952 17.9885714 14.8904762 18.1161905 15.2161905 18.2580952 15.5339683 18.4174603 15.8422222 18.5879365 16.1415873 18.7739683 16.4330159 18.971746 16.7126984 19.1838095 16.9822222 19.407619 17.2428571 19.644127 17.4911111 19.8920635 17.7295238 20.1498413 17.9536508 20.4203175 18.1660317 20.6993651 18.3657143 20.9888889 18.5511111 21.287619 18.7247619 21.5933333 18.8815873 21.9088889 19.0260317 22.2346032 19.1536508 22.5644444 19.2669841 22.904127 19.3634921 23.2488889 19.4428571 23.6009524 19.5057143 23.9574603 19.5514286 24.3215873 19.5777778 24.6873016 19.5873016"></polyline>
            <polyline id="Fill-513" fill="#EC1C2E" points="15.1307937 19.5873016 15.4965079 19.5777778 15.8606349 19.5514286 16.2177778 19.5057143 16.5692063 19.4428571 16.9139683 19.3634921 17.2530159 19.2669841 17.5834921 19.1536508 17.9092063 19.0260317 18.2247619 18.8815873 18.5311111 18.7247619 18.8292063 18.5511111 19.1187302 18.3657143 19.3984127 18.1660317 19.668254 17.9536508 19.9260317 17.7295238 20.1742857 17.4911111 20.4104762 17.2428571 20.6349206 16.9822222 20.8463492 16.7126984 21.044127 16.4330159 21.2295238 16.1415873 21.4006349 15.8422222 21.56 15.5339683 21.7019048 15.2161905 21.8295238 14.8904762 21.9406349 14.5580952 22.0368254 14.2187302 22.1168254 13.8739683 22.1787302 13.5196825 22.2250794 13.1628571 22.2511111 12.7990476 22.2606349 12.4304762 22.2511111 12.064127 22.2250794 11.7025397 22.1787302 11.3460317 22.1168254 10.9965079 22.0368254 10.6520635 21.9406349 10.3146032 21.8295238 9.98222222 21.7019048 9.65904762 21.56 9.34380952 21.4006349 9.03492063 21.2295238 8.73873016 21.044127 8.44730159 20.8463492 8.16761905 20.6349206 7.9 20.4104762 7.64031746 20.1742857 7.39174603 19.9260317 7.15555556 19.668254 6.93142857 19.3984127 6.71936508 19.1187302 6.51936508 18.8292063 6.33365079 18.5311111 6.16285714 18.2247619 6.00634921 17.9092063 5.86126984 17.5834921 5.73365079 17.2530159 5.62063492 16.9139683 5.52412698 16.5692063 5.44444444 16.2177778 5.38222222 15.8606349 5.33619048 15.4965079 5.30952381 15.1307937 5.29968254 14.7619048 5.30952381 14.3977778 5.33619048 14.0412698 5.38222222 13.6866667 5.44444444 13.3425397 5.52412698 13.0028571 5.62063492 12.6698413 5.73365079 12.3447619 5.86126984 12.0266667 6.00634921 11.7187302 6.16285714 11.4196825 6.33365079 11.127619 6.51936508 10.848254 6.71936508 10.5784127 6.93142857 10.3180952 7.15555556 10.0698413 7.39174603 9.83111111 7.64031746 9.60730159 7.9 9.3952381 8.16761905 9.1952381 8.44730159 9.00984127 8.73873016 8.83619048 9.03492063 8.67968254 9.34380952 8.53460317 9.65904762 8.40761905 9.98222222 8.29428571 10.3146032 8.19746032 10.6520635 8.11809524 10.9965079 8.05555556 11.3460317 8.00952381 11.7025397 7.98285714 12.064127 7.97365079 12.4304762 7.98285714 12.7990476 8.00952381 13.1628571 8.05555556 13.5196825 8.11809524 13.8739683 8.19746032 14.2187302 8.29428571 14.5580952 8.40761905 14.8904762 8.53460317 15.2161905 8.67968254 15.5339683 8.83619048 15.8422222 9.00984127 16.1415873 9.1952381 16.4330159 9.3952381 16.7126984 9.60730159 16.9822222 9.83111111 17.2428571 10.0698413 17.4911111 10.3180952 17.7295238 10.5784127 17.9536508 10.848254 18.1660317 11.127619 18.3657143 11.4196825 18.5511111 11.7187302 18.7247619 12.0266667 18.8815873 12.3447619 19.0260317 12.6698413 19.1536508 13.0028571 19.2669841 13.3425397 19.3634921 13.6866667 19.4428571 14.0412698 19.5057143 14.3977778 19.5514286 14.7619048 19.5777778 15.1307937 19.5873016"></polyline>
            <polyline id="Fill-514" fill="#FBB231" points="19.0730159 8.15174603 22.8688889 8.15174603 22.8688889 7.65174603 19.4003175 7.65174603 19.0730159 8.15174603"></polyline>
            <polyline id="Fill-515" fill="#FBB231" points="18.5044444 9.01428571 22.8688889 9.01428571 22.8688889 8.51428571 18.7330159 8.51428571 18.5044444 9.01428571"></polyline>
            <polyline id="Fill-516" fill="#FBB231" points="18.0796825 9.87460317 22.8688889 9.87460317 22.8688889 9.37460317 18.2488889 9.37460317 18.0796825 9.87460317"></polyline>
            <polyline id="Fill-517" fill="#FBB231" points="17.788254 10.7377778 22.8688889 10.7377778 22.8688889 10.2377778 17.9092063 10.2377778 17.788254 10.7377778"></polyline>
            <polyline id="Fill-518" fill="#FBB231" points="17.9574603 14.9063492 22.8806349 14.9063492 22.8806349 14.4063492 17.8365079 14.4063492 17.9574603 14.9063492"></polyline>
            <polyline id="Fill-519" fill="#FBB231" points="18.3209524 15.7692063 22.8806349 15.7692063 22.8806349 15.2692063 18.1403175 15.2692063 18.3209524 15.7692063"></polyline>
            <polyline id="Fill-520" fill="#FBB231" points="18.831746 16.6295238 22.8806349 16.6295238 22.8806349 16.1295238 18.5879365 16.1295238 18.831746 16.6295238"></polyline>
            <polyline id="Fill-521" fill="#FBB231" points="19.5355556 17.4895238 22.8806349 17.4895238 22.8806349 16.9895238 19.1955556 16.9895238 19.5355556 17.4895238"></polyline>
            <polyline id="Fill-522" fill="#FBB231" points="17.6177778 11.5977778 22.8688889 11.5977778 22.8688889 11.0977778 17.6920635 11.0977778 17.6177778 11.5977778"></polyline>
            <polyline id="Fill-523" fill="#FBB231" points="20.8177778 14.0460317 22.82 14.0460317 22.82 13.5460317 20.8895238 13.5460317 20.8177778 14.0460317"></polyline>
            <polyline id="Fill-524" fill="#FBB231" points="20.9765079 13.1834921 22.82 13.1834921 22.82 12.6834921 21.0488889 12.6834921 20.9765079 13.1834921"></polyline>
            <polyline id="Fill-525" fill="#FBB231" points="17.4850794 12.6834921 18.0050794 12.6834921 18.0050794 13.1834921 17.5092063 13.1834921 17.4850794 12.6834921"></polyline>
            <polyline id="Fill-526" fill="#FFFFFF" points="16.5133333 12.2133333 16.48 12.2107937 16.4457143 12.2063492 16.4149206 12.2015873 16.3838095 12.1968254 16.3546032 12.1920635 16.3238095 12.1869841 16.2920635 12.1825397 16.2580952 12.1771429 16.2244444 12.1726984 16.1860317 12.1701587 16.1425397 12.167619 16.0974603 12.1650794 16.0466667 12.1650794 15.9907937 12.167619 15.928254 12.1726984 15.8587302 12.1771429 15.8101587 12.1847619 15.7644444 12.1920635 15.7234921 12.2063492 15.6869841 12.2206349 15.6533333 12.2374603 15.6225397 12.2568254 15.5980952 12.2812698 15.5765079 12.3028571 15.5615873 12.3292063 15.5492063 12.355873 15.5447619 12.3844444 15.5447619 12.4136508 15.552381 12.4450794 15.5615873 12.4761905 15.5809524 12.507619 15.6050794 12.5390476 15.6533333 12.5844444 15.711746 12.6206349 15.7787302 12.6520635 15.8511111 12.6784127 15.928254 12.7028571 16.0079365 12.7292063 16.0873016 12.7584127 16.1644444 12.7895238 16.2368254 12.8304762 16.3038095 12.8809524 16.3647619 12.9415873 16.4149206 13.0161905 16.4533333 13.107619 16.4774603 13.215873 16.4873016 13.3463492 16.4774603 13.4980952 16.4606349 13.6114286 16.4314286 13.7101587 16.3930159 13.8015873 16.3447619 13.8809524 16.2895238 13.9511111 16.2269841 14.0111111 16.1593651 14.064127 16.0850794 14.1101587 16.0079365 14.1463492 15.928254 14.1774603 15.8463492 14.2015873 15.7619048 14.2209524 15.68 14.2355556 15.6 14.2425397 15.5206349 14.247619 15.4463492 14.2495238 15.3428571 14.2495238 15.2460317 14.247619 15.1615873 14.247619 15.0822222 14.2453968 15.0098413 14.2425397 14.9447619 14.2377778 14.8869841 14.2330159 14.831746 14.2257143 14.7809524 14.2209524 14.7352381 14.2114286 14.6898413 14.2038095 14.648254 14.1920635 14.6073016 14.1822222 14.5688889 14.167619 14.5304762 14.1536508 14.4895238 14.1390476 14.5980952 13.6063492 14.6196825 13.6114286 14.6463492 13.6187302 14.68 13.6279365 14.7209524 13.6380952 14.7644444 13.6473016 14.8120635 13.6571429 14.8653968 13.6688889 14.9231746 13.6787302 14.9831746 13.688254 15.0457143 13.6980952 15.1114286 13.7050794 15.1784127 13.712381 15.2485714 13.7146032 15.3187302 13.7171429 15.3885714 13.7171429 15.4580952 13.7146032 15.528254 13.7003175 15.584127 13.6809524 15.6273016 13.6546032 15.6609524 13.6209524 15.6844444 13.5869841 15.7034921 13.548254 15.7161905 13.5101587 15.7260317 13.4739683 15.7301587 13.4038095 15.7085714 13.3434921 15.667619 13.2952381 15.607619 13.2546032 15.5355556 13.2184127 15.4507937 13.1822222 15.3571429 13.148254 15.2628571 13.1098413 15.1666667 13.0666667 15.0749206 13.0161905 14.9904762 12.9533333 14.9136508 12.8787302 14.8530159 12.7869841 14.8101587 12.6784127 14.7885714 12.5485714 14.7907937 12.3946032 14.8028571 12.3003175 14.8193651 12.2107937 14.8438095 12.1292063 14.8726984 12.0520635 14.9111111 11.98 14.9546032 11.9171429 15.0053968 11.8568254 15.0657143 11.804127 15.1355556 11.7584127 15.2126984 11.7196825 15.2993651 11.6834921 15.3961905 11.6571429 15.504127 11.6349206 15.6225397 11.6184127 15.7520635 11.6085714 15.8946032 11.6060317 15.9831746 11.6060317 16.0650794 11.6085714 16.14 11.6114286 16.207619 11.6136508 16.2679365 11.6184127 16.3238095 11.6231746 16.3714286 11.6279365 16.4149206 11.6330159 16.455873 11.6374603 16.4892063 11.6447619 16.5215873 11.6498413 16.5501587 11.6546032 16.5736508 11.6590476 16.595873 11.6619048 16.6174603 11.6666667 16.6361905 11.6692063 16.5133333 12.2133333"></polyline>
            <polyline id="Stroke-527" stroke="#FFFFFF" stroke-width="0.216" points="16.5133333 12.2133333 16.5133333 12.2133333 16.48 12.2107937 16.4457143 12.2063492 16.4149206 12.2015873 16.3838095 12.1968254 16.3546032 12.1920635 16.3238095 12.1869841 16.2920635 12.1825397 16.2580952 12.1771429 16.2244444 12.1726984 16.1860317 12.1701587 16.1425397 12.167619 16.0974603 12.1650794 16.0466667 12.1650794 15.9907937 12.167619 15.928254 12.1726984 15.8587302 12.1771429 15.8101587 12.1847619 15.7644444 12.1920635 15.7234921 12.2063492 15.6869841 12.2206349 15.6533333 12.2374603 15.6225397 12.2568254 15.5980952 12.2812698 15.5765079 12.3028571 15.5615873 12.3292063 15.5492063 12.355873 15.5447619 12.3844444 15.5447619 12.4136508 15.552381 12.4450794 15.5615873 12.4761905 15.5809524 12.507619 15.6050794 12.5390476 15.6533333 12.5844444 15.711746 12.6206349 15.7787302 12.6520635 15.8511111 12.6784127 15.928254 12.7028571 16.0079365 12.7292063 16.0873016 12.7584127 16.1644444 12.7895238 16.2368254 12.8304762 16.3038095 12.8809524 16.3647619 12.9415873 16.4149206 13.0161905 16.4533333 13.107619 16.4774603 13.215873 16.4873016 13.3463492 16.4774603 13.4980952 16.4606349 13.6114286 16.4314286 13.7101587 16.3930159 13.8015873 16.3447619 13.8809524 16.2895238 13.9511111 16.2269841 14.0111111 16.1593651 14.064127 16.0850794 14.1101587 16.0079365 14.1463492 15.928254 14.1774603 15.8463492 14.2015873 15.7619048 14.2209524 15.68 14.2355556 15.6 14.2425397 15.5206349 14.247619 15.4463492 14.2495238 15.3428571 14.2495238 15.2460317 14.247619 15.1615873 14.247619 15.0822222 14.2453968 15.0098413 14.2425397 14.9447619 14.2377778 14.8869841 14.2330159 14.831746 14.2257143 14.7809524 14.2209524 14.7352381 14.2114286 14.6898413 14.2038095 14.648254 14.1920635 14.6073016 14.1822222 14.5688889 14.167619 14.5304762 14.1536508 14.4895238 14.1390476 14.5980952 13.6063492 14.6196825 13.6114286 14.6463492 13.6187302 14.68 13.6279365 14.7209524 13.6380952 14.7644444 13.6473016 14.8120635 13.6571429 14.8653968 13.6688889 14.9231746 13.6787302 14.9831746 13.688254 15.0457143 13.6980952 15.1114286 13.7050794 15.1784127 13.712381 15.2485714 13.7146032 15.3187302 13.7171429 15.3885714 13.7171429 15.4580952 13.7146032 15.528254 13.7003175 15.584127 13.6809524 15.6273016 13.6546032 15.6609524 13.6209524 15.6844444 13.5869841 15.7034921 13.548254 15.7161905 13.5101587 15.7260317 13.4739683 15.7301587 13.4038095 15.7085714 13.3434921 15.667619 13.2952381 15.607619 13.2546032 15.5355556 13.2184127 15.4507937 13.1822222 15.3571429 13.148254 15.2628571 13.1098413 15.1666667 13.0666667 15.0749206 13.0161905 14.9904762 12.9533333 14.9136508 12.8787302 14.8530159 12.7869841 14.8101587 12.6784127 14.7885714 12.5485714 14.7907937 12.3946032 14.8028571 12.3003175 14.8193651 12.2107937 14.8438095 12.1292063 14.8726984 12.0520635 14.9111111 11.98 14.9546032 11.9171429 15.0053968 11.8568254 15.0657143 11.804127 15.1355556 11.7584127 15.2126984 11.7196825 15.2993651 11.6834921 15.3961905 11.6571429 15.504127 11.6349206 15.6225397 11.6184127 15.7520635 11.6085714 15.8946032 11.6060317 15.9831746 11.6060317 16.0650794 11.6085714 16.14 11.6114286 16.207619 11.6136508 16.2679365 11.6184127 16.3238095 11.6231746 16.3714286 11.6279365 16.4149206 11.6330159 16.455873 11.6374603 16.4892063 11.6447619 16.5215873 11.6498413 16.5501587 11.6546032 16.5736508 11.6590476 16.595873 11.6619048 16.6174603 11.6666667 16.6361905 11.6692063 16.5133333 12.2133333"></polyline>
            <polyline id="Fill-528" fill="#FFFFFF" points="17.0850794 11.0739683 17.752381 11.0739683 17.6536508 11.6571429 18.0561905 11.6571429 17.9692063 12.2015873 17.5450794 12.1895238 17.3139683 13.5339683 17.3114286 13.5822222 17.3231746 13.6234921 17.3473016 13.6546032 17.3790476 13.6809524 17.4225397 13.6980952 17.4707937 13.712381 17.5234921 13.7219048 17.5812698 13.7269841 17.6346032 13.7247619 17.6828571 13.7196825 17.7257143 13.712381 17.7647619 13.7028571 17.7955556 13.6930159 17.8174603 13.6860317 17.831746 13.6809524 17.8365079 13.6787302 17.752381 14.1269841 17.7355556 14.1390476 17.7187302 14.1485714 17.7012698 14.1580952 17.6847619 14.167619 17.6679365 14.1749206 17.6485714 14.1822222 17.6053968 14.1968254 17.5812698 14.2038095 17.5568254 14.2088889 17.5285714 14.2136508 17.4993651 14.2187302 17.467619 14.2234921 17.431746 14.228254 17.3933333 14.2330159 17.352381 14.2377778 17.1695238 14.2377778 17.0726984 14.2304762 16.988254 14.2209524 16.9114286 14.2066667 16.8463492 14.1895238 16.7904762 14.167619 16.7453968 14.144127 16.7044444 14.1149206 16.6726984 14.0834921 16.6485714 14.0498413 16.631746 14.0088889 16.6193651 13.967619 16.6126984 13.9222222 16.6101587 13.8714286 16.6101587 13.8184127 16.6174603 13.7631746 16.6244444 13.7028571 17.0850794 11.0739683"></polyline>
            <path d="M17.0850794,11.0739683 L17.752381,11.0739683 L17.6536508,11.6571429 L18.0561905,11.6571429 L17.9692063,12.2015873 L17.5450794,12.1895238 L17.3139683,13.5339683 L17.3114286,13.5822222 L17.3231746,13.6234921 L17.3473016,13.6546032 L17.3790476,13.6809524 L17.4225397,13.6980952 L17.4707937,13.712381 L17.5234921,13.7219048 L17.5812698,13.7269841 L17.6346032,13.7247619 L17.6828571,13.7196825 L17.7257143,13.712381 L17.7647619,13.7028571 L17.7955556,13.6930159 L17.8174603,13.6860317 L17.831746,13.6809524 L17.8365079,13.6787302 L17.752381,14.1269841 L17.7355556,14.1390476 L17.7187302,14.1485714 L17.7012698,14.1580952 L17.6847619,14.167619 L17.6679365,14.1749206 L17.6485714,14.1822222 L17.6053968,14.1968254 L17.5812698,14.2038095 L17.5568254,14.2088889 L17.5285714,14.2136508 L17.4993651,14.2187302 L17.467619,14.2234921 L17.431746,14.228254 L17.3933333,14.2330159 L17.352381,14.2377778 L17.1695238,14.2377778 L17.0726984,14.2304762 L16.988254,14.2209524 L16.9114286,14.2066667 L16.8463492,14.1895238 L16.7904762,14.167619 L16.7453968,14.144127 L16.7044444,14.1149206 L16.6726984,14.0834921 L16.6485714,14.0498413 L16.631746,14.0088889 L16.6193651,13.967619 L16.6126984,13.9222222 L16.6101587,13.8714286 L16.6101587,13.8184127 L16.6174603,13.7631746 L16.6244444,13.7028571 L17.0850794,11.0739683 M18.5879365,13.1098413 L18.5879365,13.1098413 L18.5819048,13.1507937 L18.5793651,13.1939683 L18.5831746,13.24 L18.5930159,13.2857143 L18.6104762,13.331746 L18.6295238,13.3755556 L18.6555556,13.4209524 L18.6847619,13.4615873 L18.7190476,13.5028571 L18.7549206,13.5393651 L18.7933333,13.5752381 L18.8368254,13.6038095 L18.8793651,13.6307937 L18.9285714,13.6520635 L18.9761905,13.6688889 L19.0244444,13.6787302 L19.0879365,13.688254 L19.1473016,13.6955556 L19.2098413,13.7028571 L19.2733333,13.707619 L19.3352381,13.7101587 L19.4003175,13.7101587 L19.4634921,13.707619 L19.5279365,13.7028571 L19.5930159,13.6930159 L19.6587302,13.6809524 L19.7257143,13.6666667 L19.7907937,13.6450794 L19.8584127,13.6187302 L19.9285714,13.5892063 L19.9955556,13.5511111 L20.0663492,13.5101587 L19.9695238,14.1028571 L19.9311111,14.1219048 L19.8920635,14.1415873 L19.8536508,14.1555556 L19.8174603,14.1704762 L19.7815873,14.1822222 L19.7425397,14.1946032 L19.704127,14.2038095 L19.6631746,14.2114286 L19.6196825,14.2187302 L19.5714286,14.2234921 L19.5212698,14.228254 L19.4653968,14.2330159 L19.4028571,14.2355556 L19.3377778,14.2355556 L19.2631746,14.2377778 L19.1838095,14.2377778 L19.0653968,14.2355556 L18.9450794,14.2234921 L18.8250794,14.2066667 L18.704127,14.1774603 L18.5863492,14.1415873 L18.4726984,14.0952381 L18.364127,14.0355556 L18.2631746,13.9653968 L18.1688889,13.8834921 L18.0869841,13.7847619 L18.0177778,13.6736508 L17.9593651,13.5460317 L17.9184127,13.4038095 L17.891746,13.2422222 L17.8850794,13.064127 L17.8968254,12.8666667 L17.9066667,12.7895238 L17.9209524,12.7 L17.94,12.6066667 L17.9666667,12.5047619 L18.0034921,12.4019048 L18.0460317,12.2977778 L18.1019048,12.1920635 L18.1688889,12.0907937 L18.2463492,11.9942857 L18.34,11.9028571 L18.4460317,11.8209524 L18.5669841,11.7485714 L18.7063492,11.688254 L18.8634921,11.6447619 L19.0368254,11.6161905 L19.232381,11.6060317 L19.3260317,11.6085714 L19.4250794,11.6184127 L19.5231746,11.6349206 L19.6222222,11.6590476 L19.7190476,11.6955556 L19.8126984,11.7390476 L19.8993651,11.7968254 L19.9787302,11.864127 L20.0514286,11.9460317 L20.1114286,12.0428571 L20.16,12.1533333 L20.1933333,12.2812698 L20.2126984,12.4253968 L20.2149206,12.5892063 L20.1984127,12.772381 L20.1622222,12.9752381 L20.1498413,13.1222222 L18.3933333,13.1222222 L18.5044444,12.6469841 L19.5596825,12.6469841 L19.5647619,12.5873016 L19.5622222,12.5292063 L19.5571429,12.4761905 L19.5479365,12.428254 L19.5304762,12.3822222 L19.5136508,12.3409524 L19.4895238,12.3050794 L19.4653968,12.2714286 L19.4368254,12.2425397 L19.4053968,12.2184127 L19.3692063,12.1968254 L19.3326984,12.1771429 L19.2949206,12.1631746 L19.255873,12.1533333 L19.2149206,12.1460317 L19.1720635,12.1412698 L19.1257143,12.1438095 L19.0828571,12.1507937 L19.0419048,12.1609524 L19.0009524,12.1749206 L18.9593651,12.1942857 L18.9234921,12.2161905 L18.8869841,12.2425397 L18.8565079,12.2714286 L18.8250794,12.3050794 L18.795873,12.3409524 L18.7698413,12.38 L18.7473016,12.4212698 L18.7257143,12.4644444 L18.7088889,12.512381 L18.6946032,12.5606349 L18.6847619,12.6111111 L18.5879365,13.1098413" id="Stroke-529" stroke="#FFFFFF" stroke-width="0.216"></path>
            <polyline id="Fill-530" fill="#FFFFFF" points="24.335873 11.8015873 24.304127 11.7847619 24.2733333 11.7701587 24.2396825 11.7533333 24.2031746 11.7361905 24.1673016 11.7219048 24.1263492 11.707619 24.0853968 11.6930159 24.0419048 11.6787302 23.9961905 11.6666667 23.9501587 11.6571429 23.8993651 11.6473016 23.8492063 11.64 23.7939683 11.6349206 23.7380952 11.6304762 23.5603175 11.6304762 23.4968254 11.6349206 23.432381 11.6425397 23.364127 11.6546032 23.2971429 11.6736508 23.2298413 11.7003175 23.1628571 11.7339683 23.0946032 11.7771429 23.0295238 11.8304762 22.9666667 11.8930159 22.9066667 11.9701587 22.8488889 12.0593651 22.7955556 12.1650794 22.7453968 12.2857143 22.7003175 12.4212698 22.6612698 12.5752381 22.6469841 12.6615873 22.6368254 12.7460317 22.6320635 12.8304762 22.6346032 12.912381 22.6419048 12.9942857 22.6587302 13.0714286 22.6803175 13.1438095 22.7069841 13.215873 22.7428571 13.2812698 22.7863492 13.3434921 22.8371429 13.3990476 22.8949206 13.4498413 22.96 13.4933333 23.0342857 13.5292063 23.1161905 13.5606349 23.2085714 13.5822222 23.2396825 13.5892063 23.2755556 13.5965079 23.3190476 13.6015873 23.3673016 13.6063492 23.42 13.6114286 23.535873 13.6114286 23.5961905 13.6063492 23.6587302 13.5990476 23.7212698 13.5869841 23.7815873 13.5701587 23.8415873 13.5511111 23.9019048 13.5244444 23.9574603 13.4933333 24.0079365 13.4546032 24.0561905 13.4114286 23.947619 14.0549206 23.9333333 14.0666667 23.9184127 14.0812698 23.8993651 14.0984127 23.8777778 14.1120635 23.851746 14.1314286 23.8174603 14.1485714 23.7790476 14.1653968 23.7355556 14.1796825 23.6803175 14.1968254 23.6177778 14.2088889 23.5453968 14.2187302 23.4609524 14.228254 23.3673016 14.2330159 23.2587302 14.2355556 23.1361905 14.2330159 23.0003175 14.2257143 22.8898413 14.2136508 22.7790476 14.1895238 22.6679365 14.1536508 22.5574603 14.1050794 22.4514286 14.047619 22.3504762 13.9749206 22.2536508 13.8907937 22.1644444 13.7946032 22.0850794 13.6860317 22.0174603 13.5657143 21.96 13.4307937 21.9165079 13.2834921 21.8879365 13.1222222 21.8780952 12.9511111 21.8828571 12.7631746 21.9088889 12.5628571 21.9288889 12.4644444 21.9504762 12.3679365 21.9739683 12.2739683 21.9984127 12.1847619 22.0250794 12.1003175 22.055873 12.0161905 22.087619 11.9365079 22.1209524 11.8619048 22.1577778 11.7869841 22.1936508 11.7171429 22.2346032 11.6498413 22.2777778 11.5873016 22.3212698 11.5266667 22.3692063 11.4692063 22.4174603 11.4161905 22.468254 11.3653968 22.5234921 11.3171429 22.5793651 11.2714286 22.6368254 11.2304762 22.6977778 11.191746 22.7622222 11.1555556 22.8273016 11.1247619 22.8949206 11.0955556 22.9650794 11.0688889 23.0393651 11.0447619 23.1136508 11.0257143 23.1911111 11.0085714 23.2730159 10.9942857 23.3549206 10.9819048 23.4415873 10.9726984 23.5285714 10.9679365 23.6203175 10.9650794 23.6971429 10.9679365 23.772381 10.9726984 23.844127 10.98 23.9168254 10.9895238 23.984127 10.9990476 24.0495238 11.0133333 24.1114286 11.0257143 24.1695238 11.04 24.2247619 11.0542857 24.2733333 11.0688889 24.3190476 11.0834921 24.3574603 11.0977778 24.3911111 11.1098413 24.4203175 11.1196825 24.4419048 11.1292063 24.4568254 11.1342857 24.335873 11.8015873"></polyline>
            <polyline id="Stroke-531" stroke="#FFFFFF" stroke-width="0.216" points="24.335873 11.8015873 24.335873 11.8015873 24.304127 11.7847619 24.2733333 11.7701587 24.2396825 11.7533333 24.2031746 11.7361905 24.1673016 11.7219048 24.1263492 11.707619 24.0853968 11.6930159 24.0419048 11.6787302 23.9961905 11.6666667 23.9501587 11.6571429 23.8993651 11.6473016 23.8492063 11.64 23.7939683 11.6349206 23.7380952 11.6304762 23.5603175 11.6304762 23.4968254 11.6349206 23.432381 11.6425397 23.364127 11.6546032 23.2971429 11.6736508 23.2298413 11.7003175 23.1628571 11.7339683 23.0946032 11.7771429 23.0295238 11.8304762 22.9666667 11.8930159 22.9066667 11.9701587 22.8488889 12.0593651 22.7955556 12.1650794 22.7453968 12.2857143 22.7003175 12.4212698 22.6612698 12.5752381 22.6469841 12.6615873 22.6368254 12.7460317 22.6320635 12.8304762 22.6346032 12.912381 22.6419048 12.9942857 22.6587302 13.0714286 22.6803175 13.1438095 22.7069841 13.215873 22.7428571 13.2812698 22.7863492 13.3434921 22.8371429 13.3990476 22.8949206 13.4498413 22.96 13.4933333 23.0342857 13.5292063 23.1161905 13.5606349 23.2085714 13.5822222 23.2396825 13.5892063 23.2755556 13.5965079 23.3190476 13.6015873 23.3673016 13.6063492 23.42 13.6114286 23.535873 13.6114286 23.5961905 13.6063492 23.6587302 13.5990476 23.7212698 13.5869841 23.7815873 13.5701587 23.8415873 13.5511111 23.9019048 13.5244444 23.9574603 13.4933333 24.0079365 13.4546032 24.0561905 13.4114286 23.947619 14.0549206 23.9333333 14.0666667 23.9184127 14.0812698 23.8993651 14.0984127 23.8777778 14.1120635 23.851746 14.1314286 23.8174603 14.1485714 23.7790476 14.1653968 23.7355556 14.1796825 23.6803175 14.1968254 23.6177778 14.2088889 23.5453968 14.2187302 23.4609524 14.228254 23.3673016 14.2330159 23.2587302 14.2355556 23.1361905 14.2330159 23.0003175 14.2257143 22.8898413 14.2136508 22.7790476 14.1895238 22.6679365 14.1536508 22.5574603 14.1050794 22.4514286 14.047619 22.3504762 13.9749206 22.2536508 13.8907937 22.1644444 13.7946032 22.0850794 13.6860317 22.0174603 13.5657143 21.96 13.4307937 21.9165079 13.2834921 21.8879365 13.1222222 21.8780952 12.9511111 21.8828571 12.7631746 21.9088889 12.5628571 21.9288889 12.4644444 21.9504762 12.3679365 21.9739683 12.2739683 21.9984127 12.1847619 22.0250794 12.1003175 22.055873 12.0161905 22.087619 11.9365079 22.1209524 11.8619048 22.1577778 11.7869841 22.1936508 11.7171429 22.2346032 11.6498413 22.2777778 11.5873016 22.3212698 11.5266667 22.3692063 11.4692063 22.4174603 11.4161905 22.468254 11.3653968 22.5234921 11.3171429 22.5793651 11.2714286 22.6368254 11.2304762 22.6977778 11.191746 22.7622222 11.1555556 22.8273016 11.1247619 22.8949206 11.0955556 22.9650794 11.0688889 23.0393651 11.0447619 23.1136508 11.0257143 23.1911111 11.0085714 23.2730159 10.9942857 23.3549206 10.9819048 23.4415873 10.9726984 23.5285714 10.9679365 23.6203175 10.9650794 23.6971429 10.9679365 23.772381 10.9726984 23.844127 10.98 23.9168254 10.9895238 23.984127 10.9990476 24.0495238 11.0133333 24.1114286 11.0257143 24.1695238 11.04 24.2247619 11.0542857 24.2733333 11.0688889 24.3190476 11.0834921 24.3574603 11.0977778 24.3911111 11.1098413 24.4203175 11.1196825 24.4419048 11.1292063 24.4568254 11.1342857 24.335873 11.8015873"></polyline>
            <polyline id="Fill-532" fill="#FFFFFF" points="30.268254 14.2377778 29.6012698 14.2377778 29.6495238 13.9704762 29.6495238 13.9460317 29.6104762 13.9946032 29.5701587 14.0374603 29.5292063 14.0761905 29.4860317 14.1101587 29.4419048 14.1415873 29.3984127 14.167619 29.3549206 14.1895238 29.3092063 14.2114286 29.2638095 14.228254 29.2180952 14.2403175 29.1720635 14.2520635 29.1238095 14.2590476 29.0755556 14.2666667 29.0295238 14.2714286 28.9819048 14.2739683 28.9333333 14.2739683 28.808254 14.264127 28.6930159 14.2377778 28.5869841 14.1968254 28.4901587 14.1415873 28.4031746 14.0714286 28.3263492 13.9898413 28.2587302 13.9003175 28.2012698 13.7993651 28.1526984 13.6904762 28.1142857 13.5777778 28.087619 13.4596825 28.0685714 13.3365079 28.0615873 13.2136508 28.0634921 13.0885714 28.075873 12.9653968 28.0977778 12.8428571 28.1336508 12.7 28.1774603 12.5653968 28.2273016 12.4425397 28.2879365 12.3269841 28.3504762 12.2184127 28.4225397 12.1219048 28.4974603 12.0355556 28.5768254 11.955873 28.6612698 11.8857143 28.7504762 11.8257143 28.8422222 11.7726984 28.9333333 11.731746 29.0295238 11.6977778 29.1263492 11.6761905 29.2228571 11.6619048 29.3215873 11.6571429 29.391746 11.6590476 29.4587302 11.6666667 29.5219048 11.6787302 29.58 11.6955556 29.6346032 11.7149206 29.6831746 11.7361905 29.7314286 11.7631746 29.7749206 11.7895238 29.8133333 11.8180952 29.8492063 11.8498413 29.8803175 11.8809524 29.9095238 11.912381 29.9336508 11.9438095 29.955873 11.9749206 29.9746032 12.004127 29.9892063 12.0330159 30.1580952 11.0860317 30.8133333 11.0860317 30.268254 14.2377778"></polyline>
            <polyline id="Stroke-533" stroke="#FFFFFF" stroke-width="0.216" points="30.268254 14.2377778 29.6012698 14.2377778 29.6495238 13.9704762 29.6495238 13.9460317 29.6104762 13.9946032 29.5701587 14.0374603 29.5292063 14.0761905 29.4860317 14.1101587 29.4419048 14.1415873 29.3984127 14.167619 29.3549206 14.1895238 29.3092063 14.2114286 29.2638095 14.228254 29.2180952 14.2403175 29.1720635 14.2520635 29.1238095 14.2590476 29.0755556 14.2666667 29.0295238 14.2714286 28.9819048 14.2739683 28.9333333 14.2739683 28.808254 14.264127 28.6930159 14.2377778 28.5869841 14.1968254 28.4901587 14.1415873 28.4031746 14.0714286 28.3263492 13.9898413 28.2587302 13.9003175 28.2012698 13.7993651 28.1526984 13.6904762 28.1142857 13.5777778 28.087619 13.4596825 28.0685714 13.3365079 28.0615873 13.2136508 28.0634921 13.0885714 28.075873 12.9653968 28.0977778 12.8428571 28.1336508 12.7 28.1774603 12.5653968 28.2273016 12.4425397 28.2879365 12.3269841 28.3504762 12.2184127 28.4225397 12.1219048 28.4974603 12.0355556 28.5768254 11.955873 28.6612698 11.8857143 28.7504762 11.8257143 28.8422222 11.7726984 28.9333333 11.731746 29.0295238 11.6977778 29.1263492 11.6761905 29.2228571 11.6619048 29.3215873 11.6571429 29.391746 11.6590476 29.4587302 11.6666667 29.5219048 11.6787302 29.58 11.6955556 29.6346032 11.7149206 29.6831746 11.7361905 29.7314286 11.7631746 29.7749206 11.7895238 29.8133333 11.8180952 29.8492063 11.8498413 29.8803175 11.8809524 29.9095238 11.912381 29.9336508 11.9438095 29.955873 11.9749206 29.9746032 12.004127 29.9892063 12.0330159 30.1580952 11.0860317 30.8133333 11.0860317 30.268254 14.2377778"></polyline>
            <polyline id="Fill-534" fill="#FBB231" points="29.1771429 13.6546032 29.2447619 13.6498413 29.3073016 13.6355556 29.3650794 13.6187302 29.4206349 13.5920635 29.4711111 13.5634921 29.5193651 13.5266667 29.5647619 13.4863492 29.6060317 13.4422222 29.6422222 13.3942857 29.6755556 13.3412698 29.7073016 13.2857143 29.7339683 13.228254 29.7574603 13.167619 29.7774603 13.1050794 29.7939683 13.04 29.8057143 12.9752381 29.8174603 12.9079365 29.8257143 12.8380952 29.8257143 12.772381 29.8225397 12.7053968 29.815873 12.6425397 29.8057143 12.5822222 29.7892063 12.5244444 29.7698413 12.4688889 29.7457143 12.4212698 29.7171429 12.3752381 29.6853968 12.3361905 29.6495238 12.3028571 29.6085714 12.2739683 29.5647619 12.2546032 29.5193651 12.2425397 29.4685714 12.2374603 29.4034921 12.2425397 29.3431746 12.2520635 29.288254 12.2714286 29.232381 12.2955556 29.1838095 12.3269841 29.1361905 12.3653968 29.0952381 12.4063492 29.0542857 12.452381 29.0177778 12.5047619 28.984127 12.5606349 28.9526984 12.6184127 28.9260317 12.6809524 28.9025397 12.7460317 28.8831746 12.8114286 28.864127 12.8809524 28.8492063 12.9511111 28.8368254 13.0571429 28.8422222 13.1726984 28.8590476 13.2904762 28.8901587 13.4038095 28.9384127 13.5028571 29.0009524 13.5822222 29.0803175 13.6355556 29.1771429 13.6546032"></polyline>
            <polyline id="Fill-535" fill="#FFFFFF" points="14.3787302 13.7028571 14.2819048 14.2377778 13.6749206 14.2377778 13.691746 14.1390476 13.704127 14.0498413 13.7133333 13.9825397 13.7231746 13.9460317 13.6898413 13.9847619 13.6507937 14.0234921 13.6053968 14.0596825 13.5546032 14.0930159 13.4968254 14.1269841 13.4361905 14.1555556 13.3736508 14.1847619 13.3092063 14.2088889 13.2390476 14.2304762 13.1688889 14.247619 13.0993651 14.2619048 13.0269841 14.2714286 12.9568254 14.2765079 12.8873016 14.2787302 12.82 14.2714286 12.7539683 14.2619048 12.6698413 14.2403175 12.5930159 14.215873 12.5253968 14.1847619 12.4650794 14.1485714 12.412381 14.1101587 12.364127 14.0666667 12.3257143 14.0206349 12.2914286 13.9726984 12.2631746 13.9222222 12.2387302 13.8688889 12.2196825 13.8161905 12.2053968 13.7631746 12.1955556 13.707619 12.1879365 13.6520635 12.1831746 13.5990476 12.1831746 13.5460317 12.1904762 13.4520635 12.2053968 13.3628571 12.2288889 13.2787302 12.2606349 13.1965079 12.2990476 13.1196825 12.3425397 13.0498413 12.3933333 12.9825397 12.4507937 12.9219048 12.5111111 12.8666667 12.5787302 12.815873 12.6479365 12.7701587 12.7206349 12.7314286 12.7974603 12.6984127 12.8774603 12.6714286 12.9593651 12.6498413 13.0438095 12.6352381 13.0485714 12.6352381 13.0603175 12.6326984 13.0771429 12.6304762 13.1038095 12.6279365 13.1330159 12.6231746 13.1663492 12.6206349 13.2025397 12.615873 13.2438095 12.6111111 13.2847619 12.6066667 13.3257143 12.6015873 13.3692063 12.5990476 13.407619 12.5942857 13.4460317 12.5920635 13.4819048 12.5892063 13.5155556 12.5873016 13.5980952 12.5873016 13.6561905 12.5892063 13.7088889 12.5920635 13.7615873 12.5920635 13.8050794 12.5942857 13.8390476 12.5965079 13.8628571 12.5990476 13.8701587 12.5990476 13.8752381 12.5822222 13.8895238 12.5390476 13.9019048 12.4879365 13.9060317 12.4425397 13.8968254 12.3895238 13.8752381 12.3409524 13.8460317 12.2977778 13.807619 12.2615873 13.7615873 12.2307937 13.7114286 12.2088889 13.6533333 12.1942857 13.5904762 12.1895238 13.5228571 12.1869841 13.4504762 12.1847619 13.375873 12.1847619 13.2990476 12.1869841 13.2196825 12.1920635 13.1422222 12.1990476 13.0653968 12.2063492 12.9904762 12.2161905 12.9184127 12.2253968 12.848254 12.2374603 12.7857143 12.2495238 12.7279365 12.2615873 12.6746032 12.2765079 12.6320635 12.2904762 12.5977778 12.307619 12.5711111 12.3219048 12.7422222 11.7412698 12.7955556 11.7196825 12.848254 11.7003175 12.9066667 11.6834921 12.9644444 11.6711111 13.0219048 11.6590476 13.0844444 11.6498413 13.1473016 11.64 13.212381 11.6349206 13.28 11.6304762 13.3492063 11.6279365 13.4219048 11.6253968 13.6533333 11.6253968 13.7374603 11.6279365 13.8219048 11.6304762 13.8895238 11.6349206 13.9619048 11.6473016 14.0368254 11.664127 14.1133333 11.6860317 14.187619 11.7149206 14.2609524 11.7485714 14.3326984 11.7895238 14.4003175 11.8352381 14.4603175 11.8885714 14.5136508 11.9460317 14.5622222 12.0111111 14.5980952 12.0834921 14.6222222 12.1609524 14.6365079 12.2425397 14.6365079 12.3339683 14.6222222 12.4304762 14.3787302 13.7028571"></polyline>
            <polyline id="Stroke-536" stroke="#FFFFFF" stroke-width="0.216" points="14.3787302 13.7028571 14.2819048 14.2377778 13.6749206 14.2377778 13.691746 14.1390476 13.704127 14.0498413 13.7133333 13.9825397 13.7231746 13.9460317 13.6898413 13.9847619 13.6507937 14.0234921 13.6053968 14.0596825 13.5546032 14.0930159 13.4968254 14.1269841 13.4361905 14.1555556 13.3736508 14.1847619 13.3092063 14.2088889 13.2390476 14.2304762 13.1688889 14.247619 13.0993651 14.2619048 13.0269841 14.2714286 12.9568254 14.2765079 12.8873016 14.2787302 12.82 14.2714286 12.7539683 14.2619048 12.6698413 14.2403175 12.5930159 14.215873 12.5253968 14.1847619 12.4650794 14.1485714 12.412381 14.1101587 12.364127 14.0666667 12.3257143 14.0206349 12.2914286 13.9726984 12.2631746 13.9222222 12.2387302 13.8688889 12.2196825 13.8161905 12.2053968 13.7631746 12.1955556 13.707619 12.1879365 13.6520635 12.1831746 13.5990476 12.1831746 13.5460317 12.1904762 13.4520635 12.2053968 13.3628571 12.2288889 13.2787302 12.2606349 13.1965079 12.2990476 13.1196825 12.3425397 13.0498413 12.3933333 12.9825397 12.4507937 12.9219048 12.5111111 12.8666667 12.5787302 12.815873 12.6479365 12.7701587 12.7206349 12.7314286 12.7974603 12.6984127 12.8774603 12.6714286 12.9593651 12.6498413 13.0438095 12.6352381 13.0485714 12.6352381 13.0603175 12.6326984 13.0771429 12.6304762 13.1038095 12.6279365 13.1330159 12.6231746 13.1663492 12.6206349 13.2025397 12.615873 13.2438095 12.6111111 13.2847619 12.6066667 13.3257143 12.6015873 13.3692063 12.5990476 13.407619 12.5942857 13.4460317 12.5920635 13.4819048 12.5892063 13.5155556 12.5873016 13.5980952 12.5873016 13.6561905 12.5892063 13.7088889 12.5920635 13.7615873 12.5920635 13.8050794 12.5942857 13.8390476 12.5965079 13.8628571 12.5990476 13.8701587 12.5990476 13.8752381 12.5822222 13.8895238 12.5390476 13.9019048 12.4879365 13.9060317 12.4425397 13.8968254 12.3895238 13.8752381 12.3409524 13.8460317 12.2977778 13.807619 12.2615873 13.7615873 12.2307937 13.7114286 12.2088889 13.6533333 12.1942857 13.5904762 12.1895238 13.5228571 12.1869841 13.4504762 12.1847619 13.375873 12.1847619 13.2990476 12.1869841 13.2196825 12.1920635 13.1422222 12.1990476 13.0653968 12.2063492 12.9904762 12.2161905 12.9184127 12.2253968 12.848254 12.2374603 12.7857143 12.2495238 12.7279365 12.2615873 12.6746032 12.2765079 12.6320635 12.2904762 12.5977778 12.307619 12.5711111 12.3219048 12.7422222 11.7412698 12.7955556 11.7196825 12.848254 11.7003175 12.9066667 11.6834921 12.9644444 11.6711111 13.0219048 11.6590476 13.0844444 11.6498413 13.1473016 11.64 13.212381 11.6349206 13.28 11.6304762 13.3492063 11.6279365 13.4219048 11.6253968 13.6533333 11.6253968 13.7374603 11.6279365 13.8219048 11.6304762 13.8895238 11.6349206 13.9619048 11.6473016 14.0368254 11.664127 14.1133333 11.6860317 14.187619 11.7149206 14.2609524 11.7485714 14.3326984 11.7895238 14.4003175 11.8352381 14.4603175 11.8885714 14.5136508 11.9460317 14.5622222 12.0111111 14.5980952 12.0834921 14.6222222 12.1609524 14.6365079 12.2425397 14.6365079 12.3339683 14.6222222 12.4304762 14.3787302 13.7028571"></polyline>
            <polyline id="Fill-537" fill="#EC1C2E" points="13.7984127 13.0736508 13.795873 13.0619048 13.7857143 13.0498413 13.771746 13.0425397 13.7473016 13.0377778 13.7206349 13.0330159 13.6898413 13.0304762 13.6171429 13.0304762 13.5780952 13.0330159 13.5371429 13.0377778 13.4987302 13.0425397 13.4603175 13.047619 13.4244444 13.052381 13.3901587 13.0593651 13.3619048 13.0666667 13.3352381 13.0736508 13.3184127 13.0784127 13.2990476 13.0860317 13.272381 13.0955556 13.2457143 13.107619 13.2149206 13.1222222 13.1831746 13.1390476 13.1498413 13.155873 13.1180952 13.1752381 13.0844444 13.1990476 13.0536508 13.2231746 13.0244444 13.252381 12.9977778 13.2812698 12.9736508 13.312381 12.9568254 13.3463492 12.9419048 13.3847619 12.9352381 13.4231746 12.9326984 13.5053968 12.9450794 13.5701587 12.9685714 13.6187302 13.0003175 13.6546032 13.0361905 13.6787302 13.0771429 13.6930159 13.1155556 13.7003175 13.1546032 13.7028571 13.2273016 13.7003175 13.292381 13.6930159 13.3549206 13.6831746 13.4095238 13.6688889 13.4584127 13.6520635 13.5038095 13.6307937 13.5447619 13.6088889 13.5812698 13.5822222 13.6130159 13.5580952 13.6412698 13.5292063 13.6657143 13.5028571 13.6847619 13.4739683 13.7015873 13.4450794 13.715873 13.4161905 13.728254 13.3895238 13.7349206 13.3628571 13.7549206 13.2933333 13.771746 13.2136508 13.7857143 13.1365079 13.7984127 13.0736508"></polyline>
            <polyline id="Fill-538" fill="#FFFFFF" points="9.30857143 14.2377778 8.65333333 14.2377778 9.2 11.0739683 10.3403175 11.0739683 10.448254 12.9511111 11.2361905 11.0739683 12.4266667 11.0739683 11.867619 14.2377778 11.2120635 14.2377778 11.6263492 11.8739683 11.6003175 11.8739683 10.6193651 14.2377778 9.87968254 14.2377778 9.8752381 14.1390476 9.85777778 13.8761905 9.83619048 13.5028571 9.78793651 12.6425397 9.76603175 12.2644444 9.74952381 11.9898413 9.74444444 11.8739683 9.70857143 11.8739683 9.30857143 14.2377778"></polyline>
            <polyline id="Stroke-539" stroke="#FFFFFF" stroke-width="0.216" points="9.30857143 14.2377778 8.65333333 14.2377778 9.2 11.0739683 10.3403175 11.0739683 10.448254 12.9511111 11.2361905 11.0739683 12.4266667 11.0739683 11.867619 14.2377778 11.2120635 14.2377778 11.6263492 11.8739683 11.6003175 11.8739683 10.6193651 14.2377778 9.87968254 14.2377778 9.8752381 14.1390476 9.85777778 13.8761905 9.83619048 13.5028571 9.78793651 12.6425397 9.76603175 12.2644444 9.74952381 11.9898413 9.74444444 11.8739683 9.70857143 11.8739683 9.30857143 14.2377778"></polyline>
            <polyline id="Fill-540" fill="#FFFFFF" points="26.3384127 13.7028571 26.24 14.2377778 25.6349206 14.2377778 25.6396825 14.1390476 25.6422222 14.052381 25.6422222 13.9873016 25.6473016 13.9584127 25.6155556 13.9946032 25.5790476 14.0304762 25.5355556 14.064127 25.4879365 14.0984127 25.4371429 14.1292063 25.3793651 14.1580952 25.3193651 14.1873016 25.2590476 14.2114286 25.1933333 14.2304762 25.1263492 14.2495238 25.0587302 14.2619048 24.991746 14.2714286 24.9212698 14.2765079 24.8542857 14.2787302 24.7885714 14.2714286 24.724127 14.2619048 24.6371429 14.2403175 24.5603175 14.215873 24.4926984 14.1847619 24.4301587 14.1485714 24.3768254 14.1101587 24.3307937 14.0666667 24.292381 14.0206349 24.2584127 13.9726984 24.2298413 13.9222222 24.208254 13.8688889 24.1888889 13.8161905 24.1771429 13.7631746 24.1673016 13.707619 24.1596825 13.6520635 24.1549206 13.5990476 24.1549206 13.5460317 24.1596825 13.4520635 24.1746032 13.3628571 24.1961905 13.2787302 24.2273016 13.1965079 24.2631746 13.1196825 24.3098413 13.0498413 24.36 12.9825397 24.4152381 12.9219048 24.4784127 12.8666667 24.5428571 12.815873 24.6130159 12.7701587 24.6873016 12.7314286 24.7625397 12.6984127 24.8419048 12.6714286 24.9212698 12.6498413 25.0028571 12.6352381 25.0079365 12.6352381 25.0203175 12.6326984 25.0371429 12.6304762 25.0612698 12.6279365 25.092381 12.6231746 25.1263492 12.6206349 25.1622222 12.615873 25.2009524 12.6111111 25.2415873 12.6066667 25.2850794 12.6015873 25.3260317 12.5990476 25.367619 12.5942857 25.4060317 12.5920635 25.4393651 12.5892063 25.4730159 12.5873016 25.5574603 12.5873016 25.6155556 12.5892063 25.6707937 12.5920635 25.724127 12.5920635 25.7695238 12.5942857 25.8085714 12.5965079 25.8301587 12.5990476 25.84 12.5990476 25.8444444 12.5822222 25.851746 12.5390476 25.8587302 12.4879365 25.8634921 12.4425397 25.8536508 12.3895238 25.8352381 12.3409524 25.8034921 12.2977778 25.7669841 12.2615873 25.724127 12.2307937 25.6733333 12.2088889 25.62 12.1942857 25.5622222 12.1895238 25.4946032 12.1869841 25.4228571 12.1847619 25.347619 12.1847619 25.2707937 12.1869841 25.1907937 12.1920635 25.1139683 12.1990476 25.0371429 12.2063492 24.9622222 12.2161905 24.8901587 12.2253968 24.82 12.2374603 24.7580952 12.2495238 24.6996825 12.2615873 24.6463492 12.2765079 24.6031746 12.2904762 24.5695238 12.307619 24.5428571 12.3219048 24.7120635 11.7412698 24.7647619 11.7196825 24.82 11.7003175 24.8752381 11.6834921 24.9336508 11.6711111 24.9936508 11.6590476 25.0539683 11.6498413 25.1165079 11.64 25.1815873 11.6349206 25.2492063 11.6304762 25.3193651 11.6279365 25.3885714 11.6253968 25.6155556 11.6253968 25.6974603 11.6279365 25.7793651 11.6304762 25.8469841 11.6349206 25.9193651 11.6473016 25.9939683 11.664127 26.0714286 11.6860317 26.1457143 11.7149206 26.22 11.7485714 26.2926984 11.7895238 26.3603175 11.8352381 26.4203175 11.8885714 26.4761905 11.9460317 26.5238095 12.0111111 26.56 12.0834921 26.5866667 12.1609524 26.6031746 12.2425397 26.6031746 12.3339683 26.5914286 12.4304762 26.3384127 13.7028571"></polyline>
            <polyline id="Fill-541" fill="#FFFFFF" points="26.2485794 14.2546032 26.2710794 14.2403175 26.4260794 13.7050794 26.3805794 13.7003175 26.2250794 14.2355556 26.2485794 14.2209524 26.2485794 14.2546032 26.2670794 14.2520635 26.2710794 14.2403175 26.2485794 14.2546032"></polyline>
            <polyline id="Fill-542" fill="#FFFFFF" points="25.62 14.2474524 25.6349206 14.2739524 26.24 14.2739524 26.24 14.2209524 25.6349206 14.2209524 25.6492063 14.2474524 25.62 14.2474524 25.6180952 14.2739524 25.6349206 14.2739524 25.62 14.2474524"></polyline>
            <polyline id="Fill-543" fill="#FFFFFF" points="25.6815 13.9785714 25.6475 13.9485714 25.6315 14.0095714 25.6275 14.1120714 25.6275 14.2485714 25.62 14.4040714 25.666 14.4040714 25.6735 14.2485714 25.6815 14.1120714 25.6765 14.0095714 25.6765 13.9785714 25.6435 13.9485714 25.6815 13.9785714"></polyline>
            <polyline id="Fill-544" fill="#FFFFFF" points="24.7215873 14.4246083 24.7215873 14.4246083 24.7885714 14.4384332 24.8542857 14.4485714 24.9212698 14.4458065 24.991746 14.4384332 25.0612698 14.4246083 25.1288889 14.4066359 25.195873 14.379447 25.2634921 14.3508756 25.3234921 14.3158525 25.3860317 14.2743779 25.4438095 14.2324424 25.4946032 14.1831336 25.5453968 14.1338249 25.5888889 14.0854378 25.6273016 14.0287558 25.6590476 13.9762212 25.6349206 13.9485714 25.6031746 14.001106 25.5698413 14.0499539 25.5263492 14.0992627 25.4803175 14.1481106 25.4295238 14.1900461 25.3720635 14.2324424 25.3142857 14.2743779 25.2539683 14.3089401 25.1907937 14.3365899 25.1238095 14.3651613 25.0561905 14.3826728 24.991746 14.3960369 24.9212698 14.4034101 24.8542857 14.4066359 24.7885714 14.3960369 24.7257143 14.3826728 24.7215873 14.4246083"></polyline>
            <polyline id="Fill-545" fill="#FFFFFF" points="24.1380952 13.5460317 24.1380952 13.5460317 24.1406349 13.5990476 24.1453968 13.6520635 24.152381 13.7101587 24.1622222 13.7653968 24.1746032 13.8184127 24.1939683 13.8739683 24.2155556 13.9292063 24.2466667 13.98 24.2806349 14.0304762 24.3190476 14.0761905 24.367619 14.1219048 24.4225397 14.1606349 24.4853968 14.1993651 24.5552381 14.2304762 24.6339683 14.2546032 24.7215873 14.2765079 24.7257143 14.247619 24.6396825 14.2257143 24.5653968 14.2015873 24.4996825 14.1704762 24.4368254 14.1365079 24.3860317 14.0984127 24.3425397 14.0568254 24.304127 14.0111111 24.2707937 13.9653968 24.2447619 13.9149206 24.2222222 13.864127 24.2031746 13.8139683 24.1914286 13.7606349 24.1815873 13.7050794 24.1746032 13.6520635 24.1695238 13.5990476 24.1720635 13.5460317 24.1380952 13.5460317"></polyline>
            <polyline id="Fill-546" fill="#FFFFFF" points="25.0028571 12.6206349 25.0028571 12.6206349 24.9193651 12.6352381 24.8374603 12.6571429 24.7580952 12.6834921 24.6806349 12.7171429 24.6057143 12.7555556 24.5330159 12.804127 24.4685714 12.8549206 24.4060317 12.912381 24.347619 12.9726984 24.2974603 13.04 24.2488889 13.112381 24.2130159 13.1920635 24.1815873 13.2739683 24.1596825 13.3606349 24.1453968 13.4520635 24.1380952 13.5460317 24.1720635 13.5460317 24.1746032 13.4520635 24.1888889 13.3653968 24.2104762 13.2834921 24.2415873 13.2015873 24.2780952 13.1266667 24.3215873 13.0593651 24.372381 12.991746 24.4250794 12.931746 24.4869841 12.8787302 24.5526984 12.8279365 24.6196825 12.7847619 24.6949206 12.7460317 24.7666667 12.7126984 24.8466667 12.6860317 24.9234921 12.664127 25.0028571 12.6498413 25.0028571 12.6206349"></polyline>
            <polyline id="Fill-547" fill="#FFFFFF" points="25.5028571 12.5701587 25.4760201 12.5701587 25.4421543 12.5781587 25.4086079 12.5826587 25.3699498 12.5856587 25.3280968 12.5926587 25.2868827 12.5971587 25.2431127 12.6046587 25.2022182 12.6116587 25.1632405 12.6196587 25.1271383 12.6276587 25.092953 12.6306587 25.0616431 12.6386587 25.0373619 12.6421587 25.0178731 12.6461587 25.007969 12.6496587 25.0028571 12.6496587 25.0028571 12.6956587 25.007969 12.6956587 25.0229849 12.6911587 25.0373619 12.6881587 25.0616431 12.6841587 25.092953 12.6766587 25.1271383 12.6726587 25.1632405 12.6651587 25.2022182 12.6571587 25.2431127 12.6496587 25.2868827 12.6421587 25.3280968 12.6386587 25.3699498 12.6306587 25.4086079 12.6276587 25.4421543 12.6231587 25.5028571 12.6231587 25.5028571 12.5701587"></polyline>
            <polyline id="Fill-548" fill="#FFFFFF" points="25.9593238 12.6116587 25.9804 12.5926587 25.9664987 12.5926587 25.9360054 12.5891587 25.8808485 12.5856587 25.8167229 12.5781587 25.6633597 12.5781587 25.5812969 12.5701587 25.4996825 12.5701587 25.4996825 12.6231587 25.6633597 12.6231587 25.7413866 12.6306587 25.8808485 12.6306587 25.9360054 12.6346587 25.9664987 12.6386587 25.9804 12.6386587 25.9996825 12.6196587 25.9804 12.6386587 25.996992 12.6421587 25.9996825 12.6196587 25.9593238 12.6116587"></polyline>
            <polyline id="Fill-549" fill="#FFFFFF" points="25.8630794 12.4425397 25.8595794 12.4425397 25.8555794 12.5140397 25.8435794 12.5905397 25.8330794 12.6590397 25.8250794 12.6850397 25.8700794 12.6930397 25.8780794 12.6660397 25.8895794 12.5975397 25.9015794 12.5140397 25.9130794 12.4425397 25.8630794 12.4425397"></polyline>
            <polyline id="Fill-550" fill="#FFFFFF" points="25.5622222 12.2216984 25.5622222 12.2256984 25.6502222 12.2296984 25.7292222 12.2526984 25.8057222 12.2861984 25.8697222 12.3321984 25.9227222 12.3851984 25.9687222 12.4496984 25.9997222 12.5176984 26.0142222 12.5976984 26.0592222 12.5976984 26.0447222 12.5106984 26.0142222 12.4266984 25.9607222 12.3551984 25.9002222 12.2936984 25.8277222 12.2411984 25.7437222 12.2066984 25.6572222 12.1841984 25.5622222 12.1726984 25.5622222 12.2216984"></polyline>
            <polyline id="Fill-551" fill="#FFFFFF" points="24.5285714 12.407119 24.5526984 12.429619 24.5771429 12.410619 24.6079365 12.384119 24.6488889 12.361119 24.7022222 12.339119 24.76 12.320119 24.8225397 12.300619 24.8926984 12.281619 24.9622222 12.267119 25.0371429 12.251119 25.1139683 12.239619 25.1907937 12.228619 25.2707937 12.221119 25.4946032 12.221119 25.5622222 12.224619 25.5622222 12.179119 25.4946032 12.175619 25.4228571 12.167619 25.347619 12.167619 25.2707937 12.175619 25.1907937 12.182619 25.1139683 12.194619 25.0371429 12.206119 24.9622222 12.221119 24.887619 12.235619 24.8174603 12.255619 24.7549206 12.274619 24.6974603 12.293619 24.6447619 12.315619 24.5987302 12.339119 24.5622222 12.365119 24.5330159 12.391619 24.5577778 12.414619 24.5285714 12.407119"></polyline>
            <polyline id="Fill-552" fill="#FFFFFF" points="24.8100714 11.7266667 24.7945714 11.7390476 24.5285714 12.3196825 24.5745714 12.3244444 24.8390714 11.7434921 24.8245714 11.755873 24.8100714 11.7266667 24.7980714 11.7292063 24.7945714 11.7390476 24.8100714 11.7266667"></polyline>
            <polyline id="Fill-553" fill="#FFFFFF" points="25.7793651 11.6205714 25.7793651 11.6205714 25.6974603 11.6130714 25.6155556 11.6085714 25.3885714 11.6085714 25.3193651 11.6165714 25.2492063 11.6205714 25.1815873 11.6285714 25.1165079 11.6350714 25.0514286 11.6500714 24.991746 11.6655714 24.9311111 11.6850714 24.8726984 11.7040714 24.8152381 11.7305714 24.76 11.7605714 24.7073016 11.7945714 24.7165079 11.8405714 24.7698413 11.8060714 24.8250794 11.7760714 24.8777778 11.7490714 24.9361905 11.7305714 24.9961905 11.7110714 25.0561905 11.6960714 25.1165079 11.6810714 25.1815873 11.6735714 25.2492063 11.6655714 25.3193651 11.6620714 25.6155556 11.6620714 25.6974603 11.6655714 25.7793651 11.6655714 25.7793651 11.6205714"></polyline>
            <polyline id="Fill-554" fill="#FFFFFF" points="26.6057143 12.4330159 26.6057143 12.4330159 26.6180952 12.3339683 26.6180952 12.2425397 26.6015873 12.1577778 26.5749206 12.0784127 26.5365079 12.004127 26.4879365 11.9365079 26.4298413 11.8765079 26.3695238 11.8231746 26.3 11.7771429 26.227619 11.7339683 26.1507937 11.7003175 26.0755556 11.6711111 25.9961905 11.6498413 25.9212698 11.6330159 25.8469841 11.6212698 25.7793651 11.6161905 25.7793651 11.6447619 25.8469841 11.6498413 25.9161905 11.6619048 25.9914286 11.6787302 26.0663492 11.7003175 26.1406349 11.7292063 26.2126984 11.7631746 26.2853968 11.8015873 26.3504762 11.8473016 26.4104762 11.9 26.4631746 11.955873 26.5114286 12.0180952 26.5457143 12.0885714 26.572381 12.1631746 26.5892063 12.2425397 26.5892063 12.3339683 26.5765079 12.428254 26.6057143 12.4330159"></polyline>
            <polyline id="Fill-555" fill="#FFFFFF" points="26.3693095 13.7050794 26.3693095 13.7050794 26.7678095 12.4330159 26.7218095 12.428254 26.3238095 13.7003175 26.3693095 13.7050794"></polyline>
            <polyline id="Fill-556" fill="#FBB231" points="25.7552381 13.0736508 25.7501587 13.0593651 25.7409524 13.047619 25.724127 13.04 25.6993651 13.0330159 25.6733333 13.0304762 25.6422222 13.0279365 25.6057143 13.0279365 25.5698413 13.0304762 25.5307937 13.0352381 25.4926984 13.04 25.4542857 13.0450794 25.4177778 13.0498413 25.3819048 13.0571429 25.3501587 13.0619048 25.3193651 13.0692063 25.2949206 13.0736508 25.2784127 13.0761905 25.2590476 13.0834921 25.2349206 13.0907937 25.208254 13.1003175 25.1765079 13.1146032 25.147619 13.1295238 25.1139683 13.1463492 25.0828571 13.167619 25.0514286 13.1895238 25.0203175 13.215873 24.9936508 13.2422222 24.9669841 13.2739683 24.9460317 13.307619 24.9285714 13.3434921 24.9142857 13.3822222 24.9069841 13.4231746 24.9044444 13.5053968 24.9161905 13.5701587 24.9361905 13.6187302 24.9644444 13.6546032 25.0006349 13.6787302 25.0422222 13.6930159 25.0828571 13.7003175 25.1238095 13.7028571 25.195873 13.7003175 25.2634921 13.6930159 25.3260317 13.6809524 25.3819048 13.6644444 25.4346032 13.6450794 25.4803175 13.6234921 25.5238095 13.5990476 25.5622222 13.5701587 25.5965079 13.5438095 25.6247619 13.5126984 25.6514286 13.4834921 25.6733333 13.4520635 25.6901587 13.4231746 25.7019048 13.3942857 25.711746 13.3653968 25.7190476 13.3390476 25.7285714 13.2714286 25.7409524 13.2015873 25.7501587 13.1342857 25.7552381 13.0736508"></polyline>
            <polyline id="Fill-557" fill="#FFFFFF" points="30.7190476 14.0822222 30.724127 13.9964522 30.7431746 13.8965497 30.7774603 13.8078558 30.8184127 13.7303704 30.8685714 13.6679922 30.9263492 13.6231579 30.9888889 13.5929435 31.0565079 13.5822222 31.1247619 13.5929435 31.1866667 13.6231579 31.2450794 13.6679922 31.2952381 13.7303704 31.3361905 13.8078558 31.3695238 13.8965497 31.3895238 13.9964522 31.3942857 14.0822222 31.3219048 14.0822222 31.3193651 14.0149708 31.3050794 13.9335867 31.2809524 13.86 31.2492063 13.7966472 31.2107937 13.7449903 31.1657143 13.7084405 31.112381 13.6821248 31.0565079 13.6748148 31.0012698 13.6821248 30.9485714 13.7084405 30.9019048 13.7449903 30.8634921 13.7966472 30.8326984 13.86 30.8085714 13.9335867 30.7942857 14.0149708 30.7892063 14.0822222 30.7190476 14.0822222"></polyline>
            <polyline id="Fill-558" fill="#FFFFFF" points="30.9361905 13.9911746 30.9361905 13.7631746 31.1451905 13.7631746 31.1911905 13.7666746 31.2331905 13.7741746 31.2621905 13.7856746 31.2896905 13.8006746 31.3081905 13.8236746 31.3226905 13.8466746 31.3306905 13.8726746 31.3346905 13.8996746 31.3306905 13.9336746 31.3226905 13.9601746 31.3121905 13.9831746 31.3041905 13.9911746 31.1451905 13.9911746 31.1596905 13.9866746 31.1861905 13.9831746 31.2096905 13.9756746 31.2291905 13.9681746 31.2436905 13.9566746 31.2516905 13.9446746 31.2591905 13.9266746 31.2591905 13.8996746 31.2546905 13.8806746 31.2476905 13.8651746 31.2351905 13.8581746 31.2241905 13.8501746 31.2056905 13.8466746 31.1861905 13.8431746 31.0306905 13.8431746 31.0306905 13.9911746 30.9361905 13.9911746"></polyline>
            <polyline id="Fill-559" fill="#FFFFFF" points="30.7190476 13.9079365 30.7171429 13.9281159 30.724127 14.0267706 30.7431746 14.1182504 30.7774603 14.2003132 30.8184127 14.2684746 30.8685714 14.3258737 30.9263492 14.3707168 30.9888889 14.3976226 31.0565079 14.4079365 31.1247619 14.3976226 31.1866667 14.3707168 31.2450794 14.3258737 31.2952381 14.2684746 31.3361905 14.2003132 31.3695238 14.1182504 31.3895238 14.0267706 31.3968254 13.9281159 31.3942857 13.9079365 31.3219048 13.9079365 31.3244444 13.9281159 31.3193651 14.0097302 31.3050794 14.0846181 31.2809524 14.1496405 31.2492063 14.2065912 31.2107937 14.2550217 31.1657143 14.291793 31.112381 14.3160083 31.0565079 14.3227347 31.0012698 14.3160083 30.9485714 14.291793 30.9019048 14.2550217 30.8634921 14.2065912 30.8326984 14.1496405 30.8085714 14.0846181 30.7942857 14.0097302 30.7892063 13.9281159 30.7892063 13.9079365 30.7190476 13.9079365"></polyline>
            <polyline id="Fill-560" fill="#FFFFFF" points="30.9361905 13.9079365 30.9361905 14.1394365 31.0306905 14.1394365 31.0306905 13.9494365 31.1256905 13.9494365 31.2396905 14.1394365 31.3151905 14.1394365 31.2016905 13.9494365 31.2291905 13.9494365 31.2546905 13.9414365 31.2781905 13.9339365 31.2976905 13.9189365 31.3041905 13.9079365 31.1451905 13.9079365 31.1256905 13.9114365 31.0306905 13.9114365 31.0306905 13.9079365 30.9361905 13.9079365"></polyline>
            <path d="M31.0565079,14.2015873 L31.0565079,14.2015873 L31.112381,14.1968254 L31.1657143,14.1796825 L31.2107937,14.1536508 L31.2492063,14.1193651 L31.2809524,14.0790476 L31.3050794,14.0330159 L31.3193651,13.98 L31.3244444,13.9222222 L31.3193651,13.864127 L31.3050794,13.8111111 L31.2809524,13.7631746 L31.2492063,13.7219048 L31.2107937,13.688254 L31.1657143,13.6644444 L31.112381,13.6473016 L31.0565079,13.6425397 L31.0012698,13.6473016 L30.9485714,13.6644444 L30.9019048,13.688254 L30.8634921,13.7219048 L30.8326984,13.7631746 L30.8085714,13.8111111 L30.7942857,13.864127 L30.7892063,13.9222222 L30.7942857,13.98 L30.8085714,14.0330159 L30.8326984,14.0790476 L30.8634921,14.1193651 L30.9019048,14.1536508 L30.9485714,14.1796825 L31.0012698,14.1968254 L31.0565079,14.2015873 M31.0565079,13.9101587 L31.0565079,13.9101587 L31.0780952,13.9050794 L31.0949206,13.9028571 L31.1098413,13.8980952 L31.1222222,13.8933333 L31.1314286,13.8860317 L31.1365079,13.8784127 L31.1412698,13.8669841 L31.1412698,13.8498413 L31.1384127,13.8377778 L31.1339683,13.8279365 L31.1260317,13.8234921 L31.1190476,13.8184127 L31.1073016,13.8161905 L31.0949206,13.8139683 L30.9961905,13.8139683 L30.9961905,13.9101587 L31.0565079,13.9101587 M30.9961905,14.0549206 L30.9361905,14.0549206 L30.9361905,13.7631746 L31.0688889,13.7631746 L31.0980952,13.7653968 L31.1247619,13.7701587 L31.1431746,13.7774603 L31.1606349,13.7869841 L31.172381,13.8015873 L31.1815873,13.8161905 L31.1866667,13.8326984 L31.1892063,13.8498413 L31.1866667,13.8714286 L31.1815873,13.888254 L31.1749206,13.9028571 L31.1657143,13.9149206 L31.1533333,13.9244444 L31.1384127,13.9292063 L31.1222222,13.9342857 L31.1047619,13.9342857 L31.1768254,14.0549206 L31.1288889,14.0549206 L31.0565079,13.9342857 L30.9961905,13.9342857 L30.9961905,14.0549206 M30.7171429,13.9222222 L30.7171429,13.9222222 L30.724127,13.8520635 L30.7431746,13.7869841 L30.7774603,13.7292063 L30.8184127,13.6787302 L30.8685714,13.6380952 L30.9263492,13.6088889 L30.9888889,13.5892063 L31.0565079,13.5822222 L31.1247619,13.5892063 L31.1866667,13.6088889 L31.2450794,13.6380952 L31.2952381,13.6787302 L31.3361905,13.7292063 L31.3695238,13.7869841 L31.3895238,13.8520635 L31.3968254,13.9222222 L31.3895238,13.9920635 L31.3695238,14.0568254 L31.3361905,14.1149206 L31.2952381,14.1631746 L31.2450794,14.2038095 L31.1866667,14.2355556 L31.1247619,14.2546032 L31.0565079,14.2619048 L30.9888889,14.2546032 L30.9263492,14.2355556 L30.8685714,14.2038095 L30.8184127,14.1631746 L30.7774603,14.1149206 L30.7431746,14.0568254 L30.724127,13.9920635 L30.7171429,13.9222222" id="Stroke-561" stroke="#FFFFFF" stroke-width="0.216"></path>
            <polyline id="Fill-562" fill="#FFFFFF" points="26.5190476 14.2377778 27.1984127 14.2377778 27.4422222 12.8666667 27.4514286 12.8139683 27.4657143 12.7606349 27.4806349 12.707619 27.5 12.6546032 27.524127 12.6015873 27.5526984 12.5507937 27.584127 12.5028571 27.6231746 12.4568254 27.6660317 12.4161905 27.7142857 12.3774603 27.7695238 12.3409524 27.832381 12.3120635 27.9022222 12.2885714 27.9790476 12.2692063 28.0634921 12.2546032 28.1577778 12.2495238 28.2177778 12.2495238 28.3263492 11.6304762 28.2587302 11.6349206 28.1936508 11.6425397 28.1336508 11.6546032 28.075873 11.6711111 28.0225397 11.6904762 27.972381 11.7149206 27.924127 11.7412698 27.8787302 11.7701587 27.8346032 11.804127 27.7936508 11.8377778 27.7552381 11.8765079 27.7168254 11.9146032 27.6803175 11.955873 27.6450794 12.0012698 27.608254 12.0447619 27.5742857 12.0930159 27.6469841 11.6571429 26.9698413 11.6571429 26.5190476 14.2377778"></polyline>
            <polyline id="Stroke-563" stroke="#FFFFFF" stroke-width="0.216" points="26.5190476 14.2377778 27.1984127 14.2377778 27.4422222 12.8666667 27.4514286 12.8139683 27.4657143 12.7606349 27.4806349 12.707619 27.5 12.6546032 27.524127 12.6015873 27.5526984 12.5507937 27.584127 12.5028571 27.6231746 12.4568254 27.6660317 12.4161905 27.7142857 12.3774603 27.7695238 12.3409524 27.832381 12.3120635 27.9022222 12.2885714 27.9790476 12.2692063 28.0634921 12.2546032 28.1577778 12.2495238 28.2177778 12.2495238 28.3263492 11.6304762 28.2587302 11.6349206 28.1936508 11.6425397 28.1336508 11.6546032 28.075873 11.6711111 28.0225397 11.6904762 27.972381 11.7149206 27.924127 11.7412698 27.8787302 11.7701587 27.8346032 11.804127 27.7936508 11.8377778 27.7552381 11.8765079 27.7168254 11.9146032 27.6803175 11.955873 27.6450794 12.0012698 27.608254 12.0447619 27.5742857 12.0930159 27.6469841 11.6571429 26.9698413 11.6571429 26.5190476 14.2377778"></polyline>
            <polyline id="Fill-564" fill="#FFFFFF" points="20.1380952 14.2377778 20.8295238 14.2377778 21.0606349 12.8666667 21.0707937 12.8139683 21.0825397 12.7631746 21.0949206 12.7126984 21.111746 12.664127 21.1307937 12.615873 21.1549206 12.5701587 21.1834921 12.5269841 21.2177778 12.4860317 21.2561905 12.4492063 21.2993651 12.4136508 21.3520635 12.3844444 21.4104762 12.3580952 21.4780952 12.3361905 21.552381 12.3174603 21.6342857 12.3050794 21.7285714 12.2977778 21.7352381 12.2977778 21.7453968 12.3003175 21.7571429 12.3028571 21.7695238 12.3028571 21.7819048 12.3050794 21.7911111 12.307619 21.7980952 12.3098413 21.8006349 12.3098413 21.8034921 12.3003175 21.8104762 12.2714286 21.8196825 12.228254 21.8320635 12.1749206 21.8488889 12.112381 21.8657143 12.0447619 21.8879365 11.9774603 21.9088889 11.9095238 21.9288889 11.864127 21.9530159 11.8180952 21.9765079 11.7726984 22.0006349 11.731746 22.0225397 11.6955556 22.0393651 11.6666667 22.0511111 11.6498413 22.055873 11.6425397 22.0533333 11.6425397 22.044127 11.64 22.031746 11.6374603 22.0149206 11.6349206 21.9984127 11.6349206 21.9790476 11.6330159 21.9622222 11.6304762 21.9457143 11.6304762 21.8704762 11.6349206 21.8034921 11.6425397 21.7403175 11.6546032 21.6825397 11.6692063 21.6269841 11.688254 21.5765079 11.7126984 21.5307937 11.7361905 21.4873016 11.7650794 21.4463492 11.7968254 21.4079365 11.8330159 21.3720635 11.8692063 21.3355556 11.9095238 21.2993651 11.9511111 21.2653968 11.9971429 21.2295238 12.0447619 21.1933333 12.0930159 21.2803175 11.6571429 20.5888889 11.6571429 20.1380952 14.2377778"></polyline>
            <polyline id="Stroke-565" stroke="#FFFFFF" stroke-width="0.216" points="20.1380952 14.2377778 20.8295238 14.2377778 21.0606349 12.8666667 21.0707937 12.8139683 21.0825397 12.7631746 21.0949206 12.7126984 21.111746 12.664127 21.1307937 12.615873 21.1549206 12.5701587 21.1834921 12.5269841 21.2177778 12.4860317 21.2561905 12.4492063 21.2993651 12.4136508 21.3520635 12.3844444 21.4104762 12.3580952 21.4780952 12.3361905 21.552381 12.3174603 21.6342857 12.3050794 21.7285714 12.2977778 21.7352381 12.2977778 21.7453968 12.3003175 21.7571429 12.3028571 21.7695238 12.3028571 21.7819048 12.3050794 21.7911111 12.307619 21.7980952 12.3098413 21.8006349 12.3098413 21.8034921 12.3003175 21.8104762 12.2714286 21.8196825 12.228254 21.8320635 12.1749206 21.8488889 12.112381 21.8657143 12.0447619 21.8879365 11.9774603 21.9088889 11.9095238 21.9288889 11.864127 21.9530159 11.8180952 21.9765079 11.7726984 22.0006349 11.731746 22.0225397 11.6955556 22.0393651 11.6666667 22.0511111 11.6498413 22.055873 11.6425397 22.0533333 11.6425397 22.044127 11.64 22.031746 11.6374603 22.0149206 11.6349206 21.9984127 11.6349206 21.9790476 11.6330159 21.9622222 11.6304762 21.9457143 11.6304762 21.8704762 11.6349206 21.8034921 11.6425397 21.7403175 11.6546032 21.6825397 11.6692063 21.6269841 11.688254 21.5765079 11.7126984 21.5307937 11.7361905 21.4873016 11.7650794 21.4463492 11.7968254 21.4079365 11.8330159 21.3720635 11.8692063 21.3355556 11.9095238 21.2993651 11.9511111 21.2653968 11.9971429 21.2295238 12.0447619 21.1933333 12.0930159 21.2803175 11.6571429 20.5888889 11.6571429 20.1380952 14.2377778"></polyline>
            <polyline id="Fill-566" fill="#FBB231" points="30.724127 16.9268968 30.724127 16.9113968 30.7431746 16.8128968 30.7774603 16.7253968 30.8184127 16.6498968 30.8685714 16.5888968 30.9263492 16.5428968 30.9888889 16.5168968 31.0565079 16.5053968 31.1247619 16.5168968 31.1866667 16.5428968 31.2450794 16.5888968 31.2952381 16.6498968 31.3361905 16.7253968 31.3695238 16.8128968 31.3895238 16.9113968 31.3895238 16.9268968 31.3193651 16.9268968 31.3050794 16.8473968 31.2809524 16.7748968 31.2492063 16.7098968 31.2107937 16.6573968 31.1657143 16.6153968 31.112381 16.5888968 31.0565079 16.5813968 31.0012698 16.5888968 30.9485714 16.6153968 30.9019048 16.6573968 30.8634921 16.7098968 30.8326984 16.7748968 30.8085714 16.8473968 30.7942857 16.9268968 30.724127 16.9268968"></polyline>
            <polyline id="Fill-567" fill="#FBB231" points="30.9361905 16.8213889 30.9361905 16.6888889 31.1911905 16.6888889 31.2331905 16.6963889 31.2621905 16.7028889 31.2896905 16.7183889 31.3081905 16.7378889 31.3226905 16.7603889 31.3306905 16.7868889 31.3346905 16.8213889 31.2591905 16.8213889 31.2591905 16.8018889 31.2546905 16.7828889 31.2476905 16.7678889 31.2351905 16.7603889 31.2241905 16.7528889 31.2056905 16.7488889 31.1861905 16.7453889 31.0306905 16.7453889 31.0306905 16.8213889 30.9361905 16.8213889"></polyline>
            <polyline id="Fill-568" fill="#FBB231" points="30.7171429 16.8560159 30.7281429 16.7730159 30.8386429 16.7730159 30.8386429 16.7760159 30.8306429 16.8560159 30.7171429 16.8560159"></polyline>
            <polyline id="Fill-569" fill="#FBB231" points="30.9361905 16.8560159 30.9361905 16.7730159 31.0306905 16.7730159 31.0306905 16.8485159 31.1256905 16.8485159 31.1596905 16.8415159 31.1861905 16.8375159 31.2096905 16.8295159 31.2291905 16.8220159 31.2436905 16.8110159 31.2516905 16.7990159 31.2591905 16.7810159 31.2591905 16.7730159 31.3346905 16.7730159 31.3306905 16.7990159 31.3226905 16.8220159 31.3121905 16.8415159 31.2976905 16.8560159 30.9361905 16.8560159"></polyline>
            <polyline id="Fill-570" fill="#FBB231" points="31.3273651 16.8560159 31.3193651 16.7760159 31.3193651 16.7730159 31.4298651 16.7730159 31.4413651 16.8560159 31.3273651 16.8560159"></polyline>
            <polyline id="Fill-571" fill="#FBB231" points="30.7171429 16.8257143 30.7171429 16.8362358 30.724127 16.9368762 30.7431746 17.0306548 30.7774603 17.1139119 30.8184127 17.187105 30.8685714 17.2465743 30.9263492 17.2872879 30.9888889 17.3156502 31.0565079 17.3257143 31.1247619 17.3156502 31.1866667 17.2872879 31.2450794 17.2465743 31.2952381 17.187105 31.3361905 17.1139119 31.3695238 17.0306548 31.3895238 16.9368762 31.3968254 16.8362358 31.3968254 16.8257143 31.3244444 16.8257143 31.3244444 16.8362358 31.3193651 16.9199503 31.3050794 16.9963456 31.2809524 17.0617619 31.2492063 17.1203163 31.2107937 17.1701791 31.1657143 17.208148 31.112381 17.2323932 31.0565079 17.239255 31.0012698 17.2323932 30.9485714 17.208148 30.9019048 17.1701791 30.8634921 17.1203163 30.8326984 17.0617619 30.8085714 16.9963456 30.7942857 16.9199503 30.7892063 16.8362358 30.7892063 16.8257143 30.7171429 16.8257143"></polyline>
            <polyline id="Fill-572" fill="#FBB231" points="30.9361905 16.8257143 30.9361905 17.0462143 31.0306905 17.0462143 31.0306905 16.8562143 31.1256905 16.8562143 31.2396905 17.0462143 31.3151905 17.0462143 31.2016905 16.8562143 31.2291905 16.8562143 31.2546905 16.8487143 31.2781905 16.8412143 31.2976905 16.8257143 30.9361905 16.8257143"></polyline>
            <path d="M19.5596825,12.6469841 L18.6793651,12.6469841 L18.6796825,12.6450794 L18.6787302,12.6447619 L18.6847619,12.6111111 L18.6946032,12.5606349 L18.7088889,12.512381 L18.7257143,12.4644444 L18.7473016,12.4212698 L18.7698413,12.38 L18.795873,12.3409524 L18.8250794,12.3050794 L18.8565079,12.2714286 L18.8869841,12.2425397 L18.9234921,12.2161905 L18.9593651,12.1942857 L19.0009524,12.1749206 L19.0419048,12.1609524 L19.0828571,12.1507937 L19.1257143,12.1438095 L19.1720635,12.1412698 L19.2149206,12.1460317 L19.255873,12.1533333 L19.2949206,12.1631746 L19.3326984,12.1771429 L19.3692063,12.1968254 L19.4053968,12.2184127 L19.4368254,12.2425397 L19.4653968,12.2714286 L19.4895238,12.3050794 L19.5136508,12.3409524 L19.5304762,12.3822222 L19.5479365,12.428254 L19.5571429,12.4761905 L19.5622222,12.5292063 L19.5647619,12.5873016 L19.5596825,12.6469841 L19.5596825,12.6469841 Z M20.2126984,12.4253968 L20.1933333,12.2812698 L20.16,12.1533333 L20.1114286,12.0428571 L20.0514286,11.9460317 L19.9787302,11.864127 L19.8993651,11.7968254 L19.8126984,11.7390476 L19.7190476,11.6955556 L19.6222222,11.6590476 L19.5231746,11.6349206 L19.4250794,11.6184127 L19.3260317,11.6085714 L19.232381,11.6060317 L19.0368254,11.6161905 L18.8634921,11.6447619 L18.7063492,11.688254 L18.5669841,11.7485714 L18.4460317,11.8209524 L18.34,11.9028571 L18.2463492,11.9942857 L18.1688889,12.0907937 L18.1019048,12.1920635 L18.0460317,12.2977778 L18.0034921,12.4019048 L17.9666667,12.5047619 L17.94,12.6066667 L17.9209524,12.7 L17.9066667,12.7895238 L17.8968254,12.8666667 L17.8850794,13.064127 L17.891746,13.2422222 L17.9184127,13.4038095 L17.9593651,13.5460317 L18.0177778,13.6736508 L18.0869841,13.7847619 L18.1688889,13.8834921 L18.2631746,13.9653968 L18.364127,14.0355556 L18.4726984,14.0952381 L18.5863492,14.1415873 L18.704127,14.1774603 L18.8250794,14.2066667 L18.9450794,14.2234921 L19.0653968,14.2355556 L19.1838095,14.2377778 L19.2631746,14.2377778 L19.3377778,14.2355556 L19.4028571,14.2355556 L19.4653968,14.2330159 L19.5212698,14.228254 L19.5714286,14.2234921 L19.6196825,14.2187302 L19.6631746,14.2114286 L19.704127,14.2038095 L19.7425397,14.1946032 L19.7815873,14.1822222 L19.8174603,14.1704762 L19.8536508,14.1555556 L19.8920635,14.1415873 L19.9311111,14.1219048 L19.9695238,14.1028571 L20.0663492,13.5101587 L19.9955556,13.5511111 L19.9285714,13.5892063 L19.8584127,13.6187302 L19.7907937,13.6450794 L19.7257143,13.6666667 L19.6587302,13.6809524 L19.5930159,13.6930159 L19.5279365,13.7028571 L19.4634921,13.707619 L19.4003175,13.7101587 L19.3352381,13.7101587 L19.2733333,13.707619 L19.2098413,13.7028571 L19.1473016,13.6955556 L19.0879365,13.688254 L19.0244444,13.6787302 L18.9761905,13.6688889 L18.9285714,13.6520635 L18.8793651,13.6307937 L18.8368254,13.6038095 L18.7933333,13.5752381 L18.7549206,13.5393651 L18.7190476,13.5028571 L18.6847619,13.4615873 L18.6555556,13.4209524 L18.6295238,13.3755556 L18.6104762,13.331746 L18.5930159,13.2857143 L18.5831746,13.24 L18.5793651,13.1939683 L18.5812698,13.1533333 L18.5869841,13.1222222 L20.1498413,13.1222222 L20.1622222,12.9752381 L20.1984127,12.772381 L20.2149206,12.5892063 L20.2126984,12.4253968 L20.2126984,12.4253968 Z" id="Fill-573" fill="#FFFFFF"></path>
        </g>
    </g>
</svg>