<?xml version="1.0" encoding="UTF-8" standalone="no"?>
<svg width="40px" height="25px" viewBox="0 0 40 25" version="1.1" xmlns="http://www.w3.org/2000/svg" xmlns:xlink="http://www.w3.org/1999/xlink">
    <!-- Generator: Sketch 3.7.1 (28215) - http://www.bohemiancoding.com/sketch -->
    <title>Group</title>
    <desc>Created with Sketch.</desc>
    <defs></defs>
    <g id="Page-1" stroke="none" stroke-width="1" fill="none" fill-rule="evenodd">
        <g id="Group">
            <path d="M39.8190476,23.5596825 C39.8190476,24.2926984 39.2244444,24.8866667 38.4914286,24.8866667 L1.32698413,24.8866667 C0.593968254,24.8866667 0,24.2926984 0,23.5596825 L0,1.32761905 C0,0.594285714 0.593968254,0 1.32698413,0 L38.4914286,0 C39.2244444,0 39.8190476,0.594285714 39.8190476,1.32761905 L39.8190476,23.5596825" id="Fill-339" fill="#3957A7"></path>
            <polyline id="Fill-340" fill="#FFFFFF" points="18.1355556 16.36 16.1904762 16.36 17.4063492 8.88888889 19.3514286 8.88888889 18.1355556 16.36"></polyline>
            <path d="M14.6885714,8.88888889 L12.8342857,14.027619 L12.6146032,12.9209524 L12.6146032,12.9212698 L11.9606349,9.5615873 C11.9606349,9.5615873 11.8812698,8.88888889 11.0377778,8.88888889 L7.97174603,8.88888889 L7.93650794,9.01555556 C7.93650794,9.01555556 8.87396825,9.21015873 9.97079365,9.86920635 L11.6603175,16.36 L13.6873016,16.36 L16.7825397,8.88888889 L14.6885714,8.88888889" id="Fill-341" fill="#FFFFFF"></path>
            <path d="M27.7555556,13.7174603 L28.7771429,10.9209524 L29.3526984,13.7174603 L27.7555556,13.7174603 L27.7555556,13.7174603 Z M29.895873,16.36 L31.6815873,16.36 L30.1244444,8.88888889 L28.5609524,8.88888889 C27.8384127,8.88888889 27.6625397,9.44539683 27.6625397,9.44539683 L24.7619048,16.36 L26.7895238,16.36 L27.1942857,15.2504762 L29.667619,15.2504762 L29.895873,16.36 L29.895873,16.36 Z" id="Fill-342" fill="#FFFFFF"></path>
            <path d="M24.9031746,10.5015873 L25.1803175,8.89714286 C25.1803175,8.89714286 24.324127,8.57142857 23.4314286,8.57142857 C22.4660317,8.57142857 20.1736508,8.99333333 20.1736508,11.0447619 C20.1736508,12.9752381 22.8647619,12.9990476 22.8647619,14.012381 C22.8647619,15.0260317 20.4507937,14.8450794 19.6546032,14.2057143 L19.3650794,15.8825397 C19.3650794,15.8825397 20.2336508,16.3050794 21.5606349,16.3050794 C22.888254,16.3050794 24.8907937,15.6174603 24.8907937,13.7473016 C24.8907937,11.8047619 22.1765079,11.6234921 22.1765079,10.7790476 C22.1765079,9.93428571 24.0711111,10.0428571 24.9031746,10.5015873" id="Fill-343" fill="#FFFFFF"></path>
            <path d="M12.6146032,12.9212698 L11.9606349,9.5615873 C11.9606349,9.5615873 11.8812698,8.88888889 11.0377778,8.88888889 L7.97174603,8.88888889 L7.93650794,9.01555556 C7.93650794,9.01555556 9.40984127,9.32063492 10.8228571,10.4644444 C12.1739683,11.5584127 12.6146032,12.9212698 12.6146032,12.9212698" id="Fill-344" fill="#F9A533"></path>
        </g>
    </g>
</svg>